<svg width="18" height="18" viewBox="0 0 18 18" fill="none" xmlns="http://www.w3.org/2000/svg">
<path d="M5.79995 6.6001C5.95908 6.6001 6.11169 6.66331 6.22422 6.77583C6.33674 6.88836 6.39995 7.04097 6.39995 7.2001V14.4001C6.39995 14.5592 6.33674 14.7118 6.22422 14.8244C6.11169 14.9369 5.95908 15.0001 5.79995 15.0001C5.64082 15.0001 5.48821 14.9369 5.37569 14.8244C5.26317 14.7118 5.19995 14.5592 5.19995 14.4001V7.2001C5.19995 7.04097 5.26317 6.88836 5.37569 6.77583C5.48821 6.66331 5.64082 6.6001 5.79995 6.6001ZM8.79995 6.6001C8.95908 6.6001 9.11169 6.66331 9.22422 6.77583C9.33674 6.88836 9.39995 7.04097 9.39995 7.2001V14.4001C9.39995 14.5592 9.33674 14.7118 9.22422 14.8244C9.11169 14.9369 8.95908 15.0001 8.79995 15.0001C8.64082 15.0001 8.48821 14.9369 8.37569 14.8244C8.26317 14.7118 8.19995 14.5592 8.19995 14.4001V7.2001C8.19995 7.04097 8.26317 6.88836 8.37569 6.77583C8.48821 6.66331 8.64082 6.6001 8.79995 6.6001ZM12.4 7.2001C12.4 7.04097 12.3367 6.88836 12.2242 6.77583C12.1117 6.66331 11.9591 6.6001 11.8 6.6001C11.6408 6.6001 11.4882 6.66331 11.3757 6.77583C11.2632 6.88836 11.2 7.04097 11.2 7.2001V14.4001C11.2 14.5592 11.2632 14.7118 11.3757 14.8244C11.4882 14.9369 11.6408 15.0001 11.8 15.0001C11.9591 15.0001 12.1117 14.9369 12.2242 14.8244C12.3367 14.7118 12.4 14.5592 12.4 14.4001V7.2001Z" fill="#0F211F"/>
<path fill-rule="evenodd" clip-rule="evenodd" d="M16.6 3.6C16.6 3.91826 16.4736 4.22348 16.2485 4.44853C16.0235 4.67357 15.7183 4.8 15.4 4.8H14.8V15.6C14.8 16.2365 14.5471 16.847 14.0971 17.2971C13.647 17.7471 13.0365 18 12.4 18H5.2C4.56348 18 3.95303 17.7471 3.50294 17.2971C3.05286 16.847 2.8 16.2365 2.8 15.6V4.8H2.2C1.88174 4.8 1.57652 4.67357 1.35147 4.44853C1.12643 4.22348 1 3.91826 1 3.6V2.4C1 2.08174 1.12643 1.77652 1.35147 1.55147C1.57652 1.32643 1.88174 1.2 2.2 1.2H6.4C6.4 0.88174 6.52643 0.576516 6.75147 0.351472C6.97652 0.126428 7.28174 0 7.6 0L10 0C10.3183 0 10.6235 0.126428 10.8485 0.351472C11.0736 0.576516 11.2 0.88174 11.2 1.2H15.4C15.7183 1.2 16.0235 1.32643 16.2485 1.55147C16.4736 1.77652 16.6 2.08174 16.6 2.4V3.6ZM4.1416 4.8L4 4.8708V15.6C4 15.9183 4.12643 16.2235 4.35147 16.4485C4.57652 16.6736 4.88174 16.8 5.2 16.8H12.4C12.7183 16.8 13.0235 16.6736 13.2485 16.4485C13.4736 16.2235 13.6 15.9183 13.6 15.6V4.8708L13.4584 4.8H4.1416ZM2.2 3.6V2.4H15.4V3.6H2.2Z" fill="#0F211F"/>
</svg>
