<svg width="50" height="50" viewBox="0 0 50 50" fill="none" xmlns="http://www.w3.org/2000/svg">
<g clip-path="url(#clip0_114_143)">
<path d="M24.8063 6.30003C24.8675 6.26645 24.9364 6.24923 25.0062 6.25003C25.075 6.24976 25.1428 6.26696 25.2031 6.30003C25.2746 6.34288 25.3329 6.40449 25.3719 6.47816L46.8 42.9375C46.9125 43.125 46.9094 43.325 46.8062 43.5094C46.7666 43.5851 46.7086 43.6495 46.6375 43.6969C46.5756 43.7349 46.5038 43.7534 46.4312 43.75H3.58125C3.50871 43.7536 3.4368 43.7351 3.375 43.6969C3.30392 43.6495 3.24589 43.5851 3.20625 43.5094C3.15475 43.4227 3.1281 43.3235 3.1292 43.2226C3.1303 43.1217 3.15912 43.0231 3.2125 42.9375L24.6375 6.47816C24.6766 6.40458 24.7349 6.34301 24.8063 6.30003V6.30003ZM28.0687 4.89378C27.7594 4.35492 27.3134 3.90722 26.7756 3.59588C26.2379 3.28455 25.6276 3.12061 25.0062 3.12061C24.3849 3.12061 23.7746 3.28455 23.2369 3.59588C22.6991 3.90722 22.2531 4.35492 21.9437 4.89378L0.515624 41.3532C-0.912501 43.7844 0.799999 46.875 3.57812 46.875H46.4312C49.2094 46.875 50.925 43.7813 49.4937 41.3532L28.0687 4.89378Z" fill="#08DCA5"/>
<path d="M21.8812 37.5C21.8812 37.0896 21.9621 36.6833 22.1191 36.3041C22.2762 35.925 22.5064 35.5805 22.7965 35.2903C23.0867 35.0001 23.4312 34.7699 23.8104 34.6129C24.1895 34.4558 24.5959 34.375 25.0062 34.375C25.4166 34.375 25.823 34.4558 26.2021 34.6129C26.5813 34.7699 26.9258 35.0001 27.216 35.2903C27.5061 35.5805 27.7363 35.925 27.8934 36.3041C28.0504 36.6833 28.1312 37.0896 28.1312 37.5C28.1312 38.3288 27.802 39.1237 27.216 39.7097C26.6299 40.2958 25.8351 40.625 25.0062 40.625C24.1774 40.625 23.3826 40.2958 22.7965 39.7097C22.2105 39.1237 21.8812 38.3288 21.8812 37.5V37.5ZM22.1875 18.7344C22.1459 18.3401 22.1876 17.9415 22.31 17.5645C22.4324 17.1874 22.6327 16.8403 22.8979 16.5456C23.1631 16.2509 23.4873 16.0153 23.8494 15.854C24.2116 15.6927 24.6036 15.6094 25 15.6094C25.3964 15.6094 25.7884 15.6927 26.1506 15.854C26.5127 16.0153 26.8369 16.2509 27.1021 16.5456C27.3673 16.8403 27.5676 17.1874 27.69 17.5645C27.8124 17.9415 27.8541 18.3401 27.8125 18.7344L26.7187 29.6937C26.682 30.1243 26.485 30.5254 26.1667 30.8176C25.8485 31.1099 25.4321 31.272 25 31.272C24.5679 31.272 24.1515 31.1099 23.8333 30.8176C23.515 30.5254 23.318 30.1243 23.2812 29.6937L22.1875 18.7344Z" fill="#08DCA5"/>
</g>
<defs>
<clipPath id="clip0_114_143">
<rect width="50" height="50" fill="white"/>
</clipPath>
</defs>
</svg>
