<?xml version="1.0" encoding="utf-8"?>
<!-- Generator: Adobe Illustrator 26.3.1, SVG Export Plug-In . SVG Version: 6.00 Build 0)  -->
<svg version="1.1" id="Calque_1" xmlns="http://www.w3.org/2000/svg" xmlns:xlink="http://www.w3.org/1999/xlink" x="0px" y="0px"
	 viewBox="0 0 28 28" style="enable-background:new 0 0 28 28;" xml:space="preserve">
<style type="text/css">
	.st0{fill:#0F211F;}
</style>
<path class="st0" d="M11,6.8c1.2-0.4,2.2-0.6,3.1-0.7c0.9-0.1,1.6-0.1,2.1-0.1c0.6,0,1,0.1,1.5,0.1l0.1-0.9c0,0-1.4-0.4-3.2-0.3
	l-0.1-0.5c0.6-0.1,1-0.6,1-1.2c0-0.7-0.6-1.3-1.3-1.3c-0.7,0-1.3,0.6-1.3,1.3c0,0.6,0.4,1.1,1,1.2l0.2,0.5c-1.9,0.3-3.5,1-3.5,1
	L11,6.8z"/>
<path class="st0" d="M5.4,10.5c0-0.1,0.1-0.1,0.1-0.2l-0.4-0.3L4.6,9.6c0,0-0.9,0.9-1.7,2.4c0,0-0.1-0.1-0.1-0.1
	c-0.2-0.2-0.5-0.4-0.9-0.4c0,0,0,0,0,0c-0.2,0-0.4-0.1-0.5-0.2c0.1-0.1,0.2-0.3,0.2-0.5c0-0.4-0.4-0.8-0.8-0.8
	c-0.4,0-0.8,0.4-0.8,0.8c0,0.4,0.4,0.8,0.8,0.8c0.1,0,0.1,0,0.2,0c0.2,0.2,0.5,0.4,1,0.4c0.2,0,0.4,0.1,0.5,0.2
	c0.1,0.1,0.2,0.4,0.2,0.5c0,0,0,0,0,0C2.1,14.2,2.3,16,2.3,16L3.6,16c0-0.6,0.1-1.8,0.4-2.7C4.6,11.6,5.4,10.5,5.4,10.5L5.4,10.5z"
	/>
<path class="st0" d="M27.2,7c-0.4,0-0.8,0.4-0.8,0.8c0,0.1,0,0.1,0,0.2c-0.2,0.2-0.4,0.5-0.4,1c0,0.2-0.1,0.4-0.2,0.5
	c-0.1,0.1-0.2,0.1-0.4,0.2c-0.9-1.3-2.1-2.1-2.1-2.1l-0.9,1c0.7,0.6,1.4,1.4,2.1,2.4c0.5,0.7,1,1.5,1.4,2.4l1.2-0.6
	c0,0-0.6-1.4-1.3-2.6c0.1,0,0.3-0.1,0.4-0.2c0.2-0.2,0.4-0.5,0.4-0.9c0-0.2,0.1-0.4,0.2-0.5c0.1,0.1,0.3,0.2,0.5,0.2
	c0.4,0,0.8-0.4,0.8-0.8C28,7.3,27.6,7,27.2,7z"/>
<path class="st0" d="M24,17.9c-1.7,0.8-4.4,1.9-8.1,2.4c-1.4,0.2-2.8,0.3-4.1,0.3c-1.7,0-3.1-0.1-4.2-0.3c-1.3-0.2-2.3-0.4-2.9-0.5
	l0,0c0,0,0,0,0,0c0.1,0.5,0.3,0.9,0.5,1.4c0,0,0,0,0,0c0,0,0,0,0,0c0,0.1,0.1,0.1,0.1,0.2c0,0.1,0.1,0.1,0.1,0.2c0,0,0,0,0,0
	c0.4,0.7,0.8,1.3,1.3,1.8c1.7,1.9,3.5,2.2,3.5,2.2l0,0l0,0c0,0,1.6,0.5,3.9,0.5c2.3,0,4.6-0.5,6.8-1.4c1.6-0.8,3.1-2.1,3.9-3.2
	c0.6-0.9,1-1.8,1.3-2.7c0.1-0.5,0.2-1.3,0.2-2.2C25.8,17,25,17.4,24,17.9z"/>
<path class="st0" d="M15.8,19.3c3.5-0.5,6.1-1.5,7.7-2.3c1.3-0.6,2.2-1.2,2.5-1.5c-0.3-1.2-1.2-3.1-2.1-4.3c-2.4-3.4-5-4.3-6.3-4.5
	c-0.5-0.1-0.9-0.1-1.5-0.1c-0.5,0-1.2,0-2.1,0.1c-0.9,0.1-1.9,0.3-3,0.7C9.5,8,8.1,8.8,6.9,9.9l0,0c-0.2,0.2-0.5,0.5-0.9,1
	C5.9,11,5.2,12,4.6,13.6c-0.4,1.2-0.4,2.9-0.4,2.9v0c0,0.4,0,0.8,0.1,1.2c0,0,0,0,0,0c0,0,0,0.1,0,0.1c0,0,0,0,0,0
	c0.1,0.3,0.1,0.6,0.1,0.8c0,0,0,0,0,0h0C5.3,19,10.3,20.1,15.8,19.3z M20.6,10.1c1.1,0,2.1,0.9,2.1,2.1s-0.9,2.1-2.1,2.1
	s-2.1-0.9-2.1-2.1C18.5,11,19.4,10.1,20.6,10.1z M10.8,10c1.9,0,3.4,1.5,3.4,3.4c0,1.9-1.5,3.4-3.4,3.4c-1.9,0-3.4-1.5-3.4-3.4
	C7.4,11.5,8.9,10,10.8,10z M4.3,17.9c0,0.3,0.1,0.5,0.1,0.8C4.4,18.4,4.3,18.2,4.3,17.9z"/>
</svg>
