<?xml version="1.0" encoding="UTF-8"?><svg id="Calque_2" xmlns="http://www.w3.org/2000/svg" xmlns:xlink="http://www.w3.org/1999/xlink" viewBox="0 0 542.37 446.69"><defs><style>.cls-1{fill:none;}.cls-2{clip-path:url(#clippath);}.cls-3{fill:#f8ffff;}.cls-4{fill:#f6e3ca;}.cls-5{fill:#eeeff0;}.cls-6{fill:#ffe0af;}.cls-7{fill:#e6e5d8;}.cls-8{fill:#fc7a7a;}.cls-9{fill:#e94d4e;}.cls-10{fill:#e9cea9;}.cls-11{fill:#f02c00;}.cls-12{fill:#fff;}.cls-13{fill:#f2a77e;}.cls-14{fill:#ffce00;}.cls-15{fill:#fefbea;}.cls-16{fill:#e6844e;}.cls-17{fill:#e6d8c5;}.cls-18{fill:#e6ae27;}.cls-19{fill:#e84809;}.cls-20{fill:#efebd0;}.cls-21{fill:#ff8500;}.cls-22{fill:#99b125;}.cls-23{fill:#9a1d1b;}.cls-24{fill:#929700;}.cls-25{fill:#b4e253;}.cls-26{fill:#b5bc00;}.cls-27{fill:#9d5004;}.cls-28{fill:#306807;}.cls-29{fill:#8f4f2b;}.cls-30{fill:#8f4804;}.cls-31{fill:#aa007a;}.cls-32{fill:#db1600;}.cls-33{fill:#bf8f69;}.cls-34{fill:#cacbcc;}.cls-35{fill:#dbd8bc;}.cls-36{fill:#e2b897;}.cls-37{fill:#899e21;}.cls-38{fill:#701514;}.cls-39{fill:#95b745;}.cls-40{fill:#459615;}.cls-41{fill:#6c8aa5;}.cls-42{fill:#2f485d;}.cls-43{fill:#85005f;}.cls-44{fill:#608a1c;}.cls-45{fill:#838700;}.cls-46{fill:#516e15;}</style><clipPath id="clippath"><path class="cls-1" d="M29.09,266.83l146.41,43.49s16.65-45.32,11.56-52.45c-5.09-7.13-50.91-57.02-50.91-57.02,0,0-56-6.11-62.11,2.04-6.11,8.15-44.94,63.94-44.94,63.94Z"/></clipPath></defs><g id="BACKGROUND_2"><g><path class="cls-44" d="M63.22,195.73c-2.94,2.29-5.72,3.74-9.16,5.17-1.1,.46-2.06,1.08-2.98,1.78,1.5-1.83,2.78-3.78,3.48-6.3,.12-.44-.45-.63-.7-.29-1.99,2.78-3.7,5.73-6.19,8.11-1.62,1.54-3.08,3.05-4.28,4.92,1.51-6.15,4.1-12.04,5.24-18.28,.06-.33-.39-.45-.5-.14-2.55,7.15-5.11,14.39-6.51,21.68-.32-2.46-.9-4.88-1.79-7.31-.86-2.34-1.95-4.42-2.39-6.83-.02-4.44,3.72-8.05,5.07-12.34,.08-.26-.28-.39-.42-.18-1.66,2.58-3.74,5.44-4.79,8.45,.2-2.67,.84-5.36,1.27-7.95,.06-.36-.48-.67-.65-.27-1.98,4.64-2.98,9.92-1.52,14.85,.75,2.51,2.09,4.83,2.88,7.34,.94,2.98,1.28,6.19,1.56,9.32-.34,3.14-.42,6.29-.14,9.44-.37-.8-.76-1.59-1.17-2.36-3.29-6.62-6.6-14.3-7.53-21.58-1.01-7.94,2.83-14.17,5.31-21.33,.18-.52-.57-.96-.93-.54-2.58,2.97-4.34,6.65-5.36,10.55-.2-4.72-.43-9.39,.85-14.13,.1-.36-.41-.58-.6-.25-3.44,6.21-2.03,13.12-1.21,19.84-.18,1.98-.19,3.96-.03,5.87,.33,4.02,1.81,7.79,3.32,11.5-3.14-5.02-6-10.13-7.4-16.08-1.26-5.4-1.19-10.56-.58-15.67,1.87-6.22,8.25-10.05,10.66-16.2,.18-.46-.52-.71-.77-.33-2.33,3.6-5.34,6.65-8.05,9.94-.43,.52-.77,1.02-1.09,1.52,.75-4.33,1.68-8.68,2.34-13.17,.07-.5-.57-.69-.76-.21-4.11,10.67-5.5,21.92-3.4,32.65-.82-1.33-1.73-2.63-2.71-3.92-1.09-1.45-2.18-2.81-3.18-4.22-1.32-3.91-2.25-7.81-1.44-11.95,.79-4.01,3.56-7.4,5.58-10.84,.21-.36-.3-.63-.54-.32-2.53,3.34-4.68,6.89-5.81,10.94-.88,3.19-.27,6.63,.69,9.83-.52-.9-1-1.83-1.41-2.84-1.36-3.39-1.37-7.23-1.8-10.81-.06-.5-.74-.51-.79,0-.64,5.97,.52,11.46,3.82,16.5,2.8,4.28,6.34,8.18,8.85,12.67,1.16,3.81,2.79,7.53,4.93,11.1,1.32,2.2,2.63,4.33,3.9,6.45-2.55-2.76-5.42-5.24-8.74-7.52-1.12-1.76-2.96-2.96-4.67-4.29-4.33-3.34-6.4-7.14-7-12.58-.06-.52-.79-.53-.82,0-.21,3.78,.64,7.04,2.81,10.16,.94,1.35,2.13,2.43,3.41,3.45-1.19-.43-2.41-.79-3.64-1.09-2.14-2.3-4.97-3.78-6.9-6.4-2.67-3.61-2.39-8.26-2.43-12.49,0-.43-.64-.52-.75-.1-1,3.73-1.16,8.01,.58,11.57,1.42,2.91,3.56,4.94,6.05,6.67-.07-.01-.13-.03-.2-.04-2.42-.47-4.57-.53-6.83-1.6-4.07-1.91-3.89-6.98-4.35-10.69-.06-.49-.71-.49-.76,0-.43,3.7-.03,7.17,2.61,9.95,2.92,3.07,7.84,3.63,11.72,4.68,2.71,.73,5.37,1.83,7.93,3.2-.44-.03-.87-.04-1.29-.03-6.17,.16-12.95,4.01-17.36,8.06-.3,.28,.08,.75,.43,.55,6.29-3.57,15.12-9.07,22.17-6.18,4.32,2.93,8.24,6.62,11.44,10.66,1.95,3.62,3.7,7.35,5.02,11.51,1.33,4.21,2.2,8.55,2.81,12.92,.15,1.08,.35,2.33,.53,3.66,.53-.02,1.06-.06,1.58-.1-.33-2.94-.89-5.8-1.32-8.25-.18-1.02-.39-2.03-.62-3.05,.7-3.43-1.04-7.67-1.47-11.02-.71-5.52,1.94-10.35,4.18-15.13,.22-.46-.36-1.01-.75-.58-2.74,3.07-4.52,7.04-4.97,11.16-.14-.97-.27-1.93-.36-2.91,.75-5.83,.39-11.68,4.55-16.37,.09-.11,.19-.21,.29-.32,1.22-.53,2.26-1.18,3.34-2.02,2.12-1.66,4.23-2.64,6.72-3.65,2.74-1.11,5.36-2.33,6.5-5.18,.15-.38-.36-.55-.61-.36Z"/><path class="cls-44" d="M406.38,98.77c-.67-2.27-.87-4.26-.91-6.63-.01-.75-.16-1.47-.35-2.18,.73,1.32,1.59,2.53,2.91,3.54,.23,.18,.48-.12,.34-.34-1.17-1.83-2.52-3.53-3.34-5.56-.53-1.32-1.08-2.54-1.91-3.69,3.28,2.34,6.15,5.25,9.58,7.39,.18,.11,.36-.12,.2-.26-3.63-3.19-7.31-6.4-11.29-8.94,1.53,.39,3.1,.61,4.74,.66,1.58,.04,3.07-.12,4.6,.19,2.63,1.03,3.88,4.09,6.11,5.89,.13,.11,.3-.07,.2-.21-1.14-1.59-2.34-3.49-3.87-4.82,1.53,.75,2.97,1.76,4.4,2.62,.2,.12,.51-.13,.31-.32-2.28-2.26-5.16-4.09-8.42-4.38-1.66-.15-3.35,.1-5.02-.02-1.98-.14-3.96-.69-5.88-1.26-1.77-.94-3.62-1.73-5.55-2.3,.56-.03,1.12-.07,1.67-.14,4.69-.39,10-.54,14.52,.61,4.93,1.27,7.71,5,11.36,8.15,.27,.23,.7-.11,.54-.43-1.15-2.22-2.91-4.12-4.98-5.65,2.84,.99,5.65,1.95,8.15,3.82,.19,.14,.44-.11,.29-.29-2.86-3.49-7.28-4.28-11.44-5.37-1.13-.57-2.3-1.04-3.46-1.4-2.45-.75-5.03-.76-7.58-.74,3.71-.68,7.4-1.17,11.24-.6,3.49,.52,6.52,1.77,9.4,3.34,3.24,2.57,4.01,7.23,7.08,10.1,.23,.22,.54-.14,.37-.38-1.58-2.22-2.67-4.71-3.98-7.09-.21-.38-.42-.7-.65-1,2.39,1.46,4.74,3.03,7.24,4.47,.28,.16,.54-.18,.3-.4-5.34-4.94-11.67-8.4-18.5-9.68,.98-.17,1.96-.41,2.95-.68,1.11-.31,2.17-.63,3.25-.89,2.62,.14,5.14,.5,7.4,1.96,2.19,1.41,3.54,3.84,5.1,5.84,.16,.21,.44-.03,.31-.24-1.38-2.28-2.97-4.38-5.11-6-1.68-1.27-3.85-1.72-5.97-1.9,.65-.1,1.32-.16,2.01-.16,2.33,0,4.6,.89,6.82,1.47,.31,.08,.47-.31,.18-.47-3.38-1.78-6.89-2.38-10.65-1.61-3.19,.65-6.33,1.83-9.57,2.25-2.52-.21-5.11-.12-7.72,.31-1.61,.26-3.17,.54-4.73,.79,2.23-.86,4.37-1.98,6.49-3.4,1.3-.25,2.45-1.05,3.63-1.76,2.99-1.77,5.72-2.11,9.08-1.18,.32,.09,.5-.34,.19-.48-2.19-1.01-4.31-1.27-6.67-.72-1.02,.24-1.94,.69-2.84,1.2,.53-.6,1.03-1.24,1.5-1.9,1.86-.72,3.4-2.05,5.4-2.58,2.76-.73,5.45,.53,7.96,1.5,.25,.1,.46-.25,.23-.42-1.97-1.47-4.46-2.56-6.97-2.37-2.05,.16-3.76,.94-5.36,2.01,.02-.04,.05-.07,.07-.11,.85-1.32,1.39-2.57,2.55-3.66,2.08-1.96,5.04-.66,7.34-.06,.3,.08,.45-.3,.18-.45-2.09-1.12-4.23-1.7-6.5-.79-2.5,1.01-3.98,3.78-5.51,5.83-1.07,1.43-2.34,2.74-3.75,3.93,.12-.25,.23-.5,.32-.75,1.36-3.69,.67-8.59-.69-12.16-.09-.24-.46-.13-.43,.12,.63,4.56,1.81,11.07-1.55,14.56-2.75,1.87-5.85,3.31-8.99,4.26-2.6,.31-5.22,.46-7.98,.26-2.8-.2-5.57-.71-8.3-1.37-.68-.17-1.46-.34-2.29-.55-.11,.32-.21,.64-.31,.96,1.81,.5,3.64,.84,5.19,1.16,.64,.13,1.3,.25,1.95,.35,1.86,1.22,4.78,1.18,6.86,1.72,3.43,.88,5.66,3.58,7.96,6.02,.22,.24,.68,.02,.52-.31-1.17-2.34-3.1-4.32-5.43-5.56,.6,.14,1.21,.3,1.8,.47,3.27,1.81,6.81,2.97,8.61,6.53,.04,.08,.08,.16,.12,.24,.03,.85,.17,1.62,.41,2.45,.48,1.64,.57,3.12,.58,4.83,.01,1.88,.12,3.72,1.53,5.06,.19,.18,.41-.09,.36-.28Z"/><g><path class="cls-29" d="M29.09,266.83s46.83-13.44,70.13-12.95c23.31,.49,112,37.68,112,37.68l-51.04,14.34L29.09,266.83Z"/><path class="cls-36" d="M29.09,266.83s-16.51,138.35-7.07,146.25c9.44,7.91,65,40.11,95.39,32.44,30.38-7.67,58.09-135.2,58.09-135.2,0,0-151.09-44.69-146.41-43.49Z"/><path class="cls-33" d="M160.18,305.9l51.04-14.34s-42.64,119.7-57.17,139.41c-14.53,19.71-36.64,14.55-36.64,14.55l42.77-139.62Z"/></g><g><path class="cls-21" d="M251.13,6.93c-17.05,.38-12.77,23.27-7.44,32-7.03-11.52-25.91-1.36-22.83,10.92,3.28,13.07,15.62,17.74,25.76,10.85-3.83,11.15-6.09,29.04,10.1,28.76,15-.26,16.63-14.76,14.03-26.02,5.34,2.39,11.57,4.2,16.47,.54,6.82-5.1,9.32-12.18,8.23-20.61-1.94-15-16.73-12.96-26.94-9.14,.37-6.73,2.62-11.54-.76-18.66-3.01-6.34-10.25-8.79-16.62-8.65Zm12.92,30.64c.08,1.79,1.83,2.56,3.34,1.88,2.9-1.28,4.8-2.73,8-3.81,22.51-7.63,19.06,33.56-7.41,21-1.72-.81-4.48,.63-3.59,2.82,3.2,7.81,6.09,14.22-.63,22.08-13.63-.58-18.51-5.64-14.64-15.18,1.08-2.82,2.13-5.65,3.14-8.5,.57-1.56-1.06-2.72-2.44-2.57-.46-.33-1.08-.43-1.69-.05-25.03,15.79-31.99-24.31-3.81-13.07,1.26,.5,1.92,0,3.03-.7,.95-.59,1.19-1.71,.7-2.68-.89-1.85-1.89-3.66-2.98-5.4-6.91-12.55-.59-17.76,18.95-15.64,4.45,5.77-.27,13.59,.02,19.82Z"/><path class="cls-19" d="M251.8,11.46c-15.24,.34-11.41,20.81-6.65,28.6-6.29-10.3-23.16-1.22-20.41,9.76,2.93,11.68,13.96,15.85,23.03,9.7-3.43,9.96-5.44,25.96,9.03,25.71,13.41-.23,14.87-13.2,12.54-23.26,4.78,2.13,10.35,3.75,14.72,.48,6.1-4.56,8.33-10.89,7.36-18.42-1.74-13.41-14.96-11.58-24.08-8.17,.33-6.02,2.34-10.31-.68-16.68-2.7-5.67-9.16-7.86-14.86-7.74Zm11.55,27.39c.07,1.6,1.64,2.29,2.99,1.68,2.59-1.15,4.29-2.44,7.15-3.41,20.12-6.82,17.04,30-6.63,18.78-1.54-.73-4,.57-3.2,2.52,2.86,6.98,5.45,12.71-.56,19.73-12.18-.52-16.54-5.04-13.08-13.57,.97-2.52,1.91-5.05,2.81-7.6,.51-1.4-.95-2.43-2.19-2.3-.41-.3-.97-.39-1.51-.04-22.38,14.11-28.6-21.73-3.41-11.68,1.13,.45,1.72,0,2.71-.63,.85-.53,1.07-1.53,.63-2.4-.8-1.66-1.69-3.27-2.67-4.83-6.18-11.21-.53-15.87,16.94-13.98,3.98,5.16-.24,12.15,.02,17.72Z"/></g><g><path class="cls-21" d="M11.11,142.55c-3.13,13.51,15.77,14.74,23.72,12.3-10.49,3.23-6.28,20.15,4.02,20.19,10.96,.05,17.12-8.75,13.73-18.12,8.02,5.26,21.66,10.63,24.7-2.18,2.81-11.87-8.29-16.07-17.68-16.29,2.96-3.73,5.64-8.28,3.74-12.87-2.65-6.4-7.73-9.79-14.59-10.63-12.22-1.49-13.58,10.58-12.61,19.39-5.23-1.64-8.56-4.38-14.86-3.15-5.6,1.1-8.99,6.31-10.16,11.36Zm26.75-4.02c1.43,.29,2.38-.93,2.15-2.26-.43-2.54-1.18-4.33-1.39-7.07-1.49-19.28,30.28-8.28,15.06,10.06-.99,1.19-.4,3.66,1.5,3.39,6.79-.95,12.43-1.95,17.27,4.93-3.2,10.62-8.16,13.45-14.9,8.49-2.01-1.42-4.03-2.82-6.07-4.19-1.12-.76-2.36,.29-2.52,1.41-.36,.3-.56,.77-.38,1.32,7.41,22.9-25.59,20.33-11.07,.38,.65-.89,.38-1.52,.06-2.53-.27-.87-1.11-1.28-1.97-1.09-1.64,.33-3.26,.75-4.85,1.26-11.28,2.93-14.11-3.1-8.51-18.08,5.45-2.35,10.66,2.94,15.63,3.97Z"/><path class="cls-19" d="M14.82,142.93c-2.8,12.08,14.1,13.18,21.21,10.99-9.38,2.89-5.62,18.01,3.59,18.05,9.79,.04,15.3-7.82,12.27-16.2,7.16,4.7,19.37,9.51,22.08-1.95,2.51-10.61-7.41-14.37-15.81-14.56,2.64-3.34,5.04-7.4,3.34-11.5-2.37-5.72-6.91-8.75-13.04-9.5-10.92-1.33-12.14,9.46-11.28,17.34-4.68-1.47-7.66-3.92-13.28-2.82-5.01,.99-8.04,5.64-9.08,10.15Zm23.91-3.6c1.28,.27,2.13-.83,1.93-2.02-.38-2.27-1.06-3.87-1.25-6.32-1.33-17.23,27.07-7.4,13.46,9-.88,1.06-.36,3.27,1.34,3.03,6.07-.85,11.11-1.74,15.44,4.41-2.86,9.5-7.3,12.02-13.32,7.59-1.79-1.27-3.6-2.52-5.42-3.74-1-.68-2.11,.26-2.25,1.26-.32,.26-.5,.68-.34,1.18,6.62,20.47-22.88,18.17-9.89,.34,.58-.8,.34-1.36,.05-2.26-.24-.78-.99-1.15-1.76-.98-1.47,.3-2.91,.67-4.34,1.13-10.08,2.61-12.61-2.77-7.61-16.16,4.87-2.1,9.53,2.63,13.97,3.55Z"/></g><g><path class="cls-21" d="M138.29,177.89c-14.53,8.92,.71,26.54,9.71,31.38-11.88-6.4-23.06,11.89-14.21,20.95,9.42,9.63,22.43,7.43,27.72-3.62,2.31,11.56,9.39,28.15,23.23,19.74,12.82-7.79,6.91-21.13-1.01-29.54,5.82-.64,12.11-2.21,14.49-7.84,3.32-7.85,1.9-15.22-3.29-21.95-9.24-11.98-20.98-2.75-27.87,5.7-3.08-6-3.56-11.28-10.07-15.73-5.8-3.95-13.29-2.42-18.71,.91Zm26.62,19.94c.98,1.51,2.87,1.28,3.83-.06,1.85-2.57,2.77-4.77,4.99-7.33,15.59-17.94,33.39,19.37,4.19,21.88-1.89,.16-3.55,2.81-1.68,4.24,6.7,5.12,12.43,9.2,10.59,19.38-12.06,6.37-18.83,4.47-20.29-5.72-.49-2.98-1.01-5.96-1.57-8.93-.3-1.63-2.29-1.81-3.41-.99-.56-.05-1.15,.17-1.48,.81-13.65,26.26-39.88-4.86-9.88-9.36,1.34-.2,1.65-.98,2.26-2.14,.52-.99,.17-2.08-.75-2.67-1.71-1.15-3.47-2.21-5.3-3.16-12.3-7.35-9.47-15.03,8.48-23.06,6.76,2.74,6.62,11.87,10.02,17.11Z"/><path class="cls-19" d="M141.16,181.47c-12.99,7.98,.64,23.72,8.68,28.05-10.63-5.72-20.62,10.63-12.7,18.72,8.42,8.61,20.05,6.64,24.78-3.24,2.07,10.33,8.4,25.16,20.77,17.65,11.46-6.96,6.18-18.89-.9-26.41,5.2-.57,10.83-1.98,12.95-7,2.97-7.02,1.7-13.61-2.94-19.62-8.27-10.71-18.76-2.46-24.91,5.09-2.75-5.36-3.18-10.09-9-14.06-5.19-3.53-11.88-2.17-16.73,.81Zm23.79,17.83c.87,1.35,2.57,1.15,3.43-.06,1.66-2.3,2.47-4.27,4.46-6.55,13.94-16.03,29.84,17.31,3.75,19.55-1.69,.15-3.17,2.51-1.5,3.79,5.99,4.58,11.11,8.23,9.47,17.32-10.78,5.7-16.83,3.99-18.14-5.12-.43-2.67-.9-5.33-1.4-7.98-.27-1.46-2.04-1.62-3.05-.88-.5-.05-1.03,.15-1.32,.72-12.21,23.47-35.65-4.34-8.84-8.37,1.2-.18,1.48-.88,2.02-1.91,.47-.88,.15-1.86-.66-2.38-1.53-1.03-3.11-1.97-4.74-2.82-10.99-6.57-8.46-13.44,7.58-20.62,6.04,2.45,5.92,10.61,8.95,15.29Z"/></g><g><path class="cls-21" d="M416.26,23.64c-14.53,8.92,.71,26.54,9.71,31.38-11.88-6.4-23.06,11.89-14.21,20.95,9.42,9.63,22.43,7.43,27.72-3.62,2.31,11.56,9.39,28.15,23.23,19.74,12.82-7.79,6.91-21.13-1.01-29.54,5.82-.63,12.11-2.21,14.49-7.84,3.32-7.85,1.9-15.22-3.29-21.95-9.24-11.98-20.98-2.75-27.87,5.7-3.08-6-3.56-11.28-10.07-15.73-5.8-3.95-13.29-2.42-18.71,.91Zm26.62,19.94c.98,1.51,2.87,1.28,3.83-.06,1.85-2.57,2.77-4.77,4.99-7.32,15.59-17.94,33.38,19.37,4.19,21.88-1.89,.16-3.55,2.81-1.68,4.24,6.7,5.12,12.43,9.2,10.59,19.38-12.06,6.37-18.83,4.47-20.3-5.72-.49-2.98-1.01-5.96-1.57-8.93-.3-1.63-2.29-1.81-3.41-.99-.57-.06-1.15,.17-1.48,.81-13.65,26.26-39.89-4.86-9.88-9.36,1.34-.2,1.66-.98,2.26-2.14,.53-.99,.17-2.08-.75-2.67-1.71-1.15-3.47-2.21-5.3-3.16-12.3-7.35-9.47-15.03,8.48-23.06,6.76,2.74,6.62,11.87,10.02,17.11Z"/><path class="cls-19" d="M419.13,27.21c-12.99,7.98,.64,23.72,8.68,28.05-10.63-5.72-20.62,10.63-12.7,18.72,8.42,8.61,20.06,6.65,24.78-3.24,2.07,10.33,8.4,25.16,20.77,17.65,11.46-6.96,6.18-18.89-.9-26.41,5.2-.57,10.83-1.97,12.95-7,2.97-7.02,1.7-13.61-2.94-19.62-8.27-10.71-18.76-2.46-24.91,5.09-2.75-5.36-3.18-10.09-9-14.06-5.19-3.53-11.88-2.17-16.73,.81Zm23.79,17.83c.87,1.35,2.57,1.15,3.43-.06,1.66-2.29,2.47-4.27,4.46-6.55,13.94-16.03,29.84,17.31,3.75,19.55-1.69,.15-3.17,2.51-1.5,3.79,5.99,4.58,11.11,8.23,9.47,17.32-10.78,5.7-16.83,3.99-18.14-5.12-.43-2.67-.9-5.33-1.41-7.98-.27-1.46-2.05-1.62-3.05-.88-.5-.05-1.03,.15-1.32,.72-12.21,23.47-35.66-4.34-8.84-8.37,1.2-.18,1.48-.87,2.02-1.91,.47-.89,.15-1.86-.66-2.39-1.53-1.03-3.11-1.97-4.74-2.82-10.99-6.57-8.46-13.44,7.58-20.62,6.04,2.45,5.92,10.61,8.95,15.29Z"/></g><g><g><path class="cls-45" d="M241.39,145.06c.44-1.02-.19-1.99-.84-2.77-1.19-1.42-3.03-2.2-4.52-3.27-.36-.26-1.14-.96-.17-.89,.28,.02,.56,.09,.84,.15,1.09,.24,2.12,.82,3.1,1.32,1.78,.91,5.74,2.55,6.75-.36,.85-2.45-3.72-3.98-5.37-4.11-.71-.05-1.42-.06-2.12-.1-.92-.06-2.34,.02-.28-.48,1.36-.33,3.41-.15,4.57-1.02,.72-.55-.25-1.48-.64-1.84-1.16-1.06-3.17-.99-4.62-.9-.79,.05-1.56,.2-2.31,.44-.16,.05-2.32,.72-2.3,.7,.62-1.01,2.17-1.29,2.9-2.29,.48-.66-.07-1.26-.66-1.51-1.39-.59-3.12,.39-4.22,1.14-1.82,1.24-3.42,2.82-5.06,4.28-1.95,1.74-4.22,3.08-6.23,4.75-.07,.06-.07,.12-.04,.18-.13,.04-.26,.06-.39,.11-.19,.08-.08,.36,.12,.3,2.46-.74,4.86,.24,6.88,1.62,1.6,1.09,2.64,2.73,4.17,3.87,.57,.43,2.03,1.04,2.61,.32,.54-.68,.35-1.98-.33-2.54-.27-.22-.54-.42-.82-.63-.11-.09-.21-.18-.32-.27,.11-.93,.55-1.01,1.33-.23,.78,.48,1.34,1.26,1.97,1.89,1.12,1.12,2.05,2.49,3.64,2.96,.72,.21,2.01,0,2.35-.79Z"/><path class="cls-26" d="M230.37,136.37c3.54,1.11,5.52,5.01,8.68,6.82,.1,.06,.19-.1,.1-.17-1.78-1.31-3.25-2.96-4.82-4.49-.98-.95-1.92-1.76-3.09-2.21,.27-.01,.54-.04,.82-.04,3.76-.04,7.34,1.14,11.03,1.62,.13,.02,.2-.18,.06-.22-3.45-1.09-7-1.78-10.62-1.9,.38-.2,.74-.44,1.07-.63,2.09-1.21,4.22-2.1,6.62-2.46,.14-.02,.11-.21-.02-.21-1.86,.02-3.56,.68-5.21,1.5-1.05,.52-2.13,1.39-3.27,1.82-1.83,.03-3.6,.31-5.35,.73,1.01-.71,1.78-1.91,2.53-2.8,1.29-1.53,2.64-2.91,4.33-4.01,.1-.07,0-.24-.11-.19-3.38,1.46-4.85,5.18-7.74,7.25-1.13,.3-2.26,.64-3.39,1-.12,.04-.07,.23,.05,.21,.99-.12,1.97-.42,2.94-.71,2.35,.45,3.52,3.01,5.39,4.29,.08,.06,.17-.06,.1-.12-1.51-1.27-2.81-3.82-4.85-4.35,.39-.11,.78-.21,1.17-.28,1.19-.23,2.38-.36,3.58-.44Z"/></g><g><path class="cls-45" d="M224.08,133.86c3.63-6.3,9.38-9.77,15.14-13.87,3.33-2.37,7.96-5.32,9.82-9.19,1.27-2.65,1.11-4.33-1.16-6.24-2.27-1.91-5.22-.37-7.75,.75,2.71-3.69,7.93-6.9,6.84-11.81-.1-.47-.35-.73-.81-.85-3.49-.93-6.38,1.49-8.54,4.05-2.19,2.6-.07-1.73,.28-2.51,.68-1.55,1.23-3.09,1.46-4.77,.28-1.93-2.19-1.25-3.04-.95-4.69,1.68-7.03,6.58-8.31,10.99-.49,1.68-1.19,4.06-1.05,5.83,.27,3.44-1.74-2.18-1.77-3.66-.05-2.16-1.46-4.54-4.08-3.5-3.07,1.21-2.83,5.5-2.04,7.98,2.97,9.34,6.33,16.85,3.78,26.79-.02,.08,0,.15,.04,.21-.03,.07-.07,.12-.1,.19-.4,.83,.85,1.32,1.29,.56Z"/><path class="cls-24" d="M222.66,136.29c2.49-2.66,3.61-6.51,4.98-9.8,.19-.46,.39-.92,.58-1.37,1.45-1.95,2.74-4.04,4.56-5.66,1.96-1.75,4.47-2.79,6.47-4.5,.12-.1-.01-.26-.14-.18-2.45,1.38-5,2.61-7.1,4.52-1.01,.92-1.91,2.08-2.73,3.31,1.09-2.6,2.16-5.2,3.12-7.86,.55-.74,1.04-1.51,1.68-2.2,.87-.94,1.95-1.67,3.04-2.34,2.1-1.29,4.44-2.08,6.63-3.16,.11-.05,.05-.2-.07-.17-3.18,.96-8.07,2.7-10.52,5.7,1.12-3.18,2.25-6.31,4.11-9.18,2.1-3.26,4.95-6.08,7.91-8.55,.1-.08-.02-.23-.12-.15-2.87,2.2-5.45,4.59-7.62,7.5-2.06,2.75-3.32,5.8-4.47,8.98,.09-1.94-.46-3.88-.87-5.83-.79-3.74,.39-7.28,1.62-10.77,.05-.14-.13-.21-.2-.09-1.55,2.64-2.22,5.76-2.16,8.8,.03,1.61,.51,3.14,.84,4.71,.35,1.62,.39,3.24,.14,4.86-1.41,3.95-2.93,7.82-4.63,11.66-.09,.21-.18,.42-.27,.63,.22-2.87-.99-5.89-1.65-8.62-.48-2-1.26-3.93-1.93-5.88-.78-2.28-.81-4.61-1.13-6.96-.02-.12-.21-.14-.23,0-.39,4.02,1.04,7.5,2.27,11.24,.63,1.9,1.06,3.89,1.57,5.83,.3,1.14,.53,2.28,.67,3.46,.11,.94-.18,1.87-.38,2.8-1.32,3.1-2.61,6.19-4.2,9.18-.07,.14,.13,.23,.22,.13Z"/></g><path class="cls-26" d="M218.96,163.68c-3.61-9.08-2.08-18,3.19-26.13,3.7-5.71,9.75-9.34,15.75-12.54,.19,.12,.41,.19,.67,.12,.97-.24,1.99-.28,3.04-.2,3.45,1.47,5.8,6.39,8.28,8.42,2.43,1.99,5.42,2.89,8.52,2.94,1.88,.03,4.46-.2,4.89-2.4,.35-1.75-1.04-3.03-2.71-4.03,1.46,.06,2.92,.05,4.4-.07,4.94-.41,10.18-3.71,14.08-6.55,2.07-1.51,4.16-4.03,1.54-5.95-3.56-2.6-9.04,.35-13.58,.57,5.03-.85,10.25-2.39,13.48-6.19,2.07-2.43,.97-5.95-2.08-6.73-6.42-1.65-12.7,.49-18.14,3.94-2.71,1.72,1.01-.94,1.68-1.49,1.41-1.16,2.93-2.19,4.43-3.22,1.98-1.35,4.84-1.99,5.91-4.28,.1-.22,.08-.54-.09-.72-3.59-4.07-11.81-.82-15.31,1.68-2.46,1.75-8.58,13.07-5.21,3.03,.69-2.06,3.08-4.41,2.83-6.67-.39-3.64-5.15,1.43-5.65,2.01-1.66,1.94-2.9,4.24-3.6,6.69-1.88,6.57-2.84,12.19-7.71,17.27-7.33,3.08-14.42,8.1-18.23,14.9-4.32,7.7-6.91,18.35-.99,25.95,.24,.32,.76,.03,.61-.34Z"/><path class="cls-45" d="M259.55,131.53c-1.76-.55-3.55-.91-5.21-1.75-2.01-1.02-3.69-3.09-5.3-4.63-1.56-1.49-3.53-3.12-5.69-2.85,1.42-.74,2.89-1.39,4.38-1.96,2.38-.4,4.61-.46,7.07-.1,2.56,.38,5.1,.97,7.7,1.02,2.53,.04,5.07-.03,7.6-.04,2.65,0,5.49-.12,7.94-1.24,.11-.05,.08-.25-.05-.22-5.39,1.21-11.1,1.3-16.61,.99-2.58-.14-5.12-.79-7.68-1.13-1.42-.19-2.75-.15-4.08,.03,3.07-1.07,6.21-1.96,9.3-3.1,3.24-1.19,6.43-2.49,9.67-3.69,3.38-1.25,6.86-2.38,10.08-4,.18-.09,.08-.34-.11-.29-6.77,1.98-13.33,4.77-19.93,7.23-2.64,.99-5.32,1.83-8,2.7,.99-.57,1.88-1.27,2.7-2.23,1.56-1.84,2.69-4.11,3.92-6.17,1.38-2.31,2.99-4.49,4.92-6.38,2.12-2.07,4.57-3.19,7.12-4.59,.17-.09,.08-.33-.11-.28-4.48,1.25-8.16,4.83-10.8,8.49-1.44,2-2.6,4.19-3.87,6.29-1.62,2.68-3.61,4.39-6.44,5.71-1.56,.54-3.15,1.17-4.62,2,.16-.26,.3-.53,.43-.82,.82-1.75,1.57-3.6,1.94-5.5,.39-2.02,.51-4.04,1.02-6.04,.51-1.99,1.35-3.87,1.68-5.91,.02-.13-.18-.19-.23-.07-1.22,2.94-2.31,5.98-2.71,9.15-.24,1.88-.47,3.64-1.12,5.44-.52,1.44-1,3.16-2.02,4.36-.7,.46-1.36,.97-1.95,1.55-.18,.18,.02,.46,.24,.32,.43-.28,.86-.54,1.3-.79,1.83-.34,3.2-.25,4.78,.84,1.44,.99,2.69,2.38,3.94,3.58,2.57,2.46,5.12,3.96,8.72,4.32,.12,.01,.19-.18,.06-.22Z"/></g><g><g><path class="cls-45" d="M488,83.2c1.11,.06,1.8-.87,2.31-1.75,.92-1.62,1.01-3.61,1.49-5.37,.12-.43,.51-1.4,.78-.47,.08,.27,.12,.56,.16,.84,.16,1.11-.03,2.27-.16,3.36-.23,1.98-.4,6.27,2.69,6.21,2.59-.05,2.44-4.87,1.99-6.47-.2-.68-.44-1.35-.64-2.03-.26-.88-.83-2.18,.35-.43,.79,1.16,1.32,3.15,2.55,3.93,.76,.49,1.3-.75,1.5-1.24,.6-1.45-.17-3.31-.76-4.64-.32-.73-.73-1.39-1.21-2.01-.1-.13-1.48-1.92-1.46-1.92,1.16,.23,1.96,1.59,3.16,1.92,.79,.22,1.16-.5,1.19-1.15,.07-1.51-1.45-2.79-2.54-3.56-1.8-1.27-3.83-2.23-5.77-3.25-2.31-1.23-4.35-2.89-6.61-4.19-.07-.04-.14-.02-.18,.02-.08-.11-.15-.22-.24-.33-.14-.16-.36,.05-.24,.21,1.55,2.05,1.46,4.64,.88,7.01-.46,1.88-1.64,3.42-2.18,5.26-.2,.69-.27,2.27,.61,2.56,.82,.27,1.98-.36,2.27-1.2,.11-.33,.21-.66,.31-.99,.04-.13,.09-.26,.14-.4,.91-.22,1.13,.17,.68,1.17-.18,.89-.71,1.69-1.09,2.51-.66,1.44-1.62,2.78-1.52,4.44,.05,.75,.71,1.88,1.56,1.93Z"/><path class="cls-26" d="M492.32,69.85c.19,3.7-2.78,6.92-3.38,10.51-.02,.11,.16,.14,.19,.03,.61-2.12,1.65-4.07,2.54-6.08,.55-1.24,.99-2.41,1-3.67,.1,.25,.23,.5,.33,.76,1.34,3.52,1.48,7.28,2.31,10.91,.03,.12,.24,.12,.23-.02-.18-3.61-.76-7.18-1.91-10.62,.32,.29,.67,.54,.96,.79,1.86,1.54,3.43,3.23,4.61,5.35,.07,.12,.24,.03,.19-.09-.66-1.74-1.87-3.1-3.21-4.37-.86-.81-2.04-1.51-2.84-2.44-.66-1.7-1.54-3.27-2.54-4.76,1.02,.7,2.42,1.01,3.5,1.4,1.89,.68,3.64,1.47,5.26,2.66,.1,.07,.23-.08,.14-.17-2.54-2.66-6.54-2.75-9.49-4.74-.67-.96-1.39-1.9-2.11-2.83-.08-.1-.24,.01-.19,.12,.46,.89,1.08,1.7,1.69,2.51,.39,2.36-1.6,4.35-2.15,6.55-.02,.1,.11,.14,.15,.05,.67-1.86,2.61-3.96,2.4-6.06,.24,.33,.46,.66,.67,1,.63,1.03,1.16,2.11,1.65,3.21Z"/></g><g><path class="cls-45" d="M492.49,63.09c7.17,1.22,12.42,5.41,18.26,9.39,3.37,2.3,7.75,5.62,12.03,6.02,2.93,.27,4.45-.46,5.45-3.25,1-2.79-1.46-5.03-3.4-7,4.4,1.26,9.22,5.04,13.45,2.32,.4-.26,.56-.58,.51-1.06-.34-3.6-3.61-5.46-6.77-6.6-3.2-1.15,1.59-.66,2.46-.61,1.69,.1,3.32,.08,4.98-.28,1.91-.41,.42-2.49-.17-3.18-3.21-3.82-8.61-4.31-13.19-3.98-1.75,.12-4.22,.29-5.83,1.04-3.13,1.45,1.44-2.38,2.81-2.93,2.01-.8,3.75-2.95,1.87-5.05-2.21-2.45-6.14-.74-8.19,.86-7.73,6.03-13.6,11.79-23.8,12.85-.08,0-.14,.06-.18,.11-.07,0-.14-.03-.21-.03-.92-.09-.94,1.25-.07,1.4Z"/><path class="cls-24" d="M489.72,62.6c3.36,1.41,7.36,1.12,10.92,1.26,.5,.02,.99,.04,1.49,.07,2.33,.68,4.74,1.16,6.89,2.31,2.33,1.23,4.16,3.22,6.46,4.51,.13,.07,.23-.1,.12-.2-2.14-1.82-4.19-3.79-6.7-5.09-1.22-.63-2.62-1.07-4.05-1.41,2.81,.12,5.62,.22,8.45,.19,.88,.26,1.78,.46,2.64,.82,1.18,.49,2.25,1.25,3.25,2.04,1.94,1.52,3.49,3.44,5.27,5.12,.08,.08,.21-.03,.14-.12-2.01-2.65-5.33-6.63-9-7.89,3.37-.06,6.71-.08,10.04,.66,3.78,.84,7.42,2.53,10.77,4.45,.11,.06,.21-.09,.1-.16-3.06-1.92-6.2-3.52-9.68-4.54-3.3-.97-6.59-1.1-9.97-1.08,1.85-.58,3.48-1.77,5.17-2.84,3.24-2.04,6.97-2.16,10.66-2.22,.14,0,.15-.19,.01-.22-3.01-.54-6.17-.08-9,1.03-1.5,.59-2.77,1.57-4.12,2.43-1.39,.89-2.91,1.49-4.51,1.82-4.2,.05-8.35-.03-12.54-.29-.23-.02-.46-.02-.68-.04,2.77-.79,5.18-2.97,7.51-4.54,1.71-1.15,3.25-2.55,4.84-3.85,1.86-1.53,4.04-2.36,6.13-3.48,.11-.06,.05-.25-.08-.22-3.9,1.03-6.67,3.58-9.75,6.03-1.57,1.25-3.28,2.35-4.92,3.5-.97,.68-1.96,1.3-3.01,1.83-.84,.43-1.82,.48-2.76,.62-3.36-.17-6.71-.29-10.07-.75-.16-.02-.18,.2-.05,.25Z"/></g><path class="cls-26" d="M462.75,68.63c7.26-6.54,16.16-8.2,25.61-6.09,6.64,1.48,12.14,5.9,17.23,10.41-.04,.22-.03,.45,.12,.67,.57,.82,.96,1.77,1.24,2.78-.18,3.75-3.97,7.66-5.02,10.69-1.02,2.97-.83,6.09,.2,9.02,.62,1.78,1.74,4.11,3.95,3.75,1.76-.28,2.48-2.02,2.84-3.94,.45,1.39,.96,2.75,1.59,4.1,2.1,4.49,7.01,8.26,11.03,10.92,2.14,1.42,5.23,2.51,6.12-.63,1.2-4.24-3.47-8.35-5.25-12.54,2.55,4.42,5.8,8.78,10.49,10.49,3,1.1,5.91-1.16,5.59-4.29-.68-6.6-4.87-11.74-9.99-15.65-2.55-1.95,1.23,.62,1.99,1.06,1.58,.92,3.07,1.99,4.56,3.04,1.95,1.39,3.55,3.85,6.07,4.06,.24,.02,.53-.11,.65-.33,2.57-4.78-3.34-11.35-6.89-13.77-2.49-1.7-15.23-3.51-4.65-3.83,2.17-.07,5.2,1.35,7.23,.34,3.28-1.63-3.13-4.33-3.85-4.6-2.39-.89-4.98-1.25-7.53-1.06-6.82,.52-12.42,1.57-18.87-1.23-5.43-5.8-12.61-10.71-20.3-11.92-8.72-1.37-19.61-.1-24.68,8.08-.21,.34,.24,.73,.54,.45Z"/><path class="cls-45" d="M506.99,95.54c-.1-1.84-.39-3.65-.17-5.5,.26-2.24,1.62-4.53,2.5-6.58,.86-1.98,1.71-4.39,.7-6.32,1.19,1.08,2.31,2.23,3.36,3.43,1.2,2.1,2.03,4.16,2.55,6.6,.54,2.53,.86,5.12,1.72,7.57,.84,2.39,1.79,4.74,2.67,7.11,.92,2.48,2.02,5.11,3.92,7.01,.09,.09,.26-.02,.19-.13-3-4.64-5.07-9.96-6.7-15.23-.76-2.46-1.04-5.08-1.6-7.59-.32-1.4-.81-2.63-1.44-3.81,2.07,2.51,4,5.15,6.13,7.64,2.24,2.62,4.57,5.17,6.81,7.78,2.35,2.74,4.61,5.61,7.25,8.06,.15,.14,.35-.05,.23-.21-4.21-5.66-9.1-10.84-13.7-16.18-1.84-2.13-3.56-4.36-5.31-6.56,.88,.73,1.84,1.33,3.03,1.76,2.27,.83,4.79,1.09,7.15,1.54,2.65,.5,5.25,1.24,7.69,2.4,2.67,1.27,4.58,3.18,6.78,5.08,.14,.12,.33-.04,.22-.2-2.73-3.76-7.36-5.97-11.71-7.18-2.37-.66-4.83-.98-7.25-1.44-3.08-.59-5.37-1.86-7.59-4.06-1.04-1.27-2.19-2.54-3.48-3.63,.3,.05,.6,.09,.92,.12,1.92,.16,3.92,.22,5.83-.09,2.03-.33,3.97-.92,6.02-1.14,2.04-.22,4.09-.08,6.12-.48,.13-.02,.12-.23-.02-.24-3.18-.12-6.41-.09-9.52,.64-1.84,.43-3.57,.82-5.49,.84-1.53,.01-3.31,.16-4.79-.38-.67-.49-1.38-.94-2.13-1.29-.23-.11-.43,.18-.21,.33,.41,.3,.8,.62,1.19,.94,.96,1.6,1.35,2.92,.88,4.78-.43,1.69-1.29,3.35-1.99,4.94-1.42,3.26-1.94,6.17-1.02,9.68,.03,.12,.23,.12,.23-.02Z"/></g><g><g><path class="cls-45" d="M234,288.2c1.11,.06,1.8-.87,2.31-1.75,.92-1.62,1.01-3.61,1.49-5.37,.12-.43,.51-1.4,.78-.47,.08,.27,.12,.56,.16,.84,.16,1.1-.03,2.27-.16,3.36-.23,1.98-.4,6.27,2.69,6.21,2.59-.05,2.44-4.87,1.99-6.47-.2-.68-.44-1.35-.64-2.03-.26-.88-.83-2.18,.35-.43,.79,1.16,1.32,3.15,2.55,3.93,.76,.49,1.3-.75,1.5-1.24,.6-1.45-.17-3.31-.76-4.64-.32-.73-.73-1.39-1.21-2.01-.1-.13-1.48-1.92-1.46-1.92,1.16,.23,1.96,1.59,3.16,1.92,.79,.22,1.16-.5,1.19-1.14,.07-1.51-1.45-2.79-2.54-3.56-1.8-1.27-3.83-2.23-5.77-3.25-2.31-1.23-4.35-2.89-6.61-4.19-.07-.04-.14-.02-.18,.02-.08-.11-.15-.22-.24-.32-.14-.16-.36,.05-.24,.21,1.55,2.05,1.46,4.63,.87,7.01-.46,1.88-1.64,3.42-2.18,5.26-.2,.69-.27,2.27,.61,2.56,.82,.27,1.98-.36,2.27-1.2,.11-.32,.21-.66,.31-.99,.04-.13,.09-.26,.14-.4,.91-.22,1.13,.17,.68,1.17-.18,.89-.71,1.69-1.09,2.51-.66,1.44-1.62,2.78-1.52,4.44,.05,.75,.71,1.88,1.56,1.93Z"/><path class="cls-26" d="M238.32,274.86c.19,3.7-2.78,6.92-3.38,10.51-.02,.11,.16,.14,.19,.03,.61-2.12,1.65-4.07,2.54-6.08,.55-1.24,.99-2.41,1-3.67,.1,.25,.23,.5,.33,.76,1.34,3.52,1.48,7.28,2.31,10.91,.03,.12,.24,.12,.23-.02-.18-3.61-.76-7.18-1.91-10.62,.32,.29,.67,.54,.96,.79,1.86,1.54,3.43,3.23,4.61,5.35,.07,.12,.24,.03,.19-.09-.66-1.74-1.87-3.1-3.21-4.37-.86-.81-2.04-1.51-2.84-2.44-.66-1.7-1.54-3.27-2.54-4.76,1.02,.7,2.42,1.01,3.5,1.4,1.89,.68,3.64,1.47,5.26,2.66,.1,.07,.23-.08,.14-.17-2.54-2.66-6.54-2.75-9.49-4.74-.67-.96-1.39-1.9-2.11-2.83-.08-.1-.24,.01-.19,.12,.46,.89,1.08,1.7,1.69,2.51,.39,2.36-1.6,4.35-2.15,6.55-.02,.1,.11,.14,.15,.05,.66-1.86,2.61-3.96,2.4-6.06,.24,.33,.46,.66,.67,1,.63,1.03,1.16,2.11,1.65,3.21Z"/></g><g><path class="cls-45" d="M238.49,268.09c7.17,1.22,12.42,5.41,18.26,9.39,3.37,2.3,7.75,5.62,12.03,6.02,2.93,.27,4.45-.46,5.45-3.25,1-2.79-1.46-5.03-3.4-7,4.4,1.26,9.22,5.04,13.45,2.32,.4-.26,.56-.58,.51-1.06-.34-3.6-3.61-5.46-6.77-6.6-3.2-1.15,1.59-.66,2.46-.61,1.69,.1,3.32,.08,4.98-.28,1.91-.41,.42-2.49-.17-3.18-3.21-3.82-8.61-4.31-13.19-3.98-1.75,.12-4.22,.29-5.83,1.04-3.13,1.45,1.44-2.38,2.81-2.93,2.01-.79,3.75-2.95,1.87-5.05-2.21-2.45-6.14-.74-8.19,.86-7.73,6.03-13.6,11.79-23.8,12.85-.08,0-.14,.06-.18,.11-.07,0-.14-.03-.21-.03-.92-.09-.94,1.25-.07,1.4Z"/><path class="cls-24" d="M235.72,267.6c3.36,1.41,7.36,1.12,10.92,1.26,.5,.02,.99,.04,1.49,.07,2.33,.68,4.74,1.16,6.89,2.31,2.33,1.23,4.16,3.22,6.46,4.51,.13,.07,.23-.1,.12-.2-2.14-1.82-4.19-3.79-6.7-5.09-1.22-.63-2.62-1.07-4.05-1.41,2.81,.12,5.62,.22,8.45,.19,.88,.26,1.78,.46,2.64,.82,1.18,.49,2.25,1.25,3.25,2.04,1.94,1.52,3.49,3.44,5.27,5.12,.08,.08,.21-.03,.14-.12-2.01-2.65-5.33-6.63-9-7.89,3.37-.06,6.71-.08,10.04,.66,3.78,.84,7.42,2.53,10.77,4.45,.11,.06,.21-.09,.1-.16-3.06-1.92-6.2-3.52-9.68-4.54-3.3-.97-6.59-1.1-9.97-1.08,1.85-.58,3.48-1.78,5.17-2.84,3.24-2.04,6.97-2.16,10.66-2.22,.14,0,.15-.19,.01-.22-3.01-.54-6.17-.08-9,1.03-1.5,.59-2.77,1.57-4.12,2.43-1.39,.89-2.91,1.49-4.51,1.82-4.2,.05-8.35-.03-12.54-.29-.23-.01-.46-.02-.68-.04,2.77-.79,5.18-2.97,7.51-4.54,1.71-1.15,3.25-2.55,4.84-3.85,1.86-1.53,4.04-2.36,6.13-3.48,.11-.06,.05-.25-.08-.21-3.9,1.03-6.67,3.58-9.75,6.03-1.57,1.25-3.28,2.35-4.92,3.5-.97,.68-1.96,1.3-3.01,1.83-.84,.43-1.82,.48-2.76,.62-3.36-.17-6.71-.29-10.07-.75-.16-.02-.18,.2-.05,.25Z"/></g><path class="cls-26" d="M208.75,273.63c7.26-6.54,16.16-8.2,25.61-6.09,6.64,1.48,12.14,5.9,17.23,10.42-.04,.22-.03,.45,.12,.67,.57,.82,.96,1.77,1.24,2.78-.18,3.75-3.97,7.66-5.02,10.69-1.02,2.96-.83,6.09,.2,9.01,.62,1.78,1.74,4.11,3.95,3.75,1.76-.28,2.48-2.03,2.84-3.95,.45,1.39,.96,2.75,1.59,4.1,2.1,4.49,7.01,8.26,11.03,10.92,2.14,1.42,5.23,2.5,6.12-.63,1.2-4.24-3.47-8.36-5.25-12.54,2.55,4.42,5.8,8.78,10.49,10.49,3,1.1,5.91-1.16,5.59-4.29-.68-6.6-4.87-11.74-9.99-15.65-2.55-1.95,1.23,.62,1.99,1.06,1.58,.92,3.07,1.99,4.56,3.04,1.95,1.38,3.55,3.85,6.07,4.06,.24,.02,.53-.12,.65-.33,2.57-4.78-3.33-11.35-6.89-13.78-2.49-1.7-15.23-3.5-4.65-3.83,2.17-.07,5.2,1.35,7.23,.33,3.28-1.63-3.13-4.33-3.85-4.6-2.39-.89-4.98-1.25-7.53-1.05-6.82,.52-12.42,1.57-18.87-1.23-5.43-5.8-12.61-10.71-20.3-11.92-8.72-1.37-19.61-.1-24.68,8.08-.21,.34,.24,.73,.54,.45Z"/><path class="cls-45" d="M252.99,300.54c-.1-1.84-.39-3.65-.16-5.5,.26-2.24,1.62-4.53,2.5-6.58,.86-1.98,1.71-4.39,.7-6.32,1.19,1.08,2.31,2.23,3.36,3.43,1.2,2.1,2.03,4.16,2.55,6.6,.54,2.53,.86,5.12,1.72,7.57,.84,2.39,1.79,4.74,2.67,7.11,.92,2.48,2.02,5.11,3.92,7.01,.09,.09,.26-.02,.19-.13-3-4.64-5.07-9.96-6.7-15.23-.76-2.46-1.04-5.08-1.6-7.59-.32-1.4-.81-2.63-1.44-3.81,2.07,2.51,4,5.15,6.13,7.64,2.24,2.62,4.57,5.17,6.81,7.78,2.35,2.74,4.61,5.61,7.25,8.06,.15,.14,.35-.05,.23-.2-4.21-5.67-9.1-10.84-13.7-16.18-1.84-2.13-3.56-4.36-5.31-6.56,.88,.73,1.84,1.33,3.03,1.76,2.27,.83,4.79,1.09,7.15,1.54,2.65,.5,5.25,1.24,7.69,2.4,2.67,1.27,4.58,3.18,6.78,5.08,.14,.12,.33-.04,.22-.2-2.73-3.76-7.36-5.97-11.71-7.18-2.37-.66-4.83-.98-7.25-1.44-3.08-.59-5.37-1.86-7.59-4.06-1.04-1.27-2.19-2.54-3.48-3.63,.3,.05,.6,.09,.92,.12,1.92,.16,3.92,.22,5.83-.09,2.03-.33,3.97-.92,6.02-1.14,2.04-.22,4.09-.08,6.12-.48,.13-.02,.12-.23-.02-.24-3.18-.12-6.41-.08-9.52,.64-1.84,.43-3.57,.82-5.49,.84-1.53,.01-3.31,.16-4.79-.38-.67-.49-1.38-.94-2.13-1.29-.23-.11-.43,.18-.21,.33,.41,.3,.8,.62,1.19,.94,.96,1.6,1.35,2.92,.87,4.78-.43,1.69-1.29,3.35-1.99,4.94-1.42,3.26-1.94,6.18-1.02,9.68,.03,.12,.23,.12,.23-.02Z"/></g><g><g><path class="cls-45" d="M71.33,182.61c-.1-1.11-1.12-1.66-2.06-2.03-1.73-.68-3.72-.48-5.53-.7-.45-.06-1.46-.3-.58-.7,.26-.12,.54-.2,.81-.28,1.07-.31,2.25-.3,3.35-.33,2-.06,6.26-.51,5.75-3.56-.43-2.56-5.17-1.7-6.69-1.02-.65,.29-1.27,.62-1.91,.93-.83,.39-2.04,1.14-.48-.29,1.03-.94,2.92-1.76,3.52-3.09,.37-.83-.93-1.18-1.44-1.31-1.52-.38-3.25,.65-4.49,1.43-.67,.42-1.27,.92-1.81,1.49-.12,.12-1.69,1.74-1.69,1.72,.06-1.18,1.28-2.17,1.44-3.4,.11-.81-.66-1.07-1.3-1.01-1.5,.15-2.55,1.84-3.15,3.02-1,1.96-1.65,4.11-2.38,6.18-.88,2.46-2.23,4.73-3.19,7.15-.03,.08,0,.14,.05,.18-.09,.1-.2,.18-.29,.29-.13,.16,.11,.35,.25,.2,1.8-1.82,4.37-2.12,6.81-1.88,1.93,.19,3.63,1.13,5.52,1.4,.71,.1,2.28-.06,2.44-.98,.15-.85-.64-1.91-1.51-2.07-.34-.06-.68-.11-1.02-.17-.14-.03-.28-.06-.41-.08-.35-.87,0-1.15,1.06-.85,.91,.05,1.78,.46,2.64,.71,1.52,.44,2.99,1.2,4.61,.86,.73-.16,1.76-.97,1.68-1.82Z"/><path class="cls-26" d="M57.5,180.27c3.64-.72,7.25,1.75,10.89,1.82,.12,0,.12-.18,0-.2-2.19-.3-4.27-1.04-6.38-1.63-1.31-.36-2.53-.63-3.78-.45,.24-.14,.46-.3,.7-.43,3.28-1.84,6.99-2.51,10.46-3.86,.12-.05,.08-.25-.05-.23-3.54,.7-7,1.79-10.23,3.43,.24-.36,.44-.74,.64-1.07,1.25-2.06,2.7-3.86,4.62-5.33,.11-.09,0-.24-.12-.18-1.63,.91-2.8,2.3-3.85,3.81-.67,.96-1.2,2.24-2,3.16-1.59,.9-3.01,2-4.34,3.2,.55-1.11,.65-2.54,.88-3.67,.4-1.97,.92-3.82,1.87-5.59,.06-.11-.11-.21-.19-.12-2.26,2.9-1.78,6.87-3.32,10.07-.85,.81-1.68,1.65-2.49,2.5-.09,.09,.05,.24,.15,.16,.81-.58,1.52-1.31,2.24-2.03,2.28-.73,4.53,.95,6.79,1.18,.1,0,.13-.13,.03-.15-1.94-.39-4.3-2.01-6.34-1.5,.29-.28,.58-.55,.89-.81,.93-.77,1.92-1.45,2.93-2.1Z"/></g><g><path class="cls-45" d="M50.78,181.08c.16-7.27,3.55-13.07,6.64-19.43,1.79-3.67,4.44-8.49,4.21-12.77-.16-2.93-1.1-4.34-4.01-4.92-2.9-.59-4.76,2.18-6.44,4.38,.61-4.54,3.65-9.86,.34-13.64-.31-.36-.66-.47-1.12-.35-3.51,.86-4.88,4.36-5.55,7.65-.67,3.34-.88-1.48-.96-2.34-.15-1.69-.4-3.3-1-4.89-.68-1.83-2.52-.05-3.12,.62-3.31,3.73-3.01,9.14-2.02,13.63,.38,1.71,.9,4.14,1.87,5.62,1.89,2.89-2.57-1.08-3.3-2.36-1.08-1.88-3.46-3.28-5.26-1.12-2.11,2.54,.16,6.18,2.03,7.98,7.08,6.77,13.64,11.75,16.16,21.69,.02,.08,.08,.13,.13,.16,0,.07,0,.14,0,.21,.05,.92,1.37,.75,1.39-.13Z"/><path class="cls-24" d="M50.7,183.89c.91-3.52,.04-7.44-.33-10.99-.05-.5-.1-.99-.15-1.48,.33-2.4,.46-4.86,1.28-7.15,.88-2.48,2.58-4.58,3.52-7.05,.05-.14-.13-.22-.21-.1-1.49,2.38-3.14,4.69-4.06,7.37-.45,1.3-.68,2.74-.81,4.21-.29-2.8-.59-5.6-1.04-8.39,.13-.91,.2-1.83,.43-2.73,.32-1.24,.91-2.41,1.54-3.51,1.23-2.14,2.9-3.95,4.31-5.96,.07-.1-.06-.2-.14-.12-2.33,2.37-5.79,6.24-6.5,10.05-.55-3.33-1.05-6.62-.8-10.03,.28-3.87,1.43-7.71,2.84-11.3,.05-.12-.12-.2-.17-.08-1.46,3.31-2.58,6.64-3.09,10.24-.49,3.4-.13,6.68,.38,10.02-.84-1.75-2.26-3.19-3.56-4.7-2.49-2.91-3.15-6.58-3.74-10.23-.02-.14-.21-.12-.22,.02-.09,3.05,.82,6.12,2.32,8.76,.8,1.4,1.95,2.51,3,3.73,1.08,1.25,1.9,2.66,2.45,4.2,.66,4.14,1.18,8.27,1.53,12.45,.02,.23,.04,.46,.06,.68-1.19-2.62-3.69-4.69-5.58-6.78-1.38-1.53-2.99-2.85-4.51-4.23-1.78-1.62-2.92-3.65-4.33-5.57-.08-.1-.25-.02-.2,.11,1.58,3.71,4.51,6.08,7.38,8.77,1.46,1.37,2.8,2.91,4.17,4.36,.82,.86,1.57,1.75,2.25,2.72,.55,.77,.74,1.73,1.01,2.64,.33,3.35,.69,6.69,.72,10.07,0,.16,.23,.14,.26,0Z"/></g><path class="cls-26" d="M60.58,209.7c-7.52-6.24-10.45-14.8-9.73-24.46,.5-6.78,4.08-12.87,7.81-18.56,.22,0,.45-.03,.65-.22,.73-.68,1.61-1.2,2.57-1.63,3.74-.37,8.15,2.82,11.3,3.42,3.08,.58,6.14-.06,8.89-1.51,1.67-.87,3.82-2.32,3.14-4.45-.53-1.7-2.36-2.16-4.31-2.24,1.31-.64,2.58-1.35,3.83-2.17,4.14-2.72,7.16-8.14,9.21-12.49,1.09-2.32,1.72-5.54-1.51-5.96-4.37-.58-7.76,4.64-11.65,7.02,4-3.16,7.85-7.01,8.86-11.9,.65-3.12-2-5.68-5.05-4.91-6.43,1.63-10.91,6.51-14.03,12.15-1.56,2.81,.43-1.31,.76-2.12,.68-1.69,1.52-3.32,2.35-4.95,1.09-2.13,3.29-4.07,3.13-6.59-.01-.24-.19-.51-.42-.59-5.11-1.85-10.75,4.94-12.63,8.81-1.32,2.72-1.26,15.58-3.12,5.15-.38-2.14,.59-5.34-.72-7.21-2.09-3-3.83,3.73-3.99,4.47-.53,2.5-.51,5.11,.05,7.6,1.5,6.67,3.35,12.06,1.51,18.85-4.95,6.21-8.77,14.02-8.85,21.81-.1,8.83,2.74,19.42,11.58,23.25,.37,.16,.69-.34,.37-.6Z"/><path class="cls-45" d="M80.79,162.03c-1.81,.37-3.55,.91-5.42,.96-2.25,.07-4.71-.94-6.87-1.52-2.09-.56-4.59-1.05-6.36,.22,.89-1.34,1.87-2.6,2.91-3.82,1.9-1.49,3.83-2.61,6.16-3.48,2.43-.9,4.94-1.59,7.24-2.8,2.24-1.18,4.43-2.46,6.65-3.68,2.32-1.27,4.76-2.74,6.37-4.89,.07-.1-.05-.26-.16-.17-4.15,3.64-9.12,6.46-14.1,8.84-2.33,1.11-4.88,1.76-7.28,2.69-1.34,.52-2.48,1.19-3.56,1.98,2.18-2.41,4.51-4.7,6.67-7.18,2.27-2.6,4.45-5.27,6.71-7.87,2.37-2.72,4.88-5.38,6.93-8.35,.11-.17-.1-.34-.24-.2-5,4.98-9.41,10.57-14.02,15.9-1.84,2.13-3.79,4.16-5.72,6.2,.59-.98,1.05-2.02,1.3-3.25,.49-2.36,.39-4.9,.48-7.3,.11-2.69,.47-5.38,1.26-7.95,.87-2.83,2.48-4.99,4.05-7.44,.1-.16-.09-.33-.23-.19-3.33,3.24-4.84,8.15-5.41,12.63-.3,2.44-.27,4.92-.38,7.38-.13,3.13-1.06,5.58-2.91,8.1-1.11,1.22-2.2,2.54-3.09,3.96,0-.3,0-.61-.01-.93-.12-1.93-.35-3.92-.93-5.76-.62-1.96-1.49-3.79-2.01-5.79-.51-1.99-.67-4.04-1.36-5.99-.04-.13-.25-.08-.23,.05,.34,3.16,.84,6.35,2.01,9.33,.69,1.76,1.33,3.42,1.62,5.31,.23,1.51,.64,3.25,.32,4.8-.39,.74-.73,1.5-.97,2.29-.07,.24,.24,.4,.36,.16,.24-.45,.5-.88,.76-1.32,1.44-1.18,2.69-1.76,4.6-1.56,1.74,.18,3.5,.79,5.18,1.25,3.43,.93,6.39,1.02,9.72-.39,.11-.05,.08-.25-.05-.22Z"/></g><g><path class="cls-10" d="M117.38,71c-1.26-8.25-9.35-10.14-13.93-15.99-.04-.05-.08-.09-.11-.14-.19-.25-.48-.27-.7-.15-.07,.04-.12,.08-.17,.15-.1,.13-.12,.32,0,.52,.01,.02,.02,.04,.03,.06,.57,1.04,.62,2.26,.42,3.52-.36,2.26-1.55,4.67-2.1,6.53-1.05,3.51-1.53,7.34-.88,10.96,.55,3.03,2.65,5.49,5.36,6.86,1.07,.54,2.31,.89,3.46,1.18,.93,.24,1.65,.37,2.36,.31,.55-.05,1.09-.22,1.72-.57,.33-.18,.7-.24,1.03-.45,.94-.6,1.61-1.57,2.11-2.55,.91-1.78,.84-3.52,1.23-5.4,.34-1.59,.42-3.24,.18-4.85Z"/><path class="cls-17" d="M117.38,71c-1.28-8.32-9.49-10.16-14.04-16.12-.19-.25-.48-.27-.7-.15,.33,3.45,1.74,6.62,4.59,9.52,2.71,2.77,5.48,5.11,6.46,9.05,.76,3.08,.7,8.43-1.8,10.92-.17-.21-.51-.27-.64,.03-.09,.19-.12,.38-.13,.56,.55-.05,1.09-.22,1.72-.57,.33-.18,.7-.24,1.03-.45,.94-.6,1.61-1.57,2.11-2.55,.91-1.78,.84-3.52,1.23-5.4,.34-1.59,.42-3.24,.18-4.85Z"/><path class="cls-4" d="M114.8,81.58c-1.65-1.53-4.16,1.53-5.71,1.83-.18,.04-.29,.22-.3,.39-.1,1.53,2.92,1.34,4.49,.35,.31-.08,.62-.18,.92-.33,.76-.37,1.33-1.57,.6-2.24Z"/><path class="cls-12" d="M113.91,81.71c-.1,.15-.37,.05-.3-.12,2.08-5.8-1.94-12.21-6.06-15.88-1.69-1.51-3.8-3.18-4.37-5.51-.1-.4-.18-.82-.26-1.23-.22-1.15-.36-2.34-.42-3.52-.01-.19-.02-.39-.03-.58,.05-.07,.1-.11,.17-.15,.21-.11,.51-.09,.7,.15,.03,.05,.07,.09,.11,.14,.52,2.94,.46,5.75,2.96,8.22,1.84,1.82,3.69,3.55,5.14,5.71,2.07,3.1,4.62,9.19,2.36,12.77Z"/></g><g><path class="cls-10" d="M311.05,71.03c4.78-6.85,.22-13.79,.93-21.19,0-.06,0-.12,.02-.18,.03-.31-.17-.53-.4-.59-.07-.02-.15-.03-.23,0-.16,.03-.31,.15-.36,.37,0,.02-.01,.04-.02,.06-.31,1.15-1.11,2.06-2.12,2.84-1.82,1.39-4.34,2.31-6.03,3.28-3.18,1.82-6.17,4.26-8.2,7.33-1.69,2.57-1.86,5.8-.85,8.66,.4,1.13,1.06,2.23,1.69,3.24,.51,.81,.94,1.41,1.5,1.85,.43,.34,.94,.59,1.63,.77,.36,.1,.67,.31,1.06,.39,1.09,.21,2.25-.03,3.29-.39,1.89-.66,3.03-1.97,4.61-3.06,1.34-.92,2.54-2.05,3.48-3.38Z"/><path class="cls-17" d="M311.05,71.03c4.81-6.91,.14-13.9,.95-21.36,.03-.31-.17-.53-.4-.59-2.14,2.73-3.3,6-3.25,10.06,.05,3.88,.44,7.49-1.57,11.01-1.57,2.75-5.3,6.59-8.83,6.66,.02-.27-.18-.55-.49-.41-.19,.07-.35,.19-.48,.31,.43,.34,.94,.59,1.63,.77,.36,.1,.67,.31,1.06,.39,1.09,.21,2.25-.03,3.29-.39,1.89-.66,3.03-1.97,4.61-3.06,1.34-.92,2.54-2.05,3.48-3.38Z"/><path class="cls-4" d="M301.89,76.91c-.15-2.25-4.07-1.76-5.4-2.61-.16-.1-.36-.04-.48,.08-1.13,1.04,1.19,2.98,3.01,3.35,.28,.16,.57,.3,.89,.4,.8,.25,2.04-.22,1.98-1.21Z"/><path class="cls-12" d="M301.14,76.38c-.17,.04-.3-.22-.13-.3,5.51-2.77,7.02-10.18,6.57-15.68-.19-2.26-.56-4.93,.64-7,.21-.36,.43-.72,.65-1.07,.64-.99,1.35-1.94,2.12-2.84,.13-.15,.25-.3,.38-.44,.08-.02,.15,0,.23,0,.23,.07,.43,.28,.4,.59,0,.05-.01,.11-.02,.18-1.65,2.49-3.63,4.48-3.53,7.99,.08,2.59,.22,5.11-.22,7.68-.63,3.67-2.99,9.84-7.1,10.87Z"/></g><g><path class="cls-39" d="M402.04,51.54c-1.59-2.18-4.5-2.6-6.77-.86-2.35,1.81-3.04,5.27-.96,7.53,1.73,1.89,5.1,1.76,7.05,.35,1.99-1.43,2.63-5.31,.68-7.02Z"/><path class="cls-3" d="M396.98,52.79s0-.02,0-.04c.01-.07,.02-.13,0-.19,0-.02,0-.04,0-.06-.1-.37-.48-.45-.78-.3h-.02s-.07,.03-.1,.06c0,0-.01,.02-.02,.02,0,0-.02,0-.02,.02-.06,.05-.1,.12-.15,.18-.1,.13-.19,.27-.31,.41-.46,.54,.3,1.33,.79,.79,.2-.22,.39-.46,.52-.73,0-.01,.02-.02,.03-.04h0s.03-.05,.04-.07c0-.02,0-.03,.01-.05Z"/></g><g><path class="cls-39" d="M305.31,221.59c-1.59-2.18-4.5-2.6-6.77-.86-2.35,1.81-3.04,5.27-.97,7.53,1.73,1.89,5.1,1.76,7.05,.35,1.99-1.43,2.63-5.31,.68-7.02Z"/><path class="cls-3" d="M300.25,222.84s0-.02,0-.03c.02-.07,.02-.13,0-.19,0-.02,0-.04,0-.06-.1-.37-.48-.45-.78-.3h-.02s-.07,.04-.1,.06c0,0-.01,.02-.02,.03,0,0-.02,0-.02,.01-.06,.05-.1,.12-.15,.18-.1,.13-.2,.28-.31,.41-.46,.54,.3,1.33,.79,.79,.2-.22,.39-.46,.52-.73,0-.01,.02-.02,.03-.04h0s.03-.05,.04-.07c0-.02,0-.03,0-.05Z"/></g><g><path class="cls-39" d="M497.76,40.34c-1.59-2.18-4.5-2.6-6.77-.86-2.35,1.81-3.04,5.27-.97,7.53,1.73,1.89,5.1,1.76,7.05,.35,1.99-1.43,2.63-5.31,.68-7.02Z"/><path class="cls-3" d="M492.7,41.59s0-.02,0-.04c.02-.07,.02-.13,0-.19,0-.02,0-.04,0-.06-.1-.37-.48-.45-.78-.3h-.02s-.07,.03-.1,.06l-.02,.02s-.02,0-.03,.02c-.06,.05-.1,.12-.15,.18-.1,.13-.2,.27-.31,.41-.46,.54,.3,1.33,.79,.79,.2-.22,.39-.46,.53-.73,0-.01,.02-.02,.02-.04h0s.03-.05,.04-.07c0-.02,0-.03,0-.05Z"/></g><g><path class="cls-39" d="M150.54,159.47c-1.59-2.18-4.5-2.6-6.76-.86-2.35,1.81-3.04,5.27-.97,7.53,1.73,1.89,5.1,1.76,7.05,.35,1.99-1.43,2.63-5.31,.68-7.02Z"/><path class="cls-3" d="M145.48,160.73s0-.02,0-.03c.02-.07,.02-.13,0-.19,0-.02,0-.04,0-.06-.1-.37-.48-.45-.78-.3h-.02s-.07,.03-.1,.06c0,0-.01,.02-.02,.03,0,0-.02,0-.03,.01-.06,.05-.1,.12-.14,.18-.1,.13-.2,.27-.31,.41-.46,.54,.3,1.33,.79,.79,.2-.22,.39-.46,.52-.73,0-.01,.02-.02,.03-.04h0s.03-.05,.04-.07c0-.02,0-.03,0-.05Z"/></g><g><path class="cls-39" d="M59.91,261.3c-1.59-2.18-4.5-2.6-6.77-.86-2.35,1.81-3.04,5.27-.97,7.53,1.73,1.89,5.1,1.76,7.05,.35,1.99-1.43,2.63-5.31,.68-7.02Z"/><path class="cls-3" d="M54.86,262.55s0-.02,0-.04c.02-.07,.02-.13,0-.19,0-.02,0-.04,0-.06-.1-.37-.48-.45-.78-.3,0,0-.01,0-.02,.01-.03,.02-.07,.02-.1,.05,0,0-.01,.02-.02,.02,0,0-.02,0-.03,.02-.06,.05-.1,.12-.14,.18-.1,.13-.2,.27-.31,.41-.46,.54,.3,1.33,.79,.79,.2-.23,.39-.46,.52-.73,0-.01,.02-.02,.03-.04h0s.03-.05,.04-.07c0-.02,0-.03,0-.05Z"/></g><g><path class="cls-39" d="M114.9,116.71c-1.59-2.18-4.5-2.6-6.77-.86-2.35,1.81-3.04,5.27-.97,7.53,1.73,1.89,5.1,1.76,7.05,.35,1.99-1.43,2.63-5.31,.68-7.02Z"/><path class="cls-3" d="M109.84,117.96s0-.02,0-.04c.02-.07,.02-.13,0-.19,0-.02,0-.04,0-.06-.1-.37-.48-.45-.78-.3h-.02s-.07,.04-.1,.06l-.02,.03s-.02,0-.02,.01c-.06,.05-.1,.12-.15,.18-.1,.13-.2,.27-.31,.41-.46,.54,.3,1.33,.79,.79,.2-.22,.39-.46,.52-.73,0-.01,.02-.02,.03-.04h0s.03-.05,.04-.07c0-.02,0-.03,0-.05Z"/></g><g><path class="cls-41" d="M197.11,84c-.56-.79-1.16-1.55-1.77-2.26-5.42-6.62-12.33-11.78-19.85-14.56-5-1.8-10.26-2.58-15.52-2.04-6.2,.7-12.43,3.12-18.33,7.87-1.38,1.11-2.72,2.3-3.96,3.49-5.33,5.18-9.22,11.14-11.58,17.51-2.15,5.73-3.01,11.76-2.54,17.84,.42,5.76,2.07,11.55,5.02,17.11,5.79,10.89,16.86,19.51,27.59,25.51,5.49,3.1,11.29,5.76,16.99,8.51,2.51,1.24,5.45,2.82,8.33,2.15,.23,.07,.58,.27,.81,.15l.04-.02c.08-.04,.04-.4,.17-.42,.39-.2,.08-.96-.32-.9-.08-.25-.33-.46-.59-.47-2.46-2.19-4.59-4.85-7.09-7.02-3.95-3.43-7.52-6.7-10.53-10.96-3.71-5.21-6.85-11.51-7-17.99l.02-.06c-.02-2,.2-4.03,.83-6.02,.14-.56,.35-1.11,.59-1.68,.83-2.05,2.03-3.71,3.46-4.9,.37-.33,.79-.66,1.19-.91,3.4-2.22,7.78-2.55,12.07-1.46,.57,.14,1.1,.31,1.64,.51,.78,.28,1.57,.65,2.27,1.07,3.57,1.86,5.72,5.24,8.34,8.18,3.83,4.32,4.98,10.19,7.61,15.23l.08,.15c.26,.5,.83,.84,1.07,1.3,.52,.9,1.12,1.72,1.41,2.74,.08,.35,.3,.68,.38,1.03,.81,2.86,1.65,5.7,2.91,8.38,.18,.35,.92,.4,1.18,.07,2.99-3.18,3.45-7.58,4.1-11.59,.31-1.83,.65-3.62,.92-5.38,.02-.06,.04-.12,.02-.16,.73-4.69,1.21-9.21,.91-14.19-.71-12.71-3.25-25.44-10.87-35.81Z"/><path class="cls-42" d="M135.77,96.01c-3.3,.25-6.47-1.22-9.67-2-2.15,5.73-3.01,11.76-2.54,17.84,.49,.18,.96,.33,1.45,.51,2.42,.89,6.12,2.34,8.7,.99,2.12-1.11,1.64-4.92,1.7-6.77,.02-3.34,2.08-6.62,1.15-9.9-.12-.33-.43-.71-.79-.67Z"/><path class="cls-42" d="M141.64,73.01c-1.38,1.11-2.72,2.3-3.96,3.49,.83,.93,1.59,1.91,2.34,2.89,1.91,2.53,3.53,2.27,6.41,1.11,4.51-1.87,9.04-3.7,12.89-6.83,2.09-1.73,1.43-5.6,.64-8.52-6.2,.7-12.43,3.12-18.33,7.87Z"/><path class="cls-42" d="M175.48,67.18c-.09,.39-.13,.8-.16,1.2-.27,2.49-1.16,6.68,.58,8.81,1.17,1.4,3.46,2.4,4.83,3.8,1.31,1.38,2.55,3.18,4.04,4.36,2.05,1.58,3.62,1.49,5.93,.38,1.15-.6,2.97-2.09,4.63-3.99-5.42-6.62-12.33-11.78-19.85-14.56Z"/><path class="cls-16" d="M180.17,75.16c-.34-.17-.64-.3-.97-.47-.71-.32-1.41-.64-2.15-.94-1.84-.71-3.63-1.23-5.5-1.63-.74-.1-1.54-.23-2.32-.31-4.06-.47-8.12-.07-12.08,.97-.77,.21-1.53,.46-2.28,.7-5.23,1.8-10.25,4.77-14.75,8.63-.42,.32-.78,.66-1.19,1.01-.97,.85-1.95,1.8-2.86,2.77-.04,.02-.02,.06-.04,.12-1.56,1.7-2.69,3.66-3.61,5.66-.17,.43-.35,.82-.52,1.25-.5,1.2-.95,2.41-1.37,3.66-.51,1.45-.82,2.93-.99,4.39-.13,.51-.18,.97-.21,1.48-.58,7.7,2.36,15.43,5.86,22.32,.24,.56,.49,1.06,.75,1.57l.02,.04,5.87,11.24,.02,.04c.1,.19,.29,.33,.51,.47,.16,.11,.32,.22,.46,.39,.1,.09,.14,.17,.21,.29,.26,.5,.29,1.07,.59,1.45,.02,.04-.28,.25-.26,.29l.02,.04c.1,.19,.72,.02,.86,.19,4.64,5.22,9.14,10.26,15.62,13.94,0,0,.14-.03,.18-.05,.06,.02,.28-.05,.34-.03,.18,.05,.67-.06,.75,.1l.67,1.27c.12,.23,.12,.53,.37,.64,.51,.32,1.33,.91,1.84,1.23,1.79,1.17,11.94,6.31,18.3,7.42l.04-.02c1.73-.91,3.5-.98,3.56-3.11,.09-5.63-3.02-11.1-5.56-15.95l-2.96-5.66s-.02-.04-.04-.07c-2.92-5.58-5.22-11.43-5.48-17.82-.35-6.67,6.7,.57,7.55,1.45,2.47,2.58,4.42,5.67,6.23,8.75,.34,.56,.66,1.13,.96,1.7,.4,.77,.78,1.56,1.12,2.41,2.16,4.89,3.51,10.17,6.2,14.84,1.58,2.75,3.97,4.88,7.23,4.45,3.24-.46,4.43-5.4,5.02-7.82,.96-3.98,1.18-8.99,.91-14.29,.02-.06,0-.1-.02-.14-.07-1.73-.2-3.47-.39-5.24-.07-.6-.12-1.16-.23-1.74-.93-8.08-2.71-16.17-4.58-22-.04-.08-.06-.12-.04-.18-.04-.17-.12-.33-.17-.5-.21-.57-.06-1.39-.27-1.96-.04-.08,.27-.29,.22-.37l-5.53-10.58c-3.54-6.77-8.56-12.58-15.92-16.27Z"/><g><g><path class="cls-13" d="M163.88,99.45c.2,.09,.2,.48-.1,.54-.26,.08-.47,.14-.72,.23-.25,.08-.46,.14-.7,.26-.6,.17-1.16,.41-1.72,.65-.37,.14-.77,.31-1.11,.49,.52-.03,1.03,0,1.51,.09,.19,0,.39,0,.58,.09,.04-.02,.08-.04,.1,0,.39,.09,.83,.2,1.21,.35,.06,.02,.08,.06,.12,.04,.28,.15,.3,.48,.17,.7-.07,.14-.28,.3-.56,.25-2.12-.41-4.47-.11-6.86,.55-11.73,7.74-14.15,22.53-11.66,36.47-.06-.02-.08-.06-.1-.1-.29-.38-.63-.84-.99-1.24-.06-.12-.1-.2-.2-.29-.14-.17-.29-.29-.45-.4-1.84-12.81,1.61-26.27,11.65-33.87-4.3,1.51-8.46,4.23-11.1,6.78-4.52,4.47-6.25,9.69-6.95,15.29-.26-.5-.52-1-.76-1.56,.81-5.95,3.1-11.52,8.11-15.7,3.33-2.82,9.42-6.74,14.8-7.4,1.54-.81,3.18-1.51,5.03-2.09,.16-.08,.33-.12,.5-.16,.1,0,.2,0,.21,.04Z"/><path class="cls-13" d="M164.55,103.26c-.13,.21-.24,.47-.34,.76-1.16,2.37-1.52,4.96-1.36,7.62,.01,.78,.11,1.51,.22,2.29,.67,4.74,2.47,9.63,4.11,13.62,2.32,5.46,5.89,10.39,10.21,12.99l1.05,2c-6.56-1.23-10.68-10.15-12.72-15.45-1.26-3.35-3.03-7.82-3.9-12.22-.21-1.16-.32-2.38-.38-3.53-.11-2,.14-3.89,.85-5.63-1.14,1.38-2.04,2.93-2.69,4.59-1.42,3.39-1.9,7.32-1.78,11.12,.07,2.95,.5,5.92,1.11,8.58,3.14,13.6,13.35,20.02,25.18,25.59,.39,.19,.05,.76-.34,.66-12.86-2.68-24.27-14.01-26.5-27.01-.11-.58-.21-1.16-.28-1.76l.02-.06c-.86-5.67-1.3-13.09,1.2-18.61,.54-1.21,1.26-2.38,2.12-3.36-1.14,.44-2.1,1.14-2.82,2.11-5.28,6.48-2.73,23.47-1.77,29.14,1.09,6.87,3.22,13.65,6.44,19.9-.25-.11-.25-.41-.37-.64l-.67-1.27c-.08-.15-.57-.05-.75-.1-3.65-7.84-5.98-16.27-6.48-25.47-.27-5.39-1.59-17.74,3.31-22.5,.96-1.08,1.87-2.46,3.51-2.69,.59-.56,.85-1.79,1.62-2.19l.19-.1c.08-.04,.54,.57,.62,.53,.19-.1,.5,.29,.63,.37,.02-.06,.11,.12,.15,.1,.27-.33,.8,.31,.61,.6Z"/></g><g><path class="cls-13" d="M200.95,102.32l.06,.02c0,.1,.02,.14,.06,.21,.2,.58,.39,1.22,.59,1.79,.04,.17,.12,.33,.17,.5-.02-.04-.06-.02-.08-.06-9.54-8.14-21.49-12.63-33.12-7.97-1.91,1.59-3.47,3.38-4.29,5.38-.28,.59-1.14,.35-1-.31,.25-1.11,.85-2.11,1.58-3.08-.35,.18-.67,.4-1.04,.64-.52,.32-1.03,.64-1.51,1.04-.4,.26-.82,.58-1.24,.9-.21,.16-.49,0-.47-.24-.02-.04,.44,.65,.5,.57,.44-.37,1.24,.04,1.74-.22l.12-.06c-.59-4.13,1.92-2.33,3.15-2.97,3.62-4.04,10.07-7.17,14.33-8.31,5.7-1.56,10.94-.82,15.83,1.42,.28,.44,.5,.85,.74,1.31-4.49-2.11-9.31-3.28-14.9-2.27-3.64,.73-8.22,2.55-11.92,5.22,10.5-3.43,21.71-.35,30.73,6.5Z"/><path class="cls-13" d="M206.45,127.02c.11,.58,.16,1.14,.23,1.74-2.98-4.76-6.76-9.1-10.78-13.03-4.47-4.33-18.57-17.63-26.75-14.83-.5,.16-1.06,.41-1.52,.75,.66-.05,1.32-.11,1.98-.06,7.23,.34,14.59,6.54,19.29,11.13,7.24,7.2,10.6,18.32,9.31,28.6-.39,3-1.14,5.88-2.31,8.6-.15,.38-.81,.33-.7-.12,.73-4.5,1.3-8.86,1.32-13.13,.01-7.94-1.87-15.39-7.99-22.14-4.56-5.06-11.21-10.11-18.2-11.01-1.21-.15-2.41-.21-3.64-.11,1.33,.29,2.56,.87,3.77,1.6,3.34,2.08,6.24,5.66,8.59,9.04,1.17,1.59,2.17,3.12,3.07,4.46,3.07,4.47,7.47,12.51,5.61,18.43-.34-.85-.71-1.64-1.11-2.41,.48-5-2.06-9.95-4.96-14.56-1.42-2.24-2.99-4.7-4.88-7-1.89-2.49-4.07-4.78-6.55-6.43-1.84-1.29-3.82-2.16-6.03-2.53-.29-.09-.4-.18-.68-.23-.35-.01,.08-.93,.16-.77l-.06-.12-.1-.19-.08-.16c-.04-.07-.34-.46-.34-.65-.02-.13-.3-.38-.23-.42l.04-.02,.08-.04s.22,.13,.28,.15c.38-.2,.9-.15,1.36-.2,.56-.05,.9-.44,1.39-.53,.59-.65,1.01-1.53,1.67-1.87l.04-.02c6.73-3.52,18.03,6.57,22.7,10.26,6.34,4.92,11.92,11.38,16.01,17.81Z"/></g><g><path class="cls-13" d="M180.19,75.15c-3.95,8.67-10.67,16.35-18.74,20.96-5.83,3.29-11.84,5.01-18.54,4.64-4.66-.21-9.49-.63-13.56,1.7,.03-.5,.08-.97,.21-1.48,.81-.42,1.64-.71,2.51-.92,6.96-1.58,14.13,.7,21.06-1.5,11.53-3.72,20.82-12.94,26.09-23.87,.33,.17,.64,.3,.98,.47Z"/><path class="cls-13" d="M171.55,72.12c-2.57,7.27-6.62,14.43-12.31,17.7-6.02,3.49-11.49,1.64-18.07,1.8-3.21,.06-6.32,.46-9.26,1.31,.17-.42,.35-.82,.52-1.25,5.77-1.25,11.02-.67,17.04-.58,11.91,.2,16.26-9.47,19.76-19.29,.78,.08,1.58,.21,2.32,.31Z"/><path class="cls-13" d="M157.15,72.79c-1.26,4.24-3.7,8.11-7.4,9.75-3.62,1.6-7.35,1.69-10.81,.6,.41-.35,.77-.69,1.19-1.01,4.86,1.23,10.01,.21,12.93-4.6,.77-1.34,1.39-2.68,1.81-4.03,.75-.25,1.5-.49,2.28-.7Z"/></g></g><g><path class="cls-5" d="M170.35,101.45c1.92,3.68,.5,8.21-3.18,10.13-3.68,1.92-8.21,.5-10.13-3.18-1.92-3.67-.5-8.21,3.18-10.13,3.68-1.92,8.21-.5,10.13,3.18Z"/><path class="cls-34" d="M168.34,101.93c1.33,2.55,.35,5.69-2.2,7.02-2.54,1.33-5.69,.34-7.03-2.2-1.33-2.54-.34-5.69,2.2-7.02,2.54-1.33,5.69-.34,7.02,2.2Z"/></g></g><g><path class="cls-18" d="M352.89,65.64c-1.78-.23-2.85,.61-3.07,2.41-.17,1.33,.83,2.78,.94,4.1,.15,1.91-1.13,3.7-1.31,5.58-.03,.24,.21,.42,.43,.43,4.1,.11,6.8-4.09,7.54-7.67,.64-3.04-1.72-8.22-4.52-4.85Z"/><path class="cls-18" d="M314.79,105.95c-.99-.55-2.02-.91-3.1-1.25-1.61-.51-2.91-1.49-4.47-2.04-4.67-1.63-10.91,.37-14.74,3.21-1.59,1.17-2.75,2.75-2.65,4.76,.1,2,2.35,3.18,2.4,5.15,.01,.48,.67,.45,.72,0,.02-.13,.01-.26,.01-.38,2.42-2.56,5.41-4.79,9.03-5.09,4.34-.36,7.23,3.52,6.83,7.52-.04,.42,.49,.66,.82,.47,2.88-1.67,5.89-5.7,6.31-9.04,.15-1.22,.06-2.63-1.16-3.3Z"/><path class="cls-18" d="M317.38,89.58c-2.53-1.65-6.11-.62-8.59,.59-2.74,1.34-5.26,3.35-6.33,6.27-.68,1.84-.4,4.67,1.88,5,.27,.04,.49-.1,.51-.39,.02-.05,.04-.1,.05-.15,2.95-5.66,9.33-4.95,14.68-4.25,.23,.03,.43-.18,.49-.37,.78-2.4-.65-5.37-2.69-6.7Z"/><path class="cls-18" d="M343.96,88.05c-2.45,1.11-6.49,3.58-6.3,6.69,.1,1.66,1.43,4.29,3.37,3.31,.25-.13,.17-.42-.03-.53,2.58-2.94,7.71-6.67,11.51-4.27,.26,.16,.55,0,.65-.26,2.16-5.48-5.55-6.59-9.2-4.93Z"/><path class="cls-18" d="M378.25,88.51c-3.31-5.59-10.21-3.29-14.46-.41-5.27,3.55-5.85,8.95-1.36,13.01-.19,.55-.43,1.06-.83,1.44-.17,.17,.05,.39,.24,.31,.72-.32,.86-.67,1.09-1.28,.06,.05,.11,.11,.17,.16,.19,.15,.48,.17,.62-.08,.3-.54,.21-.53-.03-1.1-.05-.14-.17-.19-.27-.2,.65-1.65,.98-3.07,2.64-4.23,2.1-1.46,4.9-1.76,7.11-.49,1.41,.81,2.24,2.7,3.85,3.21,4.6,1.46,2.32-8.51,1.23-10.34Z"/><path class="cls-18" d="M343.26,105.45c-4.76-.31-8.63,1.38-11.32,5.33-.74,1.08-5.2,6.46-3.54,7.72-.05,.18-.09,.36-.1,.55-.02,.3,.41,.39,.54,.15,1.75-3.04,6.11-4.15,9.37-4.47,2.69-.26,5.25,.09,6.86,2.47,.99,1.47,1.16,3.64,1.78,5.28,.11,.29,.39,.5,.71,.4,4.12-1.23,6.81-6.22,6.49-10.35-.36-4.71-6.95-6.83-10.8-7.08Z"/><g><path class="cls-18" d="M394.21,93.43c-.03-.61-.2-1.25-.27-1.87-.05-.37-.15-.71-.2-1.08,0-.17-.05-.37-.1-.54-.05-.39-.14-.78-.19-1.18-.15-1.15-.35-2.28-.57-3.32-.25-1.33-.54-2.63-.91-3.93-.84-2.95-1.89-5.82-2.97-8.67-1.13-2.97-1.57-6.92-3.24-9.6-1.28-2.04-2.43-4.86-4.03-7.09-.96-1.33-2.11-2.43-3.54-3-3.41-1.38-8.62,2.16-11.34,3.71-5.33,3.02-10.63,6.83-15.98,9.28,1.89,.64,3.39,2.09,3.85,3.98,.78,3.22-1.6,6.58-5.33,7.51-3.73,.91-7.39-.96-8.17-4.17-.17-.66-.2-1.33-.1-1.96-11.32,6.26-22.81,12.15-34.84,16.99-6.36,2.55-12.81,4.91-19.17,7.44-3.07,1.2-16.74,7.07-17.63,12.37-.15,.79,0,1.52,.49,2.26,3.68,5.55,16.69,4.93,22.46,5.33,0,0,.02,0,.02-.02-.02-.05-.05-.07-.05-.12-.37-1.48-.22-2.95,.3-4.32,1.03-2.6,3.49-4.79,6.7-5.57,4.76-1.18,9.47,1.13,10.7,5.16,.03,.1,.08,.22,.1,.34,.52,2.11,0,3.96-1.25,5.75,.1,.07,.2,.15,.29,.15h.02c4.96,0,9.9,.51,14.85,1.37,1.42,.24,2.88,.63,4.3,.63h.07c-.46-2,.54-4.79,2.53-6.78,1.33-1.3,3.07-2.05,5.08-2.54,4.76-1.18,9.42,.99,11.15,4.72,.17,.42,.32,.69,.44,1.12,.59,2.33-.02,4.48-1.45,6.48h.62c3.27,0,6.51-.13,9.77-.42,5.28-.32,10.19-.69,15.42,0,9.65,1.28,18.07,1.56,21.39-7.94,.1-.34-1.99-.7,1.01-1.04v-17.87c0-.52-.22-1.03-.25-1.55Zm-90.18,5.55c-.59-2.38,1.94-5.08,5.67-5.99,3.73-.93,7.24,.27,7.83,2.68,.59,2.38-1.96,5.08-5.7,5.99-3.73,.93-7.22-.27-7.81-2.67Zm64.59-8.45c3.73-.93,7.39,.93,8.2,4.15,.79,3.22-1.6,6.58-5.33,7.51-3.73,.91-7.39-.96-8.17-4.17-.81-3.22,1.57-6.58,5.3-7.49Zm-22.22,6.97c-2.31,.59-4.59-.56-5.08-2.58-.49-1.99,.98-4.08,3.29-4.64,2.31-.56,4.59,.59,5.08,2.58,.49,1.99-.98,4.08-3.29,4.64Z"/><path class="cls-14" d="M394.88,105.87c0-3.53-.41-7.17-.41-10.8v-.1c0-.52-.22-1.03-.25-1.55-.03-.61-.2-1.25-.27-1.87-.05-.37-.15-.71-.2-1.08,0-.17-.05-.37-.1-.54-.05-.39-.14-.78-.19-1.18-.27-1.55-.62-3.07-.94-4.57-.2-.88-.35-1.77-.54-2.68-.84-2.95-1.89-5.82-2.97-8.67-1.13-2.97-1.57-6.92-3.24-9.6-1.28-2.04-2.43-4.86-4.03-7.09-.96-1.33-2.11-2.43-3.54-3-3.41-1.38-8.62,2.16-11.34,3.71-5.33,3.02-10.63,6.83-15.98,9.28,1.89,.64,3.39,2.09,3.85,3.98,.78,3.22-1.6,6.58-5.33,7.51-3.73,.91-7.39-.96-8.17-4.17-.17-.66-.2-1.33-.1-1.96-11.32,6.26-22.81,12.15-34.84,16.99-6.36,2.55-12.81,4.91-19.17,7.44-3.07,1.2-16.74,7.07-17.63,12.37,1.23,1.62,4.1,2.09,5.82,2.38,4.89,.91,9.99,.83,14.95,.79,.81,0,1.65-.02,2.46-.05,1.03-2.6,3.49-4.79,6.7-5.57,4.76-1.18,9.47,1.13,10.7,5.16,7.02,.07,13.95,1.01,20.92,1.99,1.33-1.3,3.07-2.31,5.08-2.8,4.76-1.18,9.42,.86,11.15,4.59,5.13,.37,10.29,.52,15.34,.52,4.32,0,8.54-.54,12.84-.96,3.76-.39,7.46-.23,11.22-.16,2.23,.07,4.42,1.07,6.18-1.93h.03s.05,.23,.1,.21c.05-.05,.05,.04,.1,0,.44-.37,.87-.75,1.09-1.27,.74-1.62,.74-3.75,.71-5.32Zm-83.04-4.22c-3.73,.93-7.22-.27-7.81-2.67-.59-2.38,1.94-5.08,5.67-5.99,3.73-.93,7.24,.27,7.83,2.68,.59,2.38-1.96,5.08-5.7,5.99Zm34.57-4.15c-2.31,.59-4.59-.56-5.08-2.58-.49-1.99,.98-4.08,3.29-4.64,2.31-.56,4.59,.59,5.08,2.58,.49,1.99-.98,4.08-3.29,4.64Zm25.09,4.69c-3.73,.91-7.39-.96-8.17-4.17-.81-3.22,1.57-6.58,5.3-7.49,3.73-.93,7.39,.93,8.2,4.15,.79,3.22-1.6,6.58-5.33,7.51Z"/></g></g><g><g><path class="cls-35" d="M90.05,89.9c-5.22,1.95-8.11,9.32-8.2,14.44-.05,2.37,.82,11.64,5.55,7.95,2.19-1.7,3.32-4.3,4.67-6.64,2.08-3.6,5.12-7.21,6.63-11.11,.08,.46,.13,.95,.14,1.5,0,.48,.7,.47,.74,0,.48-5.51-4.71-7.94-9.53-6.14Z"/><g><path class="cls-20" d="M105,162.45c-5.69-9.52-11.21-20.34-11.69-32.06-.25-5.47,.06-11.61,2.08-17.1,1.3-3.44,2.68-6.85,3.58-10.34,1.21-4.79,2.45-12.43-4.82-11.64-4.25,.45-6.68,4.14-7.58,7.66-.71,2.7,.9,7.86-.76,10.62-1.47-6.9-6.4-19.89-16.31-16.57-.17,.06-.37,.11-.54,.2-7.83,3.04,.14,12.93,2.45,15.89,2.59,3.3,5.83,6.31,7.8,10.03,3.78,7.15,4.2,15.44,6.59,23.13,.87,2.76,1.92,5.92,3.24,9.02,3.21,7.52,8.14,14.85,16.48,16.4-.03,.2,.2,.31,.39,.14,0-.03,.03-.03,.03-.06,.06,0,.08,.03,.14,.03,.31,.06,.62-.25,.56-.53-.03-.14-.06-.28-.09-.45,.54-1.44-.42-3.24-1.58-4.37Z"/><path class="cls-35" d="M88.13,137.89c-1.36-5.05-2.62-10.17-4.23-15.13-1.24-3.92-1.63-9.3-4.14-12.6-.93-1.27-2.59-2.11-3.71-3.15-.96-.88-1.66-2.23-2.34-3.3-1.41-2.28-3.92-6.99-4.2-10.68-.17,.06-.37,.11-.54,.2-7.83,3.04,.14,12.93,2.45,15.89,2.59,3.3,5.83,6.31,7.8,10.03,3.78,7.15,4.2,15.44,6.59,23.13,.87,2.76,1.92,5.92,3.24,9.02,.45-.68,.73-1.61,.79-2.73,.22-3.66-.76-7.19-1.71-10.68Z"/></g></g><path class="cls-23" d="M146.25,192.88c-1.41-2.96-3.02-5.86-4.74-8.65-1.94-3.21-4.03-6.28-6.23-9.27-.31-.42-.62-.84-.93-1.24-1.92-2.54-3.91-5.02-6-7.38-4.08-4.73-8.48-9.16-13.21-13.3-1.52-1.35-3.1-2.68-4.7-3.92-.76-.65-1.55-1.24-2.37-1.83-4.62-3.3-9.66-5.83-15.55-6.28-9.47-.73-16.99,6.93-22.26,14.76-.54,.82-1.07,1.63-1.58,2.45-.87,1.44-1.66,2.82-2.39,4.14-1.55,2.85-3.02,5.75-4.34,8.74-.37,.71-.68,1.38-.96,2.08-2,4.48-3.77,9.08-5.29,13.75-.56,1.63-1.1,3.3-1.58,4.96-1.3,4.34-2.42,8.68-3.36,13.02-3.01,13.97-4.25,28.68,2.71,41.66,3.19,6,8.03,10.23,13.75,13.69,3.58,2.17,7.38,4,11.21,5.66,2.31,1.01,4.54,2.08,6.93,2.56,1.07,1.1,2.25,2.06,3.66,2.76,3.13,1.52,7.18,.78,10.45,.34,9.1-1.24,17.47-2.71,25.83-6.71,7.69-3.69,14.85-9.13,20.03-15.89,5.04-6.56,7.27-14.87,7.95-22.99,.93-11.63-2.03-22.82-7.04-33.13Z"/><path class="cls-38" d="M93.68,180.03c8.25-3.69,16.43-5.58,24.74-6.28,9.66,5.72,18.96,12.17,27.83,19.13-1.41-2.96-3.02-5.86-4.74-8.65-5.64-3.89-11.55-7.44-17.32-10.76,3.35-.06,6.73,.03,10.17,.25-1.92-2.54-3.91-5.02-6-7.38-4.76-.11-9.58,.42-14.37,1.43-1.18-.65-2.37-1.29-3.52-1.91-5.5-3.02-10.99-5.3-16.51-6.93,1.5-1.04,3.01-2.06,4.51-3.07,3.94-2.65,7.94-4.9,11.97-6.74-.76-.65-1.55-1.24-2.37-1.83-.23,.08-.48,.19-.71,.31-6.08,2.76-12.17,6.2-18.12,10.12-6.28-1.44-12.59-2.06-18.99-1.95-.54,.82-1.07,1.63-1.58,2.45,5.83,0,11.49,.62,17.13,1.83-5.38,3.72-10.59,7.83-15.49,12.2-2.76-.51-5.55-.9-8.37-1.15-.37,.71-.68,1.38-.96,2.08,2.42,.23,4.82,.57,7.19,1.02-4.42,4.08-8.62,8.34-12.48,12.73-.56,1.63-1.1,3.3-1.58,4.96,5.44-6,11.58-11.58,18.03-16.88,4.48,1.07,8.9,2.51,13.24,4.39-13.27,7.78-25.21,17.95-34.11,27.41-1.18,1.27,.67,3.15,1.94,1.91,10.76-10.34,22.57-19.47,35.81-26.45,.4-.23,.79-.4,1.18-.59,.14,.05,.25,.11,.37,.17,15.27,7.97,25.89,21.92,38.46,33.19,.82,.73,2.17-.2,1.55-1.18-9.72-15.38-22.43-26.65-36.91-33.83Zm-5.21-2.37c-4.54-1.89-9.21-3.38-14.03-4.51,5.3-4.2,10.73-8.17,16.17-11.91,6.34,1.74,12.68,4.28,19.07,7.6-7.24,2-14.37,5.07-21.21,8.82Z"/><g><path class="cls-8" d="M149.71,228.07c-3.34-14.12-14.99-25.96-27.95-31.81-11.71-5.28-25.02-4.37-36.97-.38-11.99,4-23.68,11.9-29.1,23.66-5.92,12.83-1.17,27.33,8.31,36.99,5.13,5.23,11.56,8.74,18.13,11.82,7.01,3.28,13.8,6.76,21.67,7.4,7.77,.63,15.26-1.6,21.93-5.51,3.8-2.22,7.57-4.84,10.94-7.67,10.45-8.8,16.29-20.8,13.05-34.5Z"/><path class="cls-9" d="M108.02,205.46c-13.25-2.18-27.07,.88-33.95,13.47-6.54,11.97-1.56,28.07,9.11,35.89,11.13,8.16,26.16,8.62,38.24,2.29,9.45-4.95,16.86-17.83,16.07-28.35-1.09-14.52-16.84-21.23-29.47-23.31Z"/><path class="cls-15" d="M123.15,227.04c0,5.71-6.73,10.33-15.02,10.33s-15.02-4.62-15.02-10.33,6.72-10.33,15.02-10.33,15.02,4.63,15.02,10.33Z"/><path class="cls-7" d="M117.69,227.04c0,3.63-4.28,6.57-9.56,6.57s-9.56-2.94-9.56-6.57,4.28-6.57,9.56-6.57,9.56,2.94,9.56,6.57Z"/></g></g><path class="cls-44" d="M215.13,70.98c2.42-.16,4.98-.45,7.49-.96,5.4-.22,13.48,1.7,17.07-3.53,.15-.22-.14-.41-.33-.28-2.85,2.02-5.72,2.73-9.18,2.77-1.24,.01-2.48-.04-3.71,0,3.17-1.07,6.06-2.67,8.19-5.13,.25-.29-.02-.83-.42-.6-3.3,1.89-5.92,4.1-9.67,5.17-1.15,.33-2.34,.57-3.53,.78,.36-.14,.73-.26,1.08-.41,3.74-1.62,7.05-5.08,9.68-8.08,.44-.51-.16-1.2-.71-.78-3.32,2.53-5.78,5.77-9.53,7.77-2.15,1.14-4.57,1.23-6.85,1.89-.21,.06-.41,.17-.62,.24,4.21-3.51,7.85-7.63,10.25-12.67,.19-.4-.31-.96-.66-.56-3.77,4.35-7.04,8.98-11.3,12.92-1.55,1.43-3.23,2.58-4.97,3.63,.85-1.05,1.58-2.15,2.22-3.38,1.3-2.52,2.63-5.66,2.77-8.51,.02-.36-.54-.58-.71-.22-.99,2-1.46,4.28-2.28,6.37-1.38,3.55-3.35,5.56-6.19,7.91-.08,.07-.05,.16-.02,.24-1.76,.99-3.5,2-5.16,3.21-2.68,1.97-4.72,4.5-6.36,7.32,1.09-4.6,1.87-9.25,1.92-14.02,0-.14,0-.28,0-.42,.53-1.84,.96-3.69,1.38-5.52,1.21-2.68,3.04-5.27,4.64-7.53,.03-.04,.06-.07,.09-.11,4-2.95,9.68-1.83,13.91-4.34,.27-.16,.14-.64-.2-.54-3.68,1.05-8.13,.99-11.62,2.66,2.93-2.49,6.8-3.85,10.21-5.48,.23-.1,.1-.47-.14-.41-4.5,1.17-9.33,3.03-12.36,6.74-1.14,1.39-2.46,3.11-3.57,4.95,1.13-4.6,2.55-9.07,5.57-13.17,.2-.27,.43-.49,.64-.75,1.29-1,2.86-1.74,4.53-2.35,6.33-.74,12.16-1.14,18.41,.41,3.87,.96,7.68,1.23,11.08-1.14,.35-.24,.02-.88-.38-.74-2.61,.92-4.92,1.54-7.72,1.26-2.26-.24-4.44-1.02-6.69-1.34-4.05-.58-7.97-.02-11.92,.66,2.58-.69,5.22-1.14,7.4-1.6,4.47-.95,9.47-1.98,13.02-5.03,.34-.29-.05-.81-.43-.63-2.94,1.34-5.81,2.37-8.74,3.24,4.41-2.37,7.65-7.32,10.36-11.17,.16-.23-.18-.53-.38-.33-4.41,4.52-7.7,9.8-13.8,12.23-.17,.07-.19,.22-.13,.35-1.5,.38-3.03,.75-4.6,1.11-2.2,.51-4.92,1.13-7.31,2.2,4.93-4.5,11.2-7.25,16.18-11.73,.39-.35-.05-.95-.51-.74-2.19,.99-4.4,2.21-6.57,3.56,.66-.8,1.31-1.6,1.93-2.42,.04-.01,.09-.03,.13-.07,3.48-4.41,7.66-7.96,13.2-9.28,.29-.07,.23-.46-.04-.49-4.36-.5-7.78,2.32-10.54,5.57,.82-1.63,1.4-3.35,1.58-5.24,.03-.34-.46-.4-.57-.1-1.84,4.98-4.95,8.78-7.56,13.23-4.47,3.01-8.64,6.64-11.79,10.54-3.71,4.6-5.63,10.65-6.8,16.71-.12-4.84-.07-9.57,1.61-14.45,2.87-8.35,9.52-14.11,14.81-20.84,.38-.48-.36-1.03-.79-.67-5.74,4.89-10.85,10.96-14.24,17.71,.43-2.17,.81-4.36,1.27-6.53,.37-1.72,.9-3.3,1.52-4.81,2.09-3.1,5.7-6.25,8.91-8.06,2.91-1.64,6.27-2.42,8.89-4.55,.32-.26-.05-.68-.38-.55-4.98,1.82-11.17,4.44-15.07,8.65,1.09-1.71,2.3-3.38,3.77-5.01,.2-.23-.04-.67-.33-.47-8.47,5.8-8.8,17.07-10.54,26.33-1.31,4.67-1.37,9.49-1.09,14.48,.35,6.11,.05,11.9-1.02,17.78-.37-3.75-1.71-7.5-3.53-10.44-1.66-2.68-3.88-4.99-5.93-7.39,.06-.11,.08-.23,.04-.37-2.92-7.37-1.13-14.61,3.68-20.69,.22-.28-.2-.54-.44-.37-3.37,2.37-4.88,6.64-5.61,10.54-.33,1.75-.43,3.65-.2,5.42,.03,.25,.24,1.62,.55,2.89-2.3-3.63-2.49-7.73-2.49-12.01,0-.44-.72-.61-.8-.14-1.13,6.16,.87,11.32,4.79,16.03,3.16,3.79,6.24,7.1,7.81,11.89,1.02,3.12,1.46,6.39,1.06,9.59-.34,1.33-.71,2.64-1.1,3.94-.45,1.25-.86,2.53-1.25,3.82-.22,.64-.42,1.3-.66,1.94-.61,1.64-1.11,3.31-1.74,4.94-.79,2.04-.55,4.17-1.6,6.2-.22,.42,.4,.82,.62,.4,.01-.02,.02-.05,.03-.07,.16,.11,.42,.1,.52-.15,.76-1.86,1.42-3.79,2.05-5.74,1.97-4.09,4.44-8.04,7.66-11.25,3.1-3.09,7.19-4.81,10.51-7.59,.25-.21-.04-.54-.3-.44-5.82,2.29-12.33,7.08-15.92,12.98,2.46-7.82,5.44-15.3,13.12-19.63,.2-.11,.39-.24,.59-.35,3.98-1.25,8.91-1.03,12.52-.42,3.49,.59,7.72,1.27,10.38-1.63,.24-.27-.02-.73-.38-.54-4.84,2.58-9.16,.89-14.27,.63-1.79-.09-3.83,.08-5.82,.51,2.37-1.42,4.71-2.91,6.94-4.57,1.13-.22,2.29-.47,3.46-.75Z"/><path class="cls-44" d="M359.44,52.11c2.23,.46,4.64,.83,7.04,.99,4.96,1.13,11.83,4.89,16.38,1.03,.19-.16-.03-.41-.23-.33-3.09,1.12-5.87,1.06-9.03,.24-1.13-.3-2.25-.65-3.37-.92,3.14-.19,6.17-.92,8.71-2.63,.3-.2,.19-.76-.23-.65-3.46,.9-6.39,2.26-10.06,2.29-1.13,0-2.26-.07-3.4-.17,.36-.04,.73-.06,1.08-.11,3.8-.54,7.66-2.86,10.8-4.94,.53-.35,.15-1.13-.45-.89-3.64,1.47-6.68,3.81-10.59,4.69-2.23,.51-4.45-.01-6.69,.02-.21,0-.41,.05-.62,.06,4.69-2.15,9.02-4.98,12.45-8.97,.27-.31-.04-.95-.46-.67-4.51,3.02-8.62,6.41-13.47,8.93-1.76,.92-3.57,1.54-5.41,2.06,1.04-.74,1.97-1.56,2.85-2.51,1.81-1.96,3.8-4.49,4.63-7.05,.11-.32-.34-.66-.59-.38-1.39,1.58-2.39,3.53-3.65,5.22-2.13,2.88-4.42,4.22-7.59,5.65-.09,.04-.09,.13-.08,.21-1.84,.46-3.68,.95-5.48,1.64-2.92,1.12-5.4,2.91-7.59,5.08,2.13-3.91,3.99-7.94,5.23-12.25,.03-.13,.06-.25,.1-.38,.93-1.54,1.78-3.11,2.62-4.67,1.76-2.13,4.06-4.03,6.08-5.69,.04-.03,.07-.05,.11-.07,4.37-1.69,9.25,.74,13.71-.49,.29-.08,.29-.55-.04-.54-3.6,.04-7.63-1.12-11.21-.47,3.28-1.54,7.13-1.81,10.64-2.44,.23-.04,.2-.4-.03-.41-4.37-.06-9.22,.44-12.9,3.06-1.38,.98-3,2.21-4.47,3.61,2.17-3.89,4.56-7.6,8.32-10.58,.24-.19,.51-.34,.76-.52,1.42-.58,3.03-.87,4.7-1.01,5.93,.9,11.33,1.98,16.61,4.94,3.27,1.83,6.67,3.02,10.35,1.72,.37-.13,.23-.79-.16-.77-2.6,.19-4.85,.18-7.32-.77-1.99-.77-3.78-2.02-5.74-2.88-3.54-1.53-7.23-1.99-10.99-2.36,2.52,.01,5.03,.26,7.12,.38,4.29,.25,9.09,.55,13.07-1.34,.39-.18,.16-.75-.24-.68-3,.49-5.86,.71-8.74,.78,4.59-1.06,8.77-4.75,12.18-7.57,.21-.17-.04-.53-.27-.39-5.13,3.01-9.42,6.99-15.57,7.69-.17,.02-.23,.15-.2,.29-1.46-.03-2.94-.07-4.45-.13-2.12-.09-4.75-.19-7.19,.18,5.59-2.87,11.97-3.81,17.61-6.64,.44-.22,.19-.88-.28-.8-2.23,.36-4.54,.91-6.85,1.6,.79-.56,1.58-1.13,2.36-1.72,.04,0,.09,0,.13-.03,4.25-3.14,8.93-5.33,14.29-5.16,.28,0,.33-.36,.08-.46-3.84-1.54-7.64,.18-10.95,2.44,1.15-1.28,2.11-2.69,2.73-4.36,.11-.3-.32-.47-.49-.23-2.91,4.07-6.67,6.75-10.15,10.14-4.8,1.62-9.5,3.89-13.32,6.65-4.51,3.26-7.76,8.28-10.32,13.49,1.09-4.43,2.31-8.71,5.04-12.72,4.67-6.87,12.14-10.46,18.63-15.26,.46-.34-.07-1.03-.55-.8-6.43,3.01-12.57,7.26-17.33,12.56,.93-1.87,1.81-3.76,2.78-5.62,.76-1.47,1.64-2.77,2.57-3.99,2.67-2.3,6.73-4.27,10.09-5.11,3.05-.77,6.3-.64,9.21-1.93,.36-.16,.12-.63-.21-.6-4.97,.42-11.24,1.26-15.83,4.12,1.41-1.29,2.93-2.5,4.66-3.61,.24-.16,.14-.62-.18-.51-9.13,3.17-12.23,13.32-16.1,21.3-2.35,3.92-3.6,8.28-4.58,12.88-1.2,5.64-2.9,10.82-5.34,15.89,.59-3.5,.31-7.23-.61-10.36-.84-2.84-2.29-5.49-3.55-8.19,.08-.09,.13-.19,.12-.32-.83-7.42,2.6-13.55,8.47-17.88,.27-.2-.04-.54-.31-.45-3.65,1.32-6.08,4.82-7.71,8.18-.73,1.51-1.29,3.21-1.53,4.87-.03,.24-.18,1.53-.22,2.76-1.19-3.87-.34-7.64,.71-11.52,.11-.4-.5-.74-.69-.32-2.55,5.32-2.02,10.5,.37,15.75,1.92,4.22,3.91,7.99,4.14,12.74,.15,3.08-.25,6.17-1.41,8.98-.64,1.12-1.3,2.22-1.98,3.31-.72,1.03-1.41,2.08-2.08,3.16-.36,.53-.7,1.07-1.08,1.6-.96,1.33-1.83,2.73-2.8,4.05-1.22,1.66-1.53,3.65-2.99,5.23-.3,.33,.16,.84,.47,.51,.01-.02,.02-.04,.04-.05,.12,.14,.36,.2,.51,0,1.16-1.5,2.23-3.09,3.28-4.71,2.8-3.23,6.03-6.2,9.75-8.32,3.58-2.04,7.72-2.59,11.43-4.29,.27-.13,.1-.5-.17-.47-5.85,.64-12.96,3.37-17.68,7.84,4.18-6.49,8.74-12.55,16.79-14.57,.21-.05,.42-.12,.62-.17,3.92-.15,8.34,1.27,11.47,2.72,3.02,1.4,6.7,3.07,9.83,1.1,.29-.18,.16-.67-.21-.58-5.03,1.14-8.54-1.46-13.12-2.97-1.6-.53-3.5-.88-5.41-.98,2.5-.7,5-1.47,7.44-2.43,1.08,.08,2.2,.14,3.33,.17Z"/><g><path class="cls-46" d="M318.97,194.38c.7-3.19,1-6.44,1.19-9.7,.38-6.54,.27-13.2,2.22-19.53,1.54-4.96,4.08-9.71,4.56-14.96,.19-2.09-.33-4.15-1.4-5.94-1.94-3.27-4.48-5.44-8.24-6.27-2.04-.45-4.07,.34-5.83,1.35-4.73,2.71-7.87,7.66-12.02,11.12-9.6,8.02-23.16,10.01-31.41,19.86-3.62,4.32-5.6,9.93-5.3,15.57,.28,5.31,2.82,10.21,6.1,14.3,3.83,4.77,8.82,8.51,14.24,11.31,5.62,2.9,11.65,3.65,17.71,1.68,5.65-1.84,11.49-5.61,14.97-10.49,1.7-2.37,2.59-5.47,3.2-8.29Z"/><path class="cls-25" d="M312.15,200.28c3.92-6.15,3.96-11.73,2.62-18.69-.47-2.43-.74-4.84,.1-7.19,1.2-3.37,3.05-6.51,4.65-9.7,2.67-5.31,7.82-13.99,3.6-19.9-7.03-9.84-16.65,1.58-21.13,7.2-.12,.16-.25,.3-.38,.45-.03,.03-.06,.06-.09,.09-2.16,2.1-4.16,4.4-6.69,6.09-3.71,2.48-8.32,3.25-12.28,5.26-6.93,3.51-13.78,10.51-14.84,18.54-1.73,13.08,12.13,23.09,23.15,26.31,5.28,1.54,11.26,.87,15.79-2.34,2.25-1.6,4.03-3.79,5.51-6.11Z"/><path class="cls-27" d="M303.55,191.01c-4.92,6.87-13.15,9.34-18.42,5.57-3.25-2.33-4.64-6.44-3.99-10.98h0c.12-2.42,1.47-5.64,3.35-8.28,4.92-6.87,13.16-9.36,18.43-5.59,1.68,1.21,2.86,2.93,3.51,4.92,1.39,4.21,.46,9.7-2.88,14.37Z"/><path class="cls-6" d="M299.62,176.47c.38,1.32-1.22,2.95-3.58,3.63-2.36,.68-4.58,.17-4.96-1.16-.38-1.32,1.22-2.94,3.58-3.63,2.36-.68,4.58-.17,4.96,1.16Z"/><path class="cls-30" d="M303.55,191.01c-4.92,6.87-13.18,9.37-18.44,5.6-3.25-2.33-4.61-6.49-4.02-10.95,3.9,4.08,11.3,8.98,19.25-.57,2.86-3.43,4.8-6.21,6.09-8.45,1.39,4.21,.46,9.69-2.88,14.36Z"/></g><g><path class="cls-31" d="M300.53,138.41c2.69-3.39,3.93-7.8,5.64-11.71,.99-2.27,1.58-4.7,2.18-7.09,.54-2.16,.69-5.23,2.78-6.47,.27-.16,.07-.55-.22-.43-4.84,1.94-10.15,2.16-14.97,4.19-1.55,.65-2.75,1.57-3.22,3.24-.21,.77-.21,1.6-.28,2.39-.17,1.93-.9,3.31-2.38,4.61-1.15,1.01-2.84,1.79-4.28,2.26-1.1,.36-2.31,.39-3.39,.82-1.77,.71-2.54,2.08-2.75,3.93-.25,2.17,.4,4.39,.3,6.58-.13,2.81-.77,5.59-1.59,8.27-.31,.2-.62,.39-.91,.64-.24,.2,.09,.56,.33,.36,.14-.12,.29-.22,.44-.32,.07,.15,.32,.19,.39-.02,.03-.1,.06-.21,.1-.31,1.6-.97,3.42-1.32,5.29-1.63,2.08-.34,4.11-.83,6.08-1.56,3.9-1.44,7.88-4.5,10.45-7.74Z"/><path class="cls-43" d="M294.89,139.89c.22-.15,.01-.52-.23-.45-2.12,.6-4.18,1.09-6.35,1.52-.98,.2-1.91,.47-2.77,.86,1.72-1.76,3.56-3.4,5.33-5.11,.02,.05,.07,.08,.12,.04,1.79-1.15,3.66-1.8,5.68-2.38,1.51-.43,3.1-.89,4.23-2.04,.16-.17-.02-.43-.23-.34-1.85,.82-3.68,1.48-5.61,2.11-1.13,.37-2.18,.83-3.1,1.51,.23-.23,.46-.45,.68-.68,1.76-1.84,3.21-3.9,4.45-6.09,1.07-.75,2.08-1.58,3.16-2.31,1.31-.89,2.77-1.47,4.11-2.3,.21-.13,.11-.48-.15-.42-2.29,.53-4.66,2.06-6.46,3.78,.18-.35,.37-.69,.54-1.04,.82-1.68,1.63-3.3,2.86-4.73,1.29-1.5,3.2-2.37,4.58-3.8,.22-.23-.08-.53-.32-.35-2.86,2.02-5.27,3.57-6.96,6.73-.45,.84-.88,1.66-1.32,2.48,.05-.51,.09-1.03,.1-1.56,.05-2.28,.06-4.32,.94-6.47,.07-.17-.18-.33-.31-.2-2.42,2.43-1.11,6.65-1.7,9.96-1.15,2.01-2.41,3.93-4.06,5.73-.09,.1-.18,.18-.27,.28,.12-.43,.22-.88,.28-1.35,.28-2.02,.27-4.47-.02-6.49-.03-.2-.31-.19-.37-.02-.53,1.46-.23,3.22-.21,4.75,.02,1.65-.2,3.14-1.01,4.48-2.01,1.99-4.14,3.87-6.06,5.97-.03,.04-.07,.07-.1,.11,.19-.67,.3-1.39,.34-2.14,.12-2.23-.03-4.8-.38-7.01-.04-.23-.35-.22-.42-.02-.6,1.76-.15,3.84,0,5.65,.13,1.72,0,3.28-.65,4.73-2.12,2.28-4.32,4.57-6.26,6.97-.07,.08,.05,.21,.13,.15,2.72-1.88,4.86-4.69,7.06-7.15,3.26-2.06,7.53-1.15,10.7-3.36Z"/></g><g><path class="cls-31" d="M417.75,110.72c3.85,1.97,8.42,2.32,12.59,3.24,2.42,.53,4.92,.63,7.38,.74,2.22,.1,5.27-.35,6.89,1.46,.21,.23,.55-.04,.38-.3-2.85-4.36-4.12-9.53-7.05-13.85-.95-1.4-2.08-2.39-3.81-2.52-.8-.06-1.62,.11-2.4,.19-1.93,.21-3.43-.23-4.99-1.42-1.21-.93-2.31-2.43-3.06-3.75-.57-1.01-.83-2.19-1.47-3.16-1.05-1.6-2.54-2.08-4.39-1.93-2.18,.18-4.23,1.25-6.39,1.59-2.78,.42-5.64,.34-8.43,.06-.26-.26-.51-.53-.81-.76-.25-.2-.53,.2-.29,.39,.15,.12,.27,.24,.41,.37-.14,.09-.12,.35,.09,.38,.11,.01,.21,.02,.33,.03,1.27,1.38,1.96,3.09,2.63,4.86,.74,1.97,1.62,3.86,2.73,5.66,2.18,3.54,5.96,6.84,9.65,8.72Z"/><path class="cls-43" d="M415.19,105.48c.19,.18,.51-.09,.4-.31-1.01-1.96-1.89-3.89-2.74-5.93-.39-.92-.83-1.78-1.39-2.54,2.07,1.34,4.03,2.82,6.06,4.23-.04,.03-.07,.08-.02,.13,1.48,1.52,2.48,3.23,3.45,5.1,.72,1.4,1.48,2.87,2.83,3.75,.2,.13,.42-.1,.28-.3-1.17-1.66-2.18-3.32-3.17-5.09-.59-1.04-1.24-1.97-2.09-2.74,.27,.18,.53,.36,.8,.54,2.15,1.36,4.45,2.38,6.85,3.17,.95,.9,1.96,1.73,2.89,2.64,1.13,1.11,1.98,2.43,3.06,3.57,.17,.18,.49,.02,.38-.23-.97-2.14-2.94-4.16-4.97-5.59,.37,.11,.75,.23,1.12,.33,1.8,.47,3.56,.95,5.19,1.88,1.73,.97,2.95,2.67,4.62,3.75,.26,.17,.5-.18,.28-.38-2.54-2.4-4.53-4.47-7.96-5.5-.91-.28-1.81-.54-2.69-.81,.51-.05,1.03-.12,1.55-.21,2.25-.4,4.25-.79,6.53-.35,.18,.04,.28-.24,.13-.34-2.86-1.9-6.74,.21-10.1,.29-2.2-.73-4.33-1.59-6.42-2.86-.11-.07-.22-.14-.33-.21,.45,.04,.91,.04,1.37,.01,2.04-.12,4.44-.61,6.37-1.29,.19-.07,.12-.34-.06-.37-1.54-.23-3.21,.41-4.7,.73-1.61,.34-3.12,.42-4.59-.11-2.35-1.58-4.61-3.31-7.04-4.77-.04-.02-.08-.05-.13-.08,.7,.06,1.42,.02,2.17-.09,2.21-.32,4.71-.97,6.8-1.75,.21-.08,.14-.39-.06-.42-1.84-.24-3.79,.61-5.54,1.1-1.66,.46-3.22,.65-4.76,.29-2.66-1.64-5.33-3.34-8.07-4.77-.09-.05-.19,.09-.12,.16,2.38,2.3,5.56,3.84,8.4,5.52,2.66,2.8,2.61,7.16,5.4,9.84Z"/></g><g><path class="cls-31" d="M409.16,26.69c2.31-3.65,3.09-8.17,4.38-12.24,.75-2.36,1.07-4.84,1.42-7.28,.31-2.2,.13-5.27,2.08-6.73,.25-.19,0-.55-.27-.41-4.6,2.44-9.87,3.22-14.44,5.75-1.48,.81-2.57,1.86-2.86,3.56-.13,.79-.04,1.62-.03,2.41,.03,1.94-.54,3.39-1.87,4.83-1.04,1.12-2.64,2.08-4.02,2.7-1.06,.47-2.25,.63-3.28,1.17-1.69,.89-2.3,2.34-2.32,4.2-.02,2.18,.86,4.33,1,6.51,.17,2.8-.18,5.64-.71,8.4-.29,.23-.57,.46-.83,.73-.22,.23,.15,.55,.36,.32,.13-.13,.27-.25,.4-.37,.08,.14,.34,.15,.39-.06,.02-.11,.04-.21,.06-.32,1.49-1.13,3.26-1.67,5.08-2.18,2.03-.56,4-1.26,5.89-2.19,3.73-1.85,7.36-5.31,9.57-8.8Z"/><path class="cls-43" d="M403.71,28.76c.2-.17-.04-.52-.28-.42-2.05,.83-4.04,1.53-6.15,2.18-.95,.3-1.85,.67-2.66,1.15,1.53-1.93,3.18-3.76,4.77-5.65,.02,.04,.07,.07,.13,.03,1.65-1.33,3.44-2.17,5.4-2.97,1.46-.59,2.99-1.21,3.99-2.47,.15-.18-.06-.43-.27-.31-1.76,1.01-3.51,1.86-5.36,2.69-1.09,.49-2.08,1.06-2.92,1.83,.2-.25,.41-.5,.61-.75,1.56-2.02,2.78-4.21,3.78-6.53,.98-.86,1.9-1.79,2.9-2.63,1.21-1.02,2.6-1.75,3.84-2.72,.19-.15,.06-.49-.19-.4-2.22,.77-4.42,2.54-6.02,4.44,.14-.36,.3-.72,.43-1.09,.64-1.75,1.28-3.45,2.35-5,1.13-1.63,2.93-2.69,4.15-4.26,.19-.25-.13-.52-.35-.32-2.63,2.31-4.87,4.1-6.21,7.43-.36,.88-.7,1.75-1.05,2.6,0-.52-.02-1.03-.06-1.56-.19-2.28-.39-4.3,.25-6.53,.05-.18-.21-.3-.33-.16-2.16,2.67-.41,6.73-.64,10.08-.93,2.12-1.98,4.16-3.44,6.13-.08,.1-.16,.2-.24,.31,.08-.44,.12-.9,.14-1.37,.07-2.04-.2-4.48-.7-6.46-.05-.2-.33-.15-.37,.02-.38,1.51,.11,3.23,.29,4.74,.19,1.64,.13,3.14-.53,4.56-1.79,2.2-3.71,4.28-5.4,6.57-.03,.04-.06,.08-.09,.12,.12-.69,.15-1.42,.11-2.17-.12-2.23-.53-4.77-1.11-6.93-.06-.22-.37-.18-.42,.03-.41,1.81,.26,3.83,.59,5.62,.31,1.7,.36,3.26-.15,4.77-1.87,2.49-3.81,5-5.49,7.59-.06,.08,.07,.2,.15,.13,2.5-2.15,4.34-5.18,6.27-7.85,3.03-2.4,7.37-1.94,10.29-4.47Z"/></g><g><path class="cls-11" d="M373.77,121.84c-.61-.62-1.29-1.18-2.05-1.67-4.01-2.58-9.23-2.63-13.36-.32-1.26,.7-2.38,1.61-3.3,2.72-.77,.93-1.47,1.89-2.27,2.78-2.26-1.41-4.36-3.09-6.91-3.99-2.14-.76-4.57,0-6.23,1.44-1.72,1.49-2.75,3.69-3.45,5.81-.75,2.25-1.2,4.67-1.18,7.04,.01,.98,.08,1.95,.21,2.91,.57,4.09,2.3,7.98,5.22,10.96,3.53,3.59,8.47,5.32,13.45,5.31,5.72-.02,11.37-2.13,16.1-5.26,2.3-1.52,4.48-3.38,5.99-5.7,1.73-2.66,2.3-6.11,2.32-9.23,.02-4.59-1.27-9.52-4.53-12.8Z"/><path class="cls-32" d="M378.3,134.64c-.01,3.12-.59,6.57-2.32,9.23-1.51,2.32-3.69,4.18-5.99,5.7-4.73,3.13-10.38,5.24-16.1,5.26-4.98,.02-9.92-1.71-13.45-5.31-2.92-2.98-4.65-6.88-5.22-10.96,4.96,5.82,11.61,10.24,19.12,6.48,9.17-4.59,15.59-15.02,19.42-23.2,3.26,3.28,4.56,8.21,4.53,12.8Z"/><path class="cls-12" d="M344.27,127.28c-.12-.51-.59-.71-1.07-.71-.94-.39-2.03,.16-2.7,.94-.81,.94-.91,2.21-.21,3.24,1.06,1.57,2.88-.47,3.46-1.44,.34-.58,.68-1.34,.53-2.03Z"/><path class="cls-46" d="M362.31,120.5c0-.1-.17-.17-.22-.06-.56,1.26-1.3,2.2-2.68,2.53-.59,.14-1.16,.25-1.71,.41,.88-.75,1.48-1.86,1.88-2.91,.59-1.52,.98-3.57,.17-5.09-.04-.08-.17-.06-.19,.02-.34,1.62-1.1,3.18-2.09,4.5-.57,.77-1.27,1.44-2.08,1.94-.37,.22-.76,.37-1.18,.48-.22,.06-.46,.08-.69,.09-.07,0-.13,.01-.17,.02-.31-1.2-.51-2.42-.69-3.64-.28-1.91-.57-3.82-.79-5.73-.12-1.07-.27-2.88-1.33-3.47-.86-.48-2.12,.59-2.82,.95-.04,.02-.06,.08-.05,.12,.74,2.41,1.48,4.83,2.11,7.27,.31,1.19,.57,2.38,.84,3.58,.04,.18,.08,.37,.12,.55-.13,.04-.26,.09-.39,.16-1.21,0-2.34-.3-3.38-1.02-1.21-.83-2.16-2.01-3.18-3.04-.06-.06-.13,0-.14,.06-.47,3.6,2.3,8.6,6.34,8.05-1.59,.87-3.28,1.41-5.01,1.98-.06,.02-.09,.1-.04,.15,.91,.75,2,.92,3.14,.74,.67-.1,1.31-.27,1.96-.43,.34-.08,.68-.16,1.02-.22,.21-.04,.41-.05,.62-.07,.07,0-.02,.11-.05,.18-.41,1-.83,2.01-1.05,3.07-.14,.69-.21,1.6,.45,2.05,.03,.02,.08,.01,.1-.01,.88-.98,.8-2.62,.99-3.88,.79,1.44,1.52,3.57,3.5,3.4,.05,0,.09-.04,.09-.09-.04-1.56-.82-2.95-1.41-4.35,1.43,.71,2.78,1.28,4.39,.65,1.15-.45,2.3-1.6,2.36-2.88,0-.04-.04-.1-.08-.1-1.35-.18-2.67,.34-4.01,.07,2.6-1.17,5.54-2.76,5.36-6.04Z"/></g><g><path class="cls-11" d="M169.77,26.84c-.61-.62-1.29-1.18-2.05-1.67-4.01-2.58-9.23-2.63-13.36-.32-1.26,.7-2.38,1.61-3.3,2.72-.77,.93-1.47,1.89-2.27,2.78-2.26-1.41-4.36-3.09-6.91-3.99-2.14-.76-4.57,0-6.23,1.44-1.72,1.49-2.75,3.69-3.45,5.81-.75,2.25-1.2,4.67-1.18,7.04,.01,.98,.08,1.95,.21,2.91,.57,4.09,2.3,7.98,5.22,10.96,3.53,3.59,8.47,5.32,13.45,5.31,5.72-.02,11.37-2.13,16.1-5.26,2.3-1.52,4.48-3.38,5.99-5.7,1.73-2.66,2.3-6.11,2.32-9.23,.02-4.59-1.27-9.52-4.53-12.8Z"/><path class="cls-32" d="M174.3,39.64c-.01,3.12-.59,6.57-2.32,9.23-1.51,2.32-3.69,4.18-5.99,5.7-4.73,3.13-10.38,5.24-16.1,5.26-4.98,.02-9.92-1.71-13.45-5.31-2.92-2.98-4.65-6.88-5.22-10.96,4.96,5.82,11.61,10.24,19.12,6.48,9.17-4.59,15.59-15.02,19.42-23.2,3.26,3.28,4.56,8.21,4.53,12.8Z"/><path class="cls-12" d="M140.27,32.28c-.12-.51-.59-.71-1.07-.71-.94-.39-2.03,.16-2.7,.94-.81,.94-.91,2.21-.21,3.24,1.06,1.57,2.88-.47,3.46-1.44,.34-.58,.68-1.34,.53-2.03Z"/><path class="cls-46" d="M158.31,25.5c0-.1-.17-.17-.22-.06-.56,1.26-1.3,2.2-2.68,2.53-.59,.14-1.16,.25-1.71,.41,.88-.75,1.48-1.86,1.88-2.91,.59-1.52,.98-3.57,.17-5.09-.04-.08-.17-.06-.19,.02-.34,1.62-1.1,3.18-2.09,4.5-.57,.77-1.27,1.44-2.08,1.94-.37,.22-.76,.37-1.18,.48-.22,.06-.46,.08-.69,.09-.07,0-.13,.01-.17,.02-.31-1.2-.51-2.42-.69-3.64-.28-1.91-.57-3.82-.79-5.73-.12-1.07-.27-2.88-1.33-3.47-.86-.48-2.12,.59-2.82,.95-.04,.02-.06,.08-.05,.12,.74,2.41,1.48,4.83,2.11,7.27,.31,1.19,.57,2.38,.84,3.58,.04,.18,.08,.37,.12,.55-.13,.04-.26,.09-.39,.16-1.21,0-2.34-.3-3.38-1.02-1.21-.83-2.16-2.01-3.18-3.04-.06-.06-.13,0-.14,.06-.47,3.6,2.3,8.6,6.34,8.05-1.59,.87-3.28,1.41-5.01,1.98-.06,.02-.09,.1-.04,.15,.91,.75,2,.92,3.14,.74,.66-.1,1.31-.27,1.96-.43,.34-.08,.68-.16,1.02-.22,.21-.04,.41-.05,.62-.07,.07,0-.02,.11-.05,.18-.41,1-.83,2.01-1.05,3.07-.14,.69-.21,1.6,.45,2.05,.03,.02,.08,.01,.1-.01,.88-.98,.8-2.62,.99-3.88,.79,1.44,1.52,3.57,3.5,3.4,.05,0,.09-.04,.09-.09-.04-1.56-.82-2.95-1.41-4.35,1.43,.71,2.78,1.28,4.39,.65,1.15-.45,2.3-1.6,2.36-2.88,0-.04-.04-.1-.08-.1-1.35-.18-2.67,.34-4.01,.07,2.6-1.17,5.54-2.76,5.36-6.04Z"/></g><g class="cls-2"><g><path class="cls-11" d="M136.23,269.22c-.93-.94-1.97-1.79-3.12-2.54-6.08-3.91-14.02-4-20.29-.49-1.91,1.06-3.61,2.45-5.01,4.13-1.18,1.41-2.24,2.87-3.44,4.23-3.43-2.14-6.62-4.7-10.5-6.06-3.25-1.15-6.95,0-9.47,2.19-2.61,2.27-4.17,5.6-5.24,8.83-1.13,3.41-1.82,7.1-1.79,10.7,.02,1.48,.12,2.96,.32,4.42,.87,6.21,3.49,12.12,7.93,16.65,5.36,5.46,12.87,8.08,20.43,8.06,8.68-.03,17.27-3.23,24.44-7.99,3.49-2.31,6.8-5.13,9.1-8.66,2.63-4.04,3.5-9.27,3.52-14.02,.04-6.97-1.93-14.46-6.89-19.44Z"/><path class="cls-32" d="M143.12,288.66c-.02,4.74-.89,9.97-3.52,14.02-2.3,3.53-5.61,6.35-9.1,8.66-7.18,4.76-15.76,7.96-24.44,7.99-7.56,.02-15.07-2.6-20.43-8.06-4.44-4.53-7.06-10.44-7.93-16.65,7.54,8.84,17.62,15.55,29.04,9.84,13.93-6.97,23.67-22.81,29.49-35.24,4.96,4.98,6.92,12.47,6.89,19.44Z"/><path class="cls-12" d="M91.43,277.48c-.17-.77-.9-1.08-1.62-1.08-1.42-.59-3.08,.25-4.1,1.43-1.22,1.42-1.38,3.36-.32,4.92,1.61,2.38,4.38-.72,5.25-2.19,.52-.88,1.03-2.04,.8-3.09Z"/><path class="cls-46" d="M118.83,267.19c-.01-.16-.25-.26-.33-.09-.85,1.92-1.97,3.35-4.07,3.85-.9,.21-1.76,.38-2.6,.63,1.33-1.14,2.25-2.83,2.86-4.42,.89-2.32,1.48-5.43,.26-7.73-.06-.12-.25-.09-.28,.04-.51,2.46-1.68,4.82-3.17,6.83-.86,1.16-1.92,2.19-3.17,2.94-.55,.33-1.16,.57-1.79,.73-.34,.09-.69,.12-1.04,.14-.11,0-.19,.02-.26,.03-.47-1.82-.77-3.68-1.05-5.53-.43-2.9-.87-5.8-1.2-8.71-.19-1.62-.41-4.37-2.02-5.27-1.3-.73-3.22,.9-4.29,1.44-.06,.03-.09,.12-.07,.18,1.12,3.67,2.24,7.33,3.2,11.05,.47,1.8,.86,3.62,1.27,5.44,.06,.28,.12,.56,.19,.83-.2,.07-.4,.14-.6,.25-1.84,.01-3.55-.46-5.13-1.55-1.83-1.26-3.28-3.05-4.83-4.62-.09-.08-.2-.01-.21,.09-.71,5.47,3.5,13.06,9.63,12.23-2.42,1.32-4.99,2.14-7.61,3.01-.09,.03-.14,.15-.06,.22,1.38,1.13,3.03,1.39,4.77,1.13,1.01-.16,2-.41,2.99-.66,.51-.13,1.03-.24,1.55-.33,.31-.06,.62-.08,.93-.1,.11,0-.03,.17-.08,.27-.63,1.52-1.27,3.05-1.59,4.66-.21,1.05-.32,2.43,.68,3.11,.05,.03,.12,.02,.16-.02,1.33-1.48,1.21-3.98,1.51-5.89,1.21,2.19,2.31,5.42,5.31,5.16,.07,0,.14-.06,.14-.14-.05-2.37-1.24-4.47-2.15-6.61,2.18,1.08,4.22,1.95,6.67,.99,1.75-.68,3.5-2.43,3.58-4.37,0-.07-.05-.15-.12-.16-2.05-.28-4.06,.51-6.09,.11,3.95-1.78,8.41-4.19,8.14-9.17Z"/></g></g><g><path class="cls-40" d="M260.35,280.06c.68-1,1.22-2.11,1.76-3.2,.61-1.25,.6-1.03,1.79-.78,1.52,.34,3.07-.43,4.25-1.3,1.94-1.4,3.2-3.76,3.43-6.17,4.29,.47,7.66-7.48,3.8-8.94,2.44-.81,4.72-2.28,4.7-5.06,0-1.74-1.27-2.83-2.77-3.26,1.46-.66,2.69-1.8,2.24-3.32-.38-1.28-1.34-2.01-2.44-2.29,.74-.88,1.3-1.92,1.53-2.91,.74-2.94-2.09-3.22-4.25-3.08,1.59-1.56,3.54-4.06,2.47-5.99-1.11-1.96-3.79-1.47-5.77-.94,.73-1.58,1.87-3.47,1.55-5.06-.3-1.53-2.78-1.27-3.8-1.22-1.03,.05-.95-2.45-1.13-3.25-.19-.84-.64-1.48-1.23-2.01-.21-.18-.43-.38-.67-.53-2.16-1.43-4.74-.75-7.02-.08-1.44,.42-2.85,.85-4.34,1.04-2.5,.3-3.27-1.05-4.84-2.58-1.75-1.72-4.27-1.47-6.38-.65-2.05,.83-4.07,2.47-5.39,4.47-1.02,1.51-1.65,3.26-1.59,5.01-4.13-3.84-12.13,.82-10.8,6.31-.48,.02-.98,.26-1.46,.74-1.35,1.39-.71,2.98,.41,4.11-1.68,.43-3.17,1.24-3.92,2.99-.08,.19-.12,.41-.15,.67-.12,1.93,1.45,5.55,2.77,5.75-3.11-.49-6.82,.15-9.4,1.96-2.22,1.54-2.02,4.44-.6,6.4,.82,1.16,2.1,1.97,3.29,2.7,.19,.11,1.99,.9,1.84,1.14-.48,.75-.95,1.46-1.38,2.23-1.26,2.25-.82,4.79,1.74,5.83,2.01,.81,4.71-.45,6.86-1.51-.93,1.29-1.28,2.84-.29,4.39,.68,1.07,1.56,1.83,2.68,2.48,.63,.36,1.35,.53,2.06,.72,1.34,.28,1.13-.2,.8,1.36-.84,3.88,.69,7.39,4.94,7.75,3.54,.32,6.7-2.16,9.87-3.56-.97,2.13,.18,3.67,2.89,4.39,2.98,.8,5.65,.43,7.92-.9,1.53-.87,2.88-2.18,4.04-3.84Z"/><g><path class="cls-22" d="M231.5,258c.67-.61,.99-1.36,.75-2.25-.18-.69-1.63-2.12-2.36-1.71-7.54,4.22-15.82,6.58-24.07,9-8.19,2.4-16.09,5.71-24.39,7.75-.92,.23-4.33,1.32-4.01-1.23,.08-.69,.5-1.38,.82-1.98,.82-1.53,2.09-2.88,3.36-4.04,3.31-3.06,7.66-5.08,11.48-7.42,3.37-2.06,6.3-4.58,9.17-7.27,3.1-2.9,6.51-5.92,9.16-9.24,4.78-5.98,10.99-14.35,10.53-22.4-.28-4.8-4.17-5.85-8.02-7-2.62-.78-5.76,.83-4.58,3.11-3.02,7.12-5.92,14.22-10.11,20.77-4.65,7.27-10.91,13.24-17.54,18.68-6.47,5.31-13.27,10.17-19.33,15.98-3.86,3.7-9.16,8.57-9.82,14.21-.38,3.21,2.45,9.2,6.35,8.25,2.3-.56,4.45-3.25,6.29-4.62,3.43-2.54,7.95-4.19,11.78-6.04,8.05-3.88,16.26-7.41,24.47-10.91,6.72-2.86,13.27-5.59,20.33-7.53,3.22-.89,7.17-1.78,9.7-4.09Z"/><path class="cls-40" d="M253.11,249.57c2.65,.48,5.53-.33,6.25-3.31,1.45-5.86-3.91-10.05-8.11-13.19,1.8-.21,3.53-.19,5.25-.4,1.46-.16,2.92-.52,4.35-1.34,2.66-1.53,4.86-4.07,5.62-7.07,.26-1.08,.25-2.06,.01-2.97-1.12-4.77-7.97-7.7-12.07-9.76,6.74-2.92,12.39-12.01,7.31-18.65-2.66-3.49-7.92-4.69-12.02-4.86-3.02-.12-6.21,.4-9.12,1.54,2.33-2.19,3.98-4.74,3.96-8.59-.03-4.49-4.76-6.93-8.68-6.82-4.54,.15-9.31,1.78-13.29,3.9-3.44,1.81-6.96,4.21-8.58,7.83-.65-3.18-2.98-7.59-6.16-7.86-.81-.08-1.69,.14-2.62,.71-1.58,.98-2.75,2.68-3.5,4.65-2.35-.78-4.75-1.07-6.64-.43-1.92,.62-2.55,3-1.55,4.6,.44,.7,1.16,1.11,1.97,1.37-2.76,1.74-4.7,4.79-3.92,8.16,.59,2.57,2.42,6,4.98,7.34-3.08,.87-5.43,3.03-4.43,6.94,1.18,4.7,5.53,8.34,10.29,8.97-1.44,3.3,.08,6.17,3.04,8.14,2.1,1.39,4.69,2.14,7.11,2.71,1.68,.38,6.24-.59,4.76,2.42-.15,.29-.27,.57-.38,.84-.13,.28-.22,.53-.31,.79-.9,2.53-.31,4.24,2.15,6.46,.47,.43,.99,.79,1.56,1.1,2.32,1.24,5.36,1.5,7.77,.53-1.5,4.97,9.83,13.28,12.78,14.91,.48,.26,.97,.45,1.53,.55,.29,.07,.57,.12,.88,.13,.61,.09,1.2,.05,1.78-.06,.31-.06,.59-.12,.89-.2,.3-.08,.61-.18,.88-.29,.29-.09,.53-.21,.79-.34,3.68-1.74,6.57-5.65,5.48-8.45Z"/><path class="cls-28" d="M251.43,282.08c-2.58-1.73-1.82-4.26-.62-6.52,.14-.29-.12-.59-.41-.58-4.74,.29-9.23-3.79-4.27-7.6,.15-.13,.24-.39,.1-.56-1.05-1.26-2.37-1.93-3.68-2.86-1.65-1.17-1.27-3.37-.14-5.19,.29,.07,.57,.12,.88,.13,.58,.05,1.19,.03,1.78-.06,.31-.06,.59-.12,.89-.2,.3-.08,.61-.18,.88-.29,.29-.09,.53-.21,.79-.34,3.68-1.74,6.57-5.65,5.48-8.45,2.65,.48,5.53-.33,6.25-3.31,1.45-5.86-3.91-10.05-8.11-13.19,1.8-.21,3.53-.19,5.25-.4-3.92-2.09-7.19-5.4-6.55-10.25,.06-.45-.5-.59-.73-.22-1.38,2.47-3.35,4.98-6.31,5.44-3.48,.53-4.8-1.87-5.08-4.69-.19-2.12,.19-4.45,.72-5.97,.14-.43-.34-.71-.66-.4-2.14,2.16-4.46,4.87-7.69,5.22-3.68,.37-3.24-4.01-2.43-5.86,.64-1.48,1.85-2.75,3.11-3.7,.33-.23,.04-.82-.34-.63-4.08,2.1-9.53,2.89-13.78,.87-6.38-3.06-1.53-10.98,3.39-12.37,.45-.13,.19-.76-.24-.65-4.45,1.55-9.96-.03-13.63-2.79-4.52-3.43-3.21-9.79-1.16-14.15,.66-1.33,1.57-2.93,2.7-4.52-.81-.08-1.69,.14-2.62,.71-1.58,.98-2.75,2.68-3.5,4.65-2.35-.78-4.75-1.07-6.64-.43-1.92,.62-2.55,3-1.55,4.6,.44,.7,1.16,1.11,1.97,1.37-2.76,1.74-4.7,4.79-3.92,8.16,.59,2.57,2.42,6,4.98,7.34-3.08,.87-5.43,3.03-4.43,6.94,1.18,4.7,5.53,8.34,10.29,8.97-1.44,3.3,.08,6.17,3.04,8.14,2.1,1.39,4.69,2.14,7.11,2.71,1.68,.38,6.24-.59,4.76,2.42-.15,.29,.05,1.03-.06,1.3-.11,.27,.21,1.11,.03,1.23h-.02c-1.2,2.11-.64,3.79,1.83,6.02,.46,.43,.83,.56,1.4,.87-.12,1.94,1.37,5.43,2.68,5.64-3.11-.49-6.86,.09-9.44,1.9-2.22,1.54-2.04,4.42-.62,6.38,.82,1.16,2.09,1.95,3.28,2.68,.19,.12,1.99,.89,1.84,1.14-.48,.75-.95,1.46-1.39,2.23-1.26,2.25-.82,4.79,1.74,5.83,2.01,.81,4.71-.45,6.86-1.52-.93,1.29-1.28,2.83-.29,4.39,.68,1.07,1.56,1.83,2.68,2.48,.63,.36,1.35,.53,2.06,.72,1.34,.28,1.13-.2,.8,1.36-.84,3.88,.69,7.39,4.94,7.75,3.54,.32,6.7-2.16,9.87-3.56-.97,2.13,.18,3.67,2.89,4.39,2.98,.8,5.65,.43,7.92-.9-1.69-.24-3.28-.72-4.88-1.82Z"/><path class="cls-37" d="M221.26,246.14c.07-.25-.2-.51-.44-.48-6.75,.84-13.42,4.37-19.67,6.91-5.6,2.27-10.61,5.17-15.65,8.42-2.12,1.37-4.33,2.64-6.67,3.57-1.03,.41-2.14,.73-3.26,.63-2.45-.24-1.51-3.77-1.02-5.15,1.2-3.37,3.37-6.28,5.84-8.82,5.98-6.15,12.11-12.15,17.64-18.71,2.61-3.09,5.12-6.32,7.08-9.87,1.1-2,2.29-4.58,1.56-6.9-.21-.67-.69-1.22-1.25-1.63-.14-.11-.36-.1-.47,.05-3.05,3.88-6.54,7.38-9.82,11.07-3.28,3.71-5.66,7.96-8.65,11.88-2.91,3.83-6.24,7.34-9.33,11.01-3.23,3.84-6.18,7.91-9.45,11.73-3.94,4.61-8.06,9.13-11.82,13.9-.03-.07-.1-.11-.16-.04-1.61,1.85-3.19,3.64-4.5,5.72-.72,1.15-1.73,2.87-1.38,4.32,.78,3.19,5.42,2.49,7.47,1.11,.19-.13,.15-.39,0-.51,12.28-3.25,22.52-12.55,33.46-18.57,6.54-3.59,13.31-6.57,20.02-9.79,4.35-2.08,9.1-4.93,10.47-9.86Z"/><g><path class="cls-40" d="M231.81,262.5c.54-.58,.99-1.22,1.31-1.88,1.5-2.87,1.11-6.31-.49-9.48,4.98-2.22,6.41-9.13,.37-11.33,2.68-2.39,3.28-6.92-1.28-7.76-4.64-.84-1.94-3.13-3.75-5.65-1.24-1.74-3.28-1.95-5.14-1.89,1.48-4.01-4.28-4.93-7.34-3.32-.37-1.57-.83-3.74-2.41-4.13-2.07-.51-3.83,.24-5.38,1.42-.64,.51-1.53,1.4-2.1,2.3-.92-.31-2.05-.17-3.18,.3-.57,.23-1.09,.57-1.6,.93-.67,.51-1.28,1.11-1.81,1.75-.51,.62-.77,2.52-1.29,2.83-3.7,2.26-4.66,13.23,1.13,13.35-1.41,2.66-2.94,4.21-2.13,7.62,.27,1.23,1.31,2.04,2.32,2.66,.4,.26,4.2,1.3,4.29,.68-.48,3.16-.25,6.28,2.66,8.21,1.96,1.31,4.96,.64,6.81-.67-.02,2.69,.15,5.94,2.61,7.49,1.53,.97,3.7-.07,5.01-.68,.82-.41,1.53-.94,2.18-1.57,.37-.35,3.2-3.2,3.17-2.59-.22,3.65,4.49,3.13,6.05,1.41Z"/><path class="cls-28" d="M231.81,262.5c.54-.58,.99-1.22,1.31-1.88-1.63-.5-3.31-.68-4.96-1.02-2.5-.5-7.36-1.54-4.43-4.69,.27-.31-.05-.95-.47-.86-5.3,.88-9.54-5.45-4.46-8.75,.49-.35-.08-1.11-.57-.81-2.5,1.54-5.34,.93-7.32-1.48-2.05-2.5,.26-4.89,1.76-6.57,.15-.17,.09-.44-.08-.58-1.37-1.21-2.88-2.12-4.4-3.14-2.96-2-2-4.36-.25-6.76,.16-.2,.07-.49-.15-.59-2.19-1.33-5.21-1.68-6.96-3.35-.67,.51-1.28,1.11-1.81,1.75-.51,.62-.77,2.52-1.29,2.83-3.7,2.26-4.66,13.23,1.13,13.35-1.41,2.66-2.94,4.21-2.13,7.62,.27,1.23,1.31,2.04,2.32,2.66,.4,.26,4.2,1.3,4.29,.68-.48,3.16-.25,6.28,2.66,8.21,1.96,1.31,4.96,.64,6.81-.67-.02,2.69,.15,5.94,2.61,7.49,1.53,.97,3.7-.07,5.01-.68,.82-.41,1.53-.94,2.18-1.57,.37-.35,3.2-3.2,3.17-2.59-.22,3.65,4.49,3.13,6.05,1.41Z"/></g><g><path class="cls-40" d="M215,222.66c.15-.62,.22-1.25,.18-1.84-.07-2.61-1.69-4.88-4.07-6.49,2.64-3.52,.94-8.95-4.19-8.14,.95-2.74-.4-6.16-3.95-4.97-3.6,1.23-2.6-1.44-4.87-2.51-1.55-.75-3.08-.09-4.36,.68-.53-3.41-4.95-1.8-6.48,.55-.88-.96-2.05-2.31-3.32-1.97-1.66,.45-2.61,1.67-3.23,3.11-.25,.61-.53,1.59-.58,2.44-.77,.15-1.52,.68-2.13,1.46-.31,.39-.55,.83-.76,1.28-.27,.62-.47,1.28-.59,1.94-.11,.64,.44,2.08,.2,2.5-1.72,3.05,1.91,11.16,6.04,8.97,.05,2.43-.42,4.12,1.48,6.21,.67,.76,1.72,.92,2.68,.96,.39,.03,3.47-.73,3.29-1.2,.9,2.42,2.29,4.53,5.09,4.74,1.9,.16,3.75-1.49,4.54-3.14,1.04,1.91,2.44,4.13,4.78,4.26,1.46,.09,2.58-1.5,3.27-2.44,.42-.61,.71-1.27,.92-1.96,.12-.39,1-3.51,1.22-3.07,1.28,2.66,4.4,.44,4.82-1.38Z"/><path class="cls-28" d="M215,222.66c.15-.62,.22-1.25,.18-1.84-1.35,.29-2.6,.82-3.9,1.23-1.96,.63-5.79,1.8-4.96-1.57,.07-.32-.4-.65-.67-.42-3.39,2.7-8.86-.1-6.58-4.42,.21-.43-.49-.75-.72-.35-1.16,2.07-3.41,2.75-5.74,1.83-2.43-.96-1.74-3.55-1.34-5.32,.04-.18-.11-.35-.28-.37-1.44-.32-2.86-.36-4.33-.49-2.87-.25-3.12-2.29-2.83-4.67,.03-.2-.14-.37-.34-.36-2.06-.08-4.34,.86-6.23,.37-.27,.62-.47,1.28-.59,1.94-.11,.64,.44,2.08,.2,2.5-1.72,3.05,1.91,11.16,6.04,8.97,.05,2.43-.42,4.12,1.48,6.21,.67,.76,1.72,.92,2.68,.96,.39,.03,3.47-.73,3.29-1.2,.9,2.42,2.29,4.53,5.09,4.74,1.9,.16,3.75-1.49,4.54-3.14,1.04,1.91,2.44,4.13,4.78,4.26,1.46,.09,2.58-1.5,3.27-2.44,.42-.61,.71-1.27,.92-1.96,.12-.39,1-3.51,1.22-3.07,1.28,2.66,4.4,.44,4.82-1.38Z"/></g></g></g><g><path class="cls-31" d="M171.71,292.68c4.2-1.04,7.87-3.78,11.62-5.83,2.17-1.19,4.12-2.76,6.05-4.29,1.74-1.38,3.74-3.72,6.15-3.43,.31,.04,.39-.39,.09-.48-5.02-1.41-9.36-4.48-14.41-5.81-1.63-.43-3.14-.43-4.53,.6-.64,.48-1.15,1.14-1.68,1.72-1.32,1.42-2.73,2.08-4.69,2.2-1.53,.09-3.34-.32-4.77-.82-1.09-.39-2.06-1.1-3.18-1.42-1.84-.52-3.28,.1-4.58,1.43-1.52,1.57-2.37,3.72-3.77,5.39-1.82,2.14-4.03,3.96-6.31,5.58-.37-.03-.73-.07-1.11-.05-.31,.01-.27,.5,.04,.48,.19,0,.37,0,.55,.01-.04,.16,.14,.34,.32,.23,.09-.06,.18-.13,.27-.19,1.86,.21,3.51,1.04,5.18,1.94,1.86,1,3.76,1.85,5.77,2.48,3.97,1.24,8.99,1.24,13,.24Z"/><path class="cls-43" d="M166.34,290.41c.26,.01,.32-.4,.09-.5-2.05-.82-3.98-1.69-5.96-2.67-.9-.44-1.8-.79-2.72-1,2.44-.34,4.9-.52,7.35-.79-.01,.05,0,.11,.07,.11,2.12,.18,3.99,.8,5.96,1.58,1.46,.58,3,1.19,4.59,.97,.23-.03,.25-.35,.02-.41-1.97-.48-3.82-1.07-5.73-1.75-1.12-.4-2.23-.67-3.37-.69,.32-.04,.64-.08,.96-.12,2.52-.38,4.92-1.13,7.24-2.11,1.3,.06,2.61,.02,3.91,.1,1.58,.1,3.09,.53,4.66,.68,.24,.02,.38-.31,.14-.42-2.13-.98-4.95-1.21-7.42-.94,.35-.16,.71-.32,1.06-.49,1.67-.83,3.31-1.62,5.15-1.99,1.94-.4,3.98,.08,5.95-.21,.31-.05,.26-.46-.04-.47-3.49-.15-6.35-.39-9.62,1.08-.87,.39-1.71,.78-2.56,1.16,.35-.37,.7-.76,1.03-1.17,1.43-1.78,2.68-3.38,4.69-4.55,.16-.09,.06-.37-.12-.34-3.4,.44-4.94,4.59-7.43,6.85-2.14,.89-4.3,1.65-6.72,2.06-.13,.02-.26,.04-.38,.06,.36-.27,.71-.57,1.04-.9,1.46-1.43,2.95-3.38,3.95-5.16,.1-.18-.13-.34-.28-.24-1.31,.84-2.15,2.42-3.07,3.63-.99,1.32-2.08,2.36-3.53,2.93-2.81,.35-5.64,.53-8.44,1.02-.05,.01-.1,.02-.15,.03,.57-.42,1.09-.92,1.58-1.49,1.46-1.7,2.91-3.82,3.98-5.78,.11-.2-.15-.39-.32-.27-1.55,1.03-2.46,2.95-3.45,4.47-.95,1.44-1.99,2.61-3.4,3.35-3.08,.51-6.21,.98-9.21,1.7-.1,.02-.09,.19,.01,.2,3.3,.17,6.71-.75,9.96-1.35,3.84,.36,6.67,3.68,10.53,3.87Z"/></g></g></g></svg>