<?xml version="1.0" encoding="UTF-8"?><svg xmlns="http://www.w3.org/2000/svg" viewBox="0 0 500 500"><defs><style>.cls-1{fill:#bdbdbd;}.cls-1,.cls-2,.cls-3,.cls-4,.cls-5{stroke:#263238;}.cls-1,.cls-2,.cls-3,.cls-4,.cls-5,.cls-6{stroke-linecap:round;stroke-linejoin:round;}.cls-2,.cls-7{fill:#263238;}.cls-3,.cls-8{fill:#fff;}.cls-4,.cls-9{fill:#92e3a9;}.cls-5,.cls-6{fill:none;}.cls-6{stroke:#000;}.cls-6,.cls-10{opacity:.3;}.cls-11{opacity:.2;}.cls-8{opacity:.7;}</style></defs><g id="Background_Simple"><g><path class="cls-9" d="M467.6,251.91c-4.94,41.8-24.02,90.4-62.14,112.73-57.6,33.74-52.77,85.64-165.19,108.2-17.53,3.52-34.16,5-49.85,4.71-8.43-.16-16.59-.84-24.46-1.99-71.45-10.44-119.53-60.1-137.17-120.05-23.21-78.85,23.14-130.46,53.86-161.56,30.72-31.1,53.23-128,163.57-151.05,16.82-3.51,34.03-5.3,51.23-4.87,39.26,.96,82.08,13.85,111.71,40.76,2.22,2.02,4.39,4.12,6.5,6.28,41.18,42.27,58.68,109.86,51.95,166.85Z"/><path class="cls-8" d="M467.6,251.91c-4.94,41.8-24.02,90.4-62.14,112.73-57.6,33.74-52.77,85.64-165.19,108.2-17.53,3.52-34.16,5-49.85,4.71-8.43-.16-16.59-.84-24.46-1.99-71.45-10.44-119.53-60.1-137.17-120.05-23.21-78.85,23.14-130.46,53.86-161.56,30.72-31.1,53.23-128,163.57-151.05,16.82-3.51,34.03-5.3,51.23-4.87,39.26,.96,82.08,13.85,111.71,40.76,2.22,2.02,4.39,4.12,6.5,6.28,41.18,42.27,58.68,109.86,51.95,166.85Z"/></g></g><g id="Plant"><g><g><path class="cls-7" d="M22.26,265.78c3.11,1.36,10.71,1.19,10.72,1.19,.08,0-1.63-4.98-1.78-5.28-1.67-3.49-6.95-9.25-11.24-8.67-3.09,.42-4.81,3.51-4.12,6.43,.71,2.98,3.76,5.18,6.41,6.34Z"/><path class="cls-7" d="M24.88,287.81c3.23,.47,10.01-1.5,10.55-1.66,1.07,3.8,2.48,7.61,4.12,11.39,.93,2.16,1.94,4.31,2.98,6.45-.62-.91-1.18-1.71-1.27-1.82-2.53-2.93-9.14-7.09-13.13-5.4-2.87,1.22-3.71,4.66-2.27,7.28,1.47,2.68,5,4.01,7.86,4.42,2.9,.42,8.72-1.14,10.26-1.57,.41,.82,.8,1.64,1.21,2.45,1.96,3.91,3.94,7.81,5.77,11.69,.64,1.37,1.23,2.74,1.82,4.11-.55-.81-1.02-1.48-1.1-1.57-2.53-2.93-9.14-7.09-13.13-5.4-2.87,1.22-3.71,4.66-2.27,7.28,1.47,2.68,5,4.01,7.86,4.42,2.77,.4,8.15-.99,9.98-1.5,.56,1.42,1.12,2.84,1.6,4.24,.31,.96,.67,1.87,.92,2.86,.27,.97,.54,1.93,.8,2.88,.44,1.85,.91,3.76,1.3,5.58,.28,1.26,.52,2.47,.77,3.68-.62-1.37-1.9-4.02-2.04-4.23-2.06-3.28-7.96-8.39-12.16-7.32-3.02,.77-4.38,4.04-3.35,6.86,1.05,2.87,4.33,4.72,7.1,5.56,3.04,.93,9.78,.08,10.62-.03,.4,2.01,.78,3.97,1.1,5.83,.72,4.1,1.27,7.77,1.68,10.88h2.84c-.5-3.22-1.14-7.05-2-11.35-.4-2.05-.87-4.22-1.38-6.46,.51-.2,3.38-1.36,5.93-2.79,2.22,2.4,7.9,5.21,8.64,5.57-.77,1.9-1.54,3.74-2.3,5.47-1.57,3.62-3.06,6.82-4.38,9.55h3.07c1.13-2.51,2.38-5.38,3.68-8.55,.79-1.93,1.6-4,2.41-6.14,.82,.17,7.48,1.52,10.59,.82,2.82-.64,6.23-2.23,7.49-5.02,1.24-2.73,.13-6.09-2.83-7.09-4.11-1.38-10.38,3.28-12.67,6.4-.14,.18-1.38,2.34-2.15,3.71,.33-.88,.65-1.72,.98-2.63,.66-1.79,1.26-3.59,1.91-5.53,.28-.95,.57-1.9,.86-2.87,.31-.95,.51-2,.77-3,.56-2.35,1.01-4.75,1.41-7.18,1.57,.57,7.16,2.51,10.05,2.31,2.88-.2,6.5-1.26,8.17-3.82,1.63-2.51,1.05-6-1.72-7.43-3.85-1.99-10.75,1.68-13.5,4.41-.17,.17-1.92,2.35-2.86,3.57,.23-1.46,.47-2.92,.65-4.41,.53-4.3,.94-8.66,1.36-13.01,.13-1.33,.27-2.66,.41-3.99,.56,.21,7.15,2.66,10.39,2.44,2.88-.2,6.5-1.26,8.17-3.83,1.63-2.51,1.05-6-1.72-7.43-3.85-1.99-10.75,1.67-13.5,4.4-.21,.21-2.72,3.35-3.32,4.18,.31-2.93,.64-5.84,1.09-8.7,.61-3.95,1.43-7.78,2.5-11.44,.26,.1,7.13,2.69,10.45,2.46,2.88-.2,6.5-1.26,8.17-3.82,1.63-2.51,1.05-6-1.72-7.43-3.85-1.99-10.75,1.68-13.5,4.4-.21,.21-2.91,3.59-3.36,4.24,.06-.22,.11-.45,.17-.67,1.19-3.89,2.83-7.51,4.53-10.83,.99-1.93,2.04-3.72,3.1-5.43,1.23,.61,6.88,3.36,9.9,3.48,2.89,.12,6.6-.54,8.54-2.9,1.9-2.31,1.7-5.85-.9-7.58-3.61-2.4-10.87,.48-13.9,2.9-.16,.13-1.69,1.65-2.78,2.77,.49-.77,.98-1.57,1.47-2.29,1.81-2.73,3.64-5.12,5.28-7.22,.94-1.19,1.81-2.24,2.64-3.22,1.52-.03,7.65-.21,10.33-1.47,2.61-1.23,5.61-3.52,6.24-6.51,.62-2.93-1.18-5.98-4.29-6.31-4.31-.46-9.43,5.44-11,8.97-.14,.31-1.71,5.33-1.63,5.33,0,0,.07,0,.09,0-.82,.93-1.68,1.93-2.6,3.04-1.69,2.07-3.57,4.42-5.45,7.13-1.88,2.69-3.86,5.67-5.65,9-1.8,3.33-3.53,6.93-4.83,10.86-.02,.04-.02,.09-.04,.14,.02-1.27-.03-4.82-.07-5.09-.5-3.84-3.71-10.96-7.97-11.75-3.07-.57-5.67,1.84-5.91,4.82-.25,3.05,1.96,6.1,4.12,8.03,2.43,2.17,9.18,4.27,9.71,4.44-1.2,3.76-2.13,7.72-2.85,11.77-.41,2.32-.76,4.67-1.07,7.02-.02-1.1-.04-2.08-.06-2.22-.5-3.84-3.71-10.96-7.97-11.75-3.07-.57-5.67,1.84-5.91,4.82-.25,3.05,1.96,6.1,4.12,8.02,2.19,1.95,7.9,3.86,9.42,4.35-.11,.91-.23,1.81-.34,2.72-.52,4.35-1.02,8.69-1.64,12.93-.22,1.5-.49,2.96-.75,4.43-.02-.97-.04-1.8-.05-1.92-.5-3.84-3.71-10.96-7.97-11.75-3.07-.57-5.67,1.84-5.92,4.82-.25,3.05,1.96,6.1,4.12,8.02,2.09,1.86,7.35,3.67,9.15,4.26-.32,1.49-.63,2.99-1,4.42-.28,.97-.48,1.93-.81,2.89-.31,.96-.62,1.91-.92,2.85-.65,1.79-1.31,3.64-1.99,5.37-.46,1.21-.93,2.35-1.39,3.5,.23-1.49,.63-4.4,.64-4.65,.06-2.57-.85-6.75-2.67-9.69,.01-.38-.01-.76-.07-1.13-.48-2.96-3.25-5.15-6.27-4.35-4.19,1.11-6.84,8.46-7.04,12.33-.01,.23,.14,2.72,.26,4.28-.21-.91-.4-1.8-.63-2.73-.44-1.85-.93-3.69-1.45-5.66-.29-.95-.58-1.9-.87-2.86-.27-.96-.68-1.94-1.01-2.93-.83-2.26-1.78-4.52-2.78-6.77,1.62-.39,7.36-1.85,9.66-3.62,2.29-1.76,4.72-4.64,4.7-7.7-.02-3-2.43-5.59-5.54-5.25-4.31,.47-8.05,7.33-8.83,11.12-.05,.24-.3,3.02-.41,4.55-.62-1.35-1.22-2.7-1.89-4.04-1.92-3.88-3.99-7.74-6.04-11.61-.63-1.18-1.24-2.37-1.86-3.56,.58-.13,7.43-1.72,10.01-3.7,2.29-1.76,4.72-4.64,4.7-7.7-.02-2.99-2.43-5.59-5.54-5.25-4.31,.47-8.05,7.33-8.83,11.12-.06,.29-.42,4.29-.46,5.31-1.36-2.61-2.68-5.23-3.89-7.86-1.67-3.63-3.1-7.28-4.23-10.92,.27-.06,7.43-1.69,10.07-3.72,2.29-1.76,4.72-4.64,4.7-7.7-.02-3-2.43-5.59-5.54-5.25-4.31,.47-8.05,7.33-8.83,11.12-.06,.3-.45,4.61-.46,5.39-.07-.22-.16-.43-.22-.65-1.15-3.9-1.78-7.83-2.19-11.53-.24-2.15-.35-4.22-.41-6.24,1.36-.17,7.59-1,10.17-2.56,2.47-1.5,5.21-4.09,5.52-7.13,.31-2.98-1.81-5.82-4.93-5.83-4.33,0-8.8,6.4-10,10.08-.07,.2-.5,2.31-.79,3.85-.01-.91-.05-1.85-.04-2.72,0-3.28,.21-6.28,.42-8.93,.13-1.51,.28-2.87,.43-4.14,1.25-.86,6.26-4.4,7.81-6.93,1.5-2.47,2.73-6.03,1.61-8.87-1.1-2.79-4.29-4.33-7.06-2.9-3.85,1.99-4.86,9.74-4.23,13.55,.06,.33,1.51,5.39,1.58,5.34,0,0,.06-.04,.08-.05-.17,1.22-.34,2.53-.49,3.97-.26,2.66-.54,5.66-.61,8.95-.09,3.29-.09,6.86,.25,10.62,.34,3.77,.88,7.72,1.97,11.72,.01,.05,.03,.09,.04,.14-.68-1.07-2.69-4-2.87-4.21-2.53-2.93-9.14-7.09-13.13-5.4-2.87,1.22-3.71,4.66-2.27,7.29,1.47,2.68,5,4.01,7.86,4.42Z"/><path class="cls-7" d="M99.18,267.46c.07,.04,1.38-5.05,1.43-5.39,.53-3.83-.69-11.55-4.59-13.43-2.81-1.36-5.95,.28-6.98,3.09-1.05,2.87,.28,6.4,1.85,8.83,1.84,2.85,8.28,6.9,8.29,6.9Z"/></g><polygon class="cls-3" points="89.33 406.3 47.76 406.3 42.57 360.14 94.53 360.14 89.33 406.3"/><g><polygon class="cls-7" points="43.52 368.59 44.02 373.07 93.07 373.07 93.58 368.59 43.52 368.59"/><polygon class="cls-7" points="91.96 382.91 92.47 378.44 44.63 378.44 45.13 382.91 91.96 382.91"/></g></g></g><g id="Tools"><g><g><path class="cls-6" d="M78.8,131.02l36.13-36.13c6.8,3.06,15.07,1.82,20.65-3.76,4.63-4.63,6.27-11.11,4.96-17.07l-14.38,14.38c-.43,.43-1.13,.43-1.56,0l-12.46-12.46c-.43-.43-.43-1.13,0-1.56l14.38-14.38c-5.96-1.32-12.43,.32-17.07,4.96-5.59,5.59-6.83,13.85-3.76,20.65l-36.13,36.13c-6.8-3.06-15.07-1.82-20.65,3.76-4.63,4.63-6.27,11.11-4.96,17.07l14.38-14.38c.43-.43,1.13-.43,1.56,0l12.46,12.46c.43,.43,.43,1.13,0,1.56l-14.38,14.38c5.96,1.32,12.43-.32,17.07-4.96,5.59-5.59,6.83-13.85,3.76-20.65Z"/><path class="cls-6" d="M150.57,50.28l-11-3.61-8.63,7.72,2.38,11.33,11,3.61,8.63-7.72-2.38-11.33Zm-7.68,12.21l-4.36-1.43-.94-4.49,3.41-3.06,4.36,1.43,.94,4.49-3.41,3.06Z"/></g><g><path class="cls-6" d="M397.78,294.38l-36.13,36.13c-6.8-3.06-15.07-1.82-20.65,3.76-4.63,4.63-6.27,11.11-4.96,17.07l14.38-14.38c.43-.43,1.13-.43,1.56,0l12.46,12.46c.43,.43,.43,1.13,0,1.56l-14.38,14.38c5.96,1.32,12.43-.33,17.07-4.96,5.59-5.59,6.83-13.85,3.76-20.65l36.13-36.13c6.8,3.06,15.07,1.82,20.65-3.76,4.63-4.63,6.27-11.11,4.96-17.07l-14.38,14.38c-.43,.43-1.13,.43-1.56,0l-12.46-12.46c-.43-.43-.43-1.13,0-1.56l14.38-14.38c-5.96-1.32-12.43,.32-17.07,4.96-5.59,5.59-6.83,13.85-3.76,20.65Z"/><path class="cls-6" d="M326.01,375.13l11,3.61,8.63-7.72-2.38-11.33-11-3.61-8.63,7.72,2.38,11.33Zm7.68-12.21l4.36,1.43,.94,4.49-3.41,3.06-4.36-1.43-.94-4.49,3.41-3.06Z"/></g><g><path class="cls-6" d="M378.25,131.02l36.13-36.13c6.8,3.06,15.07,1.82,20.65-3.76,4.63-4.63,6.27-11.11,4.96-17.07l-14.38,14.38c-.43,.43-1.13,.43-1.56,0l-12.46-12.46c-.43-.43-.43-1.13,0-1.56l14.38-14.38c-5.96-1.32-12.43,.32-17.07,4.96-5.59,5.59-6.83,13.85-3.76,20.65l-36.13,36.13c-6.8-3.06-15.07-1.82-20.65,3.76-4.63,4.63-6.27,11.11-4.96,17.07l14.38-14.38c.43-.43,1.13-.43,1.56,0l12.46,12.46c.43,.43,.43,1.13,0,1.56l-14.38,14.38c5.96,1.32,12.43-.32,17.07-4.96,5.59-5.59,6.83-13.85,3.76-20.65Z"/><path class="cls-6" d="M450.02,50.28l-11-3.61-8.63,7.72,2.38,11.33,11,3.61,8.63-7.72-2.38-11.33Zm-7.68,12.21l-4.36-1.43-.94-4.49,3.41-3.06,4.36,1.43,.94,4.49-3.41,3.06Z"/><path class="cls-6" d="M469.88,133.68l-11-3.61-8.63,7.72,2.38,11.33,11,3.61,8.63-7.72-2.38-11.33Zm-7.68,12.21l-4.36-1.43-.94-4.49,3.41-3.06,4.36,1.43,.94,4.49-3.41,3.06Z"/><path class="cls-6" d="M219.67,82.6l-11-3.61-8.63,7.72,2.38,11.33,11,3.61,8.63-7.72-2.38-11.33Zm-7.68,12.21l-4.36-1.43-.94-4.49,3.41-3.06,4.36,1.43,.94,4.49-3.41,3.06Z"/><path class="cls-6" d="M199.82,342.75l-11-3.61-8.63,7.72,2.38,11.33,11,3.61,8.63-7.72-2.38-11.33Zm-7.68,12.21l-4.36-1.43-.94-4.49,3.41-3.06,4.36,1.43,.94,4.49-3.41,3.06Z"/><path class="cls-6" d="M60.15,202.41l-11-3.61-8.63,7.72,2.38,11.33,11,3.61,8.63-7.72-2.38-11.33Zm-7.68,12.21l-4.36-1.43-.94-4.49,3.41-3.06,4.36,1.43,.94,4.49-3.41,3.06Z"/></g><g><path class="cls-6" d="M138.63,352.69l36.13-36.13c6.8,3.06,15.07,1.82,20.65-3.76,4.63-4.63,6.27-11.11,4.96-17.07l-14.38,14.38c-.43,.43-1.13,.43-1.56,0l-12.46-12.46c-.43-.43-.43-1.13,0-1.56l14.38-14.38c-5.96-1.32-12.43,.32-17.07,4.96-5.59,5.59-6.83,13.85-3.76,20.65l-36.13,36.13c-6.8-3.06-15.07-1.82-20.65,3.76-4.63,4.63-6.27,11.11-4.96,17.07l14.38-14.38c.43-.43,1.13-.43,1.56,0l12.46,12.46c.43,.43,.43,1.13,0,1.56l-14.38,14.38c5.96,1.32,12.43-.33,17.07-4.96,5.59-5.59,6.83-13.85,3.76-20.65Z"/><path class="cls-6" d="M210.4,271.94l-11-3.61-8.63,7.72,2.38,11.33,11,3.61,8.63-7.72-2.38-11.33Zm-7.68,12.21l-4.36-1.43-.94-4.49,3.41-3.06,4.36,1.43,.94,4.49-3.41,3.06Z"/></g></g></g><g id="Device"><g><rect class="cls-2" x="232" y="295.89" width="27.63" height="111.46"/><rect class="cls-2" x="78.51" y="112.03" width="348.66" height="211.48"/><rect class="cls-4" x="71.49" y="112.03" width="348.66" height="211.48"/><g><rect class="cls-3" x="84.05" y="119.65" width="323.53" height="196.24"/><rect class="cls-3" x="84.05" y="304.07" width="323.53" height="11.82"/></g><polygon class="cls-2" points="247.33 394.84 144.9 401.46 144.9 408.13 346.74 408.13 346.74 401.46 247.33 394.84"/><rect class="cls-3" x="84.05" y="119.65" width="323.53" height="196.24"/></g></g><g id="Floor"><g><line class="cls-5" x1="462.87" y1="406.3" x2="21.94" y2="406.3"/><line class="cls-5" x1="485.77" y1="406.3" x2="473.9" y2="406.3"/></g></g><g id="Character"><g><g><path class="cls-2" d="M398.33,282.83s1.66,58.98,2.5,69.28c.84,10.3,3.34,37.3,3.9,42.31,.56,5.01-.56,19.21-.56,19.21l-1.39,1.39,1.11,6.96s-8.91,5.57-13.36,7.24c-4.45,1.67,1.11,3.9,5.01,4.45s6.96,.56,11.41-.56c4.45-1.11,10.02-3.06,11.97-3.34,1.95-.28,3.06-2.78,3.06-5.85s-.28-3.34,0-4.73c.28-1.39-1.39-7.24-1.67-8.63-.28-1.39,3.9-32.85,3.06-42.87-.83-10.02-1.11-23.66-1.11-25.05s-.56-15.87-.56-15.87c0,0,4.73,32.01,5.29,33.12s9.74,47.6,10.02,49.83c.28,2.23-.84,4.73-.56,6.4,.28,1.67,1.67,6.68,1.67,6.68,0,0-.83,7.52-3.34,10.86-2.51,3.34-3.06,6.12-1.67,7.24,1.39,1.11,4.45,1.11,8.07,.28,3.62-.84,3.62-.28,6.96-3.06,3.34-2.78,4.45-10.86,4.45-11.69s1.39-3.62,1.39-6.68,0-1.67-1.11-6.12c-1.11-4.45-.84-21.71-1.11-31.73-.28-10.02-3.62-30.06-3.62-33.96s-1.67-62.07-1.67-62.07c0,0-26.71,8.14-48.15-3.03Z"/><g><path class="cls-3" d="M410.73,424.35c-4.44-.2-6.84-2.38-6.84-2.38,0,0-8.91,5.57-13.36,7.24-4.45,1.67,1.11,3.9,5.01,4.45s6.96,.56,11.41-.56,10.02-3.06,11.97-3.34c1.95-.28,3.06-2.78,3.06-5.85,0-1.29-.05-2.08-.09-2.67-3.08,1.3-8.21,3.24-11.17,3.1Z"/><path class="cls-3" d="M417.8,426.57c-5.05,.4-10.84,6.53-18.59,5.66-5.18-.59-8.3-1.74-9.81-2.44-2.1,1.57,2.68,3.38,6.14,3.88,3.9,.56,6.96,.56,11.41-.56s10.02-3.06,11.97-3.34c1.41-.2,2.38-1.58,2.81-3.48-.91,.06-2.17,.15-3.93,.29Z"/></g><g><path class="cls-3" d="M446.89,426.37c-5.71-.05-8.76-3.57-8.76-3.57,0,0-.84,7.52-3.34,10.86-2.51,3.34-3.06,6.12-1.67,7.24,1.39,1.11,4.45,1.11,8.07,.28,3.62-.84,3.62-.28,6.96-3.06,3.34-2.78,4.45-10.86,4.45-11.69,0-.25,.13-.69,.3-1.24-1.51,.65-3.55,1.21-6.02,1.19Z"/><path class="cls-3" d="M448.15,438.11c1.48-1.24,2.53-3.52,3.23-5.74-.01,.02-.03,.04-.04,.06-1.82,2.63-4.24,5.66-10.3,7.07-4.31,1.01-7.29,.07-8.65-.55-.04,.85,.2,1.52,.74,1.95,1.39,1.11,4.45,1.11,8.07,.28,3.62-.84,3.62-.28,6.96-3.06Z"/></g></g><path class="cls-4" d="M397.69,281.06s-.81,3.88,.81,5.82c1.62,1.94,8.08,6.14,23.44,6.3,15.36,.16,21.82-3.23,24.09-4.69,2.26-1.45,1.29-7.92,1.29-7.92,0,0-10.67,4.85-22.96,5.33-12.29,.49-26.67-4.85-26.67-4.85Z"/><g><path class="cls-4" d="M411,210.14l-14.11-7.34s-17.27-15.11-25.76-20.73c-8.49-5.61-15.69-3.74-16.26,3.17-.58,6.91,28.64,29.8,33.97,34.11s6.48,6.48,6.48,6.48c0,0,.72,38.58,1.01,44.76,.29,6.19,0,10.36,2.02,12.23,2.02,1.87,11.37,7.63,24.47,6.91,13.1-.72,19-2.02,21.45-4.03,2.45-2.02,3.89-3.74,3.89-7.2s3.74-49.51,3.74-49.51c0,0,25.91-17.7,32.53-23.61,6.62-5.9,7.05-14.25,2.73-15.11-4.32-.86-15.26,4.46-19.58,7.2-4.32,2.73-18.14,7.05-22.89,8.35-4.75,1.3-9.5,2.73-9.5,2.73,0,0-11.95,3.31-24.18,1.58Z"/><line class="cls-5" x1="395.31" y1="225.83" x2="390.93" y2="209.98"/><line class="cls-5" x1="393.43" y1="220.15" x2="386.78" y2="205.82"/><line class="cls-5" x1="451.87" y1="228.99" x2="455.53" y2="215.38"/><line class="cls-5" x1="453.04" y1="225.56" x2="458.03" y2="216.62"/><line class="cls-5" x1="376.81" y1="190.87" x2="367.67" y2="195.85"/><line class="cls-5" x1="469.04" y1="202.71" x2="473.4" y2="206.24"/></g><path class="cls-3" d="M411.72,226.98l-3.6,23.25c-.08,.52,.27,1,.79,1.08h0c.52,.08,1-.28,1.08-.79l3.32-22.52-1.58-1.01Z"/><path class="cls-3" d="M425.68,227.84l-1.91,22.81c-.05,.65,.48,1.19,1.13,1.15h0c.53-.04,.95-.46,.99-.99l1.52-23.4-1.73,.43Z"/><g><path class="cls-4" d="M410.13,209.13s-5.18,5.76-5.61,8.06,3.6,5.18,3.6,5.18c0,0-2.02,.58-.58,1.87,1.44,1.3,9.79,7.77,12.23,7.77s5.47-3.89,12.95-5.61c7.48-1.73,12.81-9.5,12.23-13.1-.58-3.6-3.74-2.88-3.74-2.88,0,0,1.44-3.17-.86-4.61-2.3-1.44-7.63-1.44-10.22-1.15-2.59,.29-13.53,.86-20.01,4.46Z"/><path class="cls-5" d="M431.85,223.01c-1.58,1.27-2.87,2.09-2.87,2.09"/><path class="cls-5" d="M441.22,210.42s-3.45,6.62-6.05,9.5"/><line class="cls-5" x1="408.12" y1="222.37" x2="411.72" y2="224.39"/></g><g><path class="cls-1" d="M357.88,191.28c-1.58-1.44-5.61-5.47-2.45-10.36,3.17-4.89,8.06-3.17,12.09-3.17s33.11,7.05,33.11,7.05c0,0,6.19-10.65,7.48-12.52,1.3-1.87,6.33-2.02,6.33-2.02,0,0,1.15,.43,.58,1.87-.58,1.44-1.58,.72-1.87,4.03-.29,3.31-1.87,15.11-4.61,16.55-2.73,1.44-9.93-.29-9.93-.29l-32.67,1.58"/><path class="cls-4" d="M365.94,194.02l14.06-.68c-1.34-1.21-2.54-3-2.54-5.51,0-3.32,1.41-6.08,2.56-7.79-5.8-1.26-10.96-2.29-12.5-2.29-4.03,0-8.92-1.73-12.09,3.17-3.17,4.89,.86,8.92,2.45,10.36"/></g><g><path class="cls-1" d="M412.72,171.27s-6.05,11.95-5.76,13.39c.29,1.44,1.01,3.17,1.01,3.74s-3.17,7.92-2.59,9.93c.58,2.02,3.02,11.37,5.33,14.68,2.3,3.31,3.89,3.31,3.89,3.31,0,0-1.15,7.92-.29,10.22,.86,2.3,3.74,6.05,5.47,5.47,1.73-.58,11.23-11.66,12.09-14.97,.86-3.31,1.87-14.68,1.87-14.68,0,0,1.73-3.17,2.73-4.61,1.01-1.44,4.89-5.9,5.18-13.39,.29-7.48-6.91-14.39-13.39-16.26-6.48-1.87-13.24,1.87-15.55,3.17Z"/><path class="cls-5" d="M411.57,189.84s-3.17,7.05-2.59,7.34c.58,.29,2.3,1.73,5.04,1.01,2.73-.72,2.73-2.16,2.73-2.16"/><path class="cls-7" d="M414.37,204.81c.4,1.04,.2,2.08-.43,2.32-.63,.24-1.46-.41-1.86-1.45-.4-1.04-.2-2.08,.43-2.32,.63-.24,1.46,.41,1.86,1.45Z"/><path class="cls-2" d="M414.59,216.33s2.16-.29,3.89-.72c1.73-.43,8.64-6.19,8.64-6.19l-13.1,15.11,.58-8.2Z"/><path class="cls-5" d="M418.91,183.65s3.74-2.3,5.76,2.16"/><path class="cls-5" d="M412.87,183.8s-2.16-1.58-4.03,.58"/><path class="cls-7" d="M421.22,190.35c0,.83-.42,1.51-.94,1.51s-.94-.68-.94-1.51,.42-1.51,.94-1.51,.94,.68,.94,1.51Z"/><ellipse class="cls-7" cx="410.05" cy="189.57" rx=".86" ry="1.38"/><path class="cls-2" d="M432.16,200.92s.82,.62,1.76,1.11c.47-.84,1.74-3.12,2.55-4.28,1.01-1.44,4.89-5.9,5.18-13.39,.29-7.48-6.91-14.39-13.39-16.26-3.73-1.08-7.54-.29-10.55,.81,.19,.37,.84,.79,2.64,1.06,3.89,.58,8.49-1.3,10.94,.43,2.45,1.73,3.45,6.91,1.3,8.78-2.16,1.87-6.62,4.89-4.75,7.34,1.87,2.45,2.88,4.89,2.88,5.47s-.86,1.15,0,1.3,2.02,.43,2.45-.86c.43-1.3,2.73-3.31,3.89-1.01s-.29,5.04-1.58,6.77c-1.3,1.73-3.31,2.73-3.31,2.73Z"/></g><g><path class="cls-1" d="M479.08,204.67l-11.37-.43s-33.39-8.2-35.84-9.5c-2.45-1.3-1.87-5.04-2.16-5.9-.29-.86-1.01-4.75-.29-5.76,.72-1.01,6.77-5.61,7.2-6.19,.43-.58-.72-3.31-.43-4.03,.29-.72,1.01-.86,1.73-.43,.72,.43,.86,1.15,.86,1.15,0,0,1.44,.29,2.73,2.59,1.3,2.3,1.58,4.17,1.3,5.04-.29,.86,1.3,2.59,1.01,3.89-.29,1.3-2.16,4.61-2.16,4.61,0,0,27.2-1.15,31.81-1.15s15.4-.58,16.7,2.02c1.3,2.59,0,7.05-2.16,10.08"/><line class="cls-5" x1="441.66" y1="189.7" x2="437.67" y2="189.2"/><path class="cls-5" d="M438.78,173.58s1.8,3.58,1.39,4.62l-.42,1.04"/><path class="cls-5" d="M442.81,181.21s-1.61,1.56-2.64,2.18"/><path class="cls-4" d="M488,200.64c2.16-3.02,3.45-7.48,2.16-10.08-1.29-2.57-11.95-2.02-16.6-2.02,.73,1.58,1.42,4.28,.19,7.77-1.28,3.67-4.9,6.22-7.36,7.59,.83,.2,1.31,.32,1.31,.32l11.37,.43"/></g></g></g><g id="Smoke"><g class="cls-10"><path d="M243.98,166.67c.9-1.72,1.42-3.66,1.42-5.73,0-6.94-5.74-12.57-12.82-12.57s-12.82,5.63-12.82,12.57c0,4.25,2.15,7.99,5.44,10.27-4.49,.81-7.9,4.73-7.9,9.45,0,2.35,.84,4.49,2.24,6.16-4.29,2.35-7.17,6.55-7.17,11.37,0,7.37,6.71,13.34,14.98,13.34s14.98-5.97,14.98-13.34c0-1.78-.4-3.47-1.11-5.02,.48,.04,.97,.06,1.47,.06,8.58,0,15.53-5.96,15.53-13.31s-6.27-12.69-14.24-13.26Z"/><circle cx="216.55" cy="142.21" r="8.14"/><path d="M194.61,131.6c-1.36,0-2.47,1.1-2.47,2.47s1.1,2.47,2.47,2.47,2.47-1.1,2.47-2.47-1.1-2.47-2.47-2.47Z"/><path d="M244.41,137.03c3.81,0,6.9-3.09,6.9-6.9s-3.09-6.9-6.9-6.9-6.9,3.09-6.9,6.9,3.09,6.9,6.9,6.9Z"/></g><g class="cls-10"><path d="M267.58,82.96c-1.36,0-2.47,1.1-2.47,2.47s1.1,2.47,2.47,2.47,2.47-1.1,2.47-2.47-1.1-2.47-2.47-2.47Z"/><path d="M262.3,62.2c-3.98,2.08-5.52,7-3.44,10.98s7,5.52,10.98,3.44c3.98-2.08,5.52-7,3.44-10.98-2.08-3.98-7-5.52-10.98-3.44Z"/><path d="M316.95,118.02c.9-1.72,1.42-3.66,1.42-5.73,0-4.09-2-7.71-5.08-10.01,6.06-3.37,9.3-9.66,8.32-15.36,1.63-1.26,2.68-3.23,2.68-5.45,0-3.81-3.09-6.9-6.9-6.9-2.23,0-4.21,1.06-5.47,2.7-3.2-.7-6.79-.39-10.2,1.1,0-1.94-.44-3.9-1.4-5.73-3.22-6.15-10.91-8.48-17.19-5.2s-8.75,10.93-5.53,17.08c1.14,2.18,2.86,3.86,4.87,5-.68,1.19-1.07,2.56-1.07,4.03,0,.89,.15,1.75,.42,2.55-2.49-.56-5.18-.27-7.61,1-5.47,2.86-7.59,9.62-4.72,15.09,2.06,3.94,6.15,6.13,10.31,5.98-3.11,3.28-4.01,8.26-1.96,12.53-4.54,3.17-6.13,9.29-3.49,14.33,2.19,4.19,6.66,6.4,11.08,5.93,.8,6.7,7.16,11.92,14.89,11.92,8.27,0,14.98-5.97,14.98-13.34,0-1.78-.4-3.47-1.11-5.02,.48,.04,.97,.06,1.47,.06,8.58,0,15.53-5.96,15.53-13.31s-6.27-12.69-14.24-13.26Z"/><path d="M241.71,70.19c-1.21,.63-1.67,2.12-1.04,3.33,.63,1.21,2.12,1.67,3.33,1.04,1.21-.63,1.67-2.12,1.04-3.33-.63-1.21-2.12-1.67-3.33-1.04Z"/><path d="M288.35,51.91c3.38-1.77,4.68-5.94,2.92-9.32-1.77-3.38-5.94-4.68-9.32-2.92-3.38,1.77-4.68,5.94-2.92,9.32,1.77,3.38,5.94,4.68,9.32,2.92Z"/></g></g><g id="Screws"><g><path class="cls-3" d="M215.48,174.83c0-3.8-3.08-6.88-6.88-6.88s-6.88,3.08-6.88,6.88,3.08,6.88,6.88,6.88,6.88-3.08,6.88-6.88Z"/><line class="cls-3" x1="213.56" y1="169.9" x2="204.16" y2="179.3"/></g><path class="cls-2" d="M279.33,247.37c0-3.8-3.08-6.88-6.88-6.88s-6.88,3.08-6.88,6.88,3.08,6.88,6.88,6.88,6.88-3.08,6.88-6.88Z"/><g><path class="cls-3" d="M336.88,174.83c0-3.8-3.08-6.88-6.88-6.88s-6.88,3.08-6.88,6.88,3.08,6.88,6.88,6.88,6.88-3.08,6.88-6.88Z"/><line class="cls-3" x1="334.96" y1="169.9" x2="325.56" y2="179.3"/></g><g><g><path class="cls-3" d="M243.63,409.82l-23.96,8.33c-.81,.28-1.32,1.09-1.21,1.94h0c.12,.96,.96,1.66,1.93,1.6l24.61-1.47-1.36-10.4Z"/><line class="cls-5" x1="220.39" y1="421.7" x2="224.34" y2="416.85"/><line class="cls-5" x1="224.88" y1="421.35" x2="230.07" y2="415.03"/><line class="cls-5" x1="229.39" y1="421.23" x2="236.52" y2="412.48"/><line class="cls-5" x1="234.12" y1="420.97" x2="242.57" y2="410.62"/></g><g><path class="cls-3" d="M251.83,414.46c-.46-3.77-3.89-6.46-7.66-6-3.77,.46-6.46,3.89-6,7.66,.46,3.77,3.89,6.46,7.66,6,3.77-.46,6.46-3.89,6-7.66Z"/><line class="cls-3" x1="249.33" y1="409.79" x2="241.13" y2="420.25"/></g></g></g><g id="Gears"><g><path class="cls-2" d="M246.75,244.13c0-1.78-.13-3.52-.39-5.23l9.22-3,1.26-3.01-2.04,.59-2.85-8.78-9.25,3.01c-1.62-3.07-3.67-5.87-6.08-8.32l5.7-7.85,1.26-3.01-2.02,2.46-8.77-6.37-5.72,7.87c-3.05-1.51-6.34-2.58-9.8-3.16v-9.7h-9.77l-.75-3.01-1.26,3.01v9.73c-3.46,.59-6.75,1.68-9.79,3.2l-5.7-7.85-6.41,4.66-1.87-.74-.2,.49-1.05,2.53,5.72,7.87c-2.4,2.46-4.44,5.27-6.04,8.34l-6.19-2.01-1.78-4-1.26,3.01-3.64,11.21,9.25,3.01c-.24,1.66-.37,3.35-.37,5.07s.13,3.52,.39,5.23l-5.03,1.63-2.94-1.65-1.26,3.01,3.64,11.21,9.25-3.01c1.62,3.07,3.67,5.87,6.08,8.32l-3.54,4.88-.91-.04-1.26,3.01,9.53,6.93,5.72-7.87c3.05,1.51,6.34,2.58,9.8,3.16v9.7h11.78l1.26-3.01h-1.26v-6.72c3.46-.59,6.75-1.68,9.79-3.2l5.7,7.85,9.53-6.93,1.26-3.01-2.56,1.22-4.42-6.08c2.4-2.46,4.44-5.27,6.04-8.34l9.23,3,3.64-11.21-9.25-3.01c.24-1.66,.37-3.35,.37-5.07Zm-35.29,22.67c-12.52,0-22.67-10.15-22.67-22.67s10.15-22.67,22.67-22.67,22.67,10.15,22.67,22.67-10.15,22.67-22.67,22.67Z"/><path class="cls-1" d="M253.25,260.4l3.64-11.21-9.25-3.01c.24-1.66,.37-3.35,.37-5.07s-.13-3.52-.39-5.23l9.22-3-3.64-11.21-9.25,3.01c-1.62-3.07-3.67-5.87-6.08-8.32l5.7-7.85-9.53-6.93-5.72,7.87c-3.05-1.51-6.34-2.58-9.8-3.16v-9.7h-11.78v9.73c-3.46,.59-6.75,1.68-9.79,3.2l-5.7-7.85-9.53,6.93,5.72,7.87c-2.4,2.46-4.44,5.27-6.04,8.34l-9.23-3-3.64,11.21,9.25,3.01c-.24,1.66-.37,3.35-.37,5.07s.13,3.52,.39,5.23l-9.22,3,3.64,11.21,9.25-3.01c1.62,3.07,3.67,5.87,6.08,8.31l-5.7,7.85,9.53,6.93,5.72-7.87c3.05,1.51,6.34,2.58,9.8,3.16v9.7h11.78v-9.73c3.46-.59,6.75-1.68,9.79-3.2l5.7,7.85,9.53-6.93-5.72-7.87c2.4-2.46,4.44-5.27,6.04-8.34l9.23,3Zm-63.2-19.28c0-12.52,10.15-22.67,22.67-22.67s22.67,10.15,22.67,22.67-10.15,22.67-22.67,22.67-22.67-10.15-22.67-22.67Z"/></g><g><path class="cls-2" d="M308.17,181.45c0-1.78-.13-3.52-.39-5.23l9.22-3,1.26-3.01-2.04,.59-2.85-8.78-9.25,3.01c-1.62-3.07-3.67-5.87-6.08-8.32l5.7-7.85,1.26-3.01-2.02,2.46-8.77-6.37-5.72,7.87c-3.05-1.51-6.34-2.58-9.8-3.16v-9.7h-9.77l-.75-3.01-1.26,3.01v9.73c-3.46,.59-6.75,1.68-9.79,3.2l-5.7-7.85-6.41,4.66-1.87-.74-.2,.49-1.05,2.53,5.72,7.87c-2.4,2.46-4.44,5.27-6.04,8.34l-6.19-2.01-1.78-4-1.26,3.01-3.64,11.21,9.25,3.01c-.24,1.66-.37,3.35-.37,5.07s.13,3.52,.39,5.23l-5.03,1.63-2.94-1.65-1.26,3.01,3.64,11.21,9.25-3.01c1.62,3.07,3.67,5.87,6.08,8.32l-3.54,4.87-.91-.04-1.26,3.01,9.53,6.93,5.72-7.87c3.05,1.51,6.34,2.58,9.8,3.16v9.7h11.78l1.26-3.01h-1.26v-6.72c3.46-.59,6.75-1.68,9.79-3.2l5.7,7.85,9.53-6.93,1.26-3.01-2.56,1.22-4.42-6.08c2.4-2.46,4.44-5.27,6.04-8.34l9.23,3,3.64-11.21-9.25-3.01c.24-1.66,.37-3.35,.37-5.07Zm-35.29,22.67c-12.52,0-22.67-10.15-22.67-22.67s10.15-22.67,22.67-22.67,22.67,10.15,22.67,22.67-10.15,22.67-22.67,22.67Z"/><path class="cls-1" d="M314.67,197.72l3.64-11.21-9.25-3.01c.24-1.66,.37-3.35,.37-5.07s-.13-3.52-.39-5.23l9.22-3-3.64-11.21-9.25,3.01c-1.62-3.07-3.67-5.87-6.08-8.32l5.7-7.85-9.53-6.93-5.72,7.87c-3.05-1.51-6.34-2.58-9.8-3.16v-9.7h-11.78v9.73c-3.46,.59-6.75,1.68-9.79,3.2l-5.7-7.85-9.53,6.93,5.72,7.87c-2.4,2.46-4.44,5.27-6.04,8.34l-9.23-3-3.64,11.21,9.25,3.01c-.24,1.66-.37,3.35-.37,5.07s.13,3.52,.39,5.23l-9.22,3,3.64,11.21,9.25-3.01c1.62,3.07,3.67,5.87,6.08,8.32l-5.7,7.85,9.53,6.93,5.72-7.87c3.05,1.51,6.34,2.58,9.8,3.16v9.7h11.78v-9.73c3.46-.59,6.75-1.68,9.79-3.2l5.7,7.85,9.53-6.93-5.72-7.87c2.4-2.46,4.44-5.27,6.04-8.34l9.23,3Zm-63.2-19.28c0-12.52,10.15-22.67,22.67-22.67s22.67,10.15,22.67,22.67-10.15,22.67-22.67,22.67-22.67-10.15-22.67-22.67Z"/></g><g><g><path class="cls-2" d="M368.47,408.46l-2.39,3.03c-.29-.18-.56-.36-.88-.54-1.02-.57-2.16-1.11-3.42-1.61l5.98-1.78,2.32-.54v-.15l.05-.02-.05-.02v-6.59l-11.43,2.18,1.98,1.69-.9-.26-8.37,2.49c-3.52-.72-2.27-3.53-6.31-3.92l-3.38-1.2-14.39-.65-2.41,.06c-4.98-2.88-9.6-3.22-11.83,4.01l-5.57-3.11-6.77,1.02,3.83-2.9-9.93-2.94v6.77l-7.65,1.22h-12.79v6.76l10.77,1.58c-.39,.39-.7,.78-.97,1.18l-10.18,.48-2.46-4.19v6.77l2.46,4.19,9.41-.45v5.66l10.4,2.99,8.37-2.49c3.52,.72,7.36,1.27,11.39,1.66l-1.7,3.46,14.39,.65,1.72-3.47c4.19-.02,8.41-.22,12.53-.61l5.57,3.11,12.86-1.94-.96-4.31c1.54-.46,2.96-.94,4.23-1.45l10.73,1.57,6.44-3.79v-5.68l2.84-.14v-6.77l-13.53-1.04Zm-70.54-3.1l2.26,1.26c-1.41,.31-2.73,.65-3.98,1.01l1.72-2.27Zm45.61,17.98v-3.43s-1.54,.05-3.86,.12v-.5c-1.33,.2-2.7,.41-4.09,.62-7.56,.23-17.84,.53-18.21,.53l-.85,1.73c-6.07,.32-11.35-.06-14.62-1.89-7.19-4.01-1.93-8.94,11.74-11.01,13.67-2.07,30.58-.49,37.77,3.53,6.46,3.61,2.86,7.96-7.88,10.3Zm32.42-6.13l-4.03-.46,5.22-.25-1.2,.71Z"/><polygon class="cls-2" points="341.66 394.47 338.37 399.51 341.66 398.7 341.66 394.47"/></g><path class="cls-1" d="M339.67,417.28c-13.67,2.07-30.58,.49-37.76-3.52-7.19-4.01-1.93-8.94,11.74-11.01,13.67-2.07,30.58-.49,37.77,3.53,7.18,4.01,1.93,8.94-11.75,11.01m-32.2-22.5l-12.87,1.95,5.58,3.12c-3.44,.76-6.4,1.65-8.86,2.64l-10.73-1.57-6.44,3.79,10.77,1.58c-1.21,1.19-1.82,2.42-1.81,3.67l-11.8,.56,2.46,4.19,11.83-.56c.69,.57,1.52,1.13,2.51,1.69,1.02,.57,2.16,1.11,3.41,1.61l-8.35,2.48,10.4,2.99,8.37-2.49c3.52,.72,7.37,1.28,11.41,1.66l-1.72,3.46,14.39,.65,1.72-3.47c4.19-.02,8.41-.22,12.53-.61l5.57,3.11,12.86-1.94-5.58-3.12c3.44-.76,6.4-1.65,8.86-2.64l10.73,1.57,6.44-3.79-10.77-1.58c1.21-1.19,1.82-2.42,1.81-3.67l11.8-.56-2.46-4.19-11.83,.56c-.69-.57-1.52-1.13-2.51-1.68-1.02-.57-2.16-1.11-3.42-1.61l8.36-2.48-10.41-2.99-8.37,2.49c-3.52-.72-7.37-1.28-11.41-1.66l1.72-3.46-14.39-.65-1.72,3.47c-4.19,.02-8.41,.22-12.52,.6l-5.57-3.11"/></g><g><polygon class="cls-11" points="296.23 256.29 296.32 256.29 297.83 254.92 296.23 256.29"/><path class="cls-11" d="M294.52,261.04l-.48,.25c.02,.09,.11,.1,.48-.25Z"/><path class="cls-11" d="M295.35,259.27c.14-.18-.96,1.01-1.38,1.48,.38-.18,1.46-1.19,1.38-1.48Z"/><path class="cls-11" d="M292.75,263.56l4.23-1.37c.32-.32,.49-.59,.26-.76-.73,1.02-.63,.36-1.16,.73v.09c-.14,.09-.53,.36-.38,.09,.91-.41,2.07-1.4,2.95-1.99-.42,.22,.12-.61,.14-.76,.8-.64,.21,.19,.3,.38,.4-.37,1.28-.73,1.36-1.29,.34-.74-.88,.45-1.24,.45l2.48-1.83h-.12c.25-.09,.64-.37,.8-.65,.05-.37-.48,.08-.77,.45,.89-1.37,2.51-1.45,2.98-2.91l-.38,.24c.15-.19,.27-.28,.39-.28,0,.01,0,.02,0,.03l.77-.48c.02-.1,.04-.28-.09-.19l.77-.45c1.31-1.01-.03-.66,.28-1.12l-.05,.06c.3-.41,.42-.82,.13-.62l1.43-1h-.01c-.16,.03-.28,.03-.32-.1l.32,.1c.77-.18,2.62-1.89,3.13-1.34,.05-.07,.09-.13,.14-.2-.02-.11-.04-.21-.06-.32-.1,.1-.21,.19-.4,.32,.17-.14,.29-.24,.4-.33-.23-1.15-.36-2.33-.41-3.53-.33,.27-.57,.5-.58,.69,.05-.03,.09-.06,.14-.09l-.04,.28c-.07-.06-.1-.12-.1-.2-.94,.56-1.64,1.5-2.38,2.03l.19,.28c-.39,.27-.9,.55-1.18,.91,.04,.03,.11,.02,.21-.01,.18-.15,.35-.29,.55-.44-.18,.24-.39,.38-.55,.44-1.38,1.09-2.39,2.09-3.46,3.14,.22,.1,.32,.2,.98-.35-.75,1.2-2.89,2.28-4.29,3.85h.23l-1.02,.64c.25-.09,.22,.1,.32,.2-1.38,1.47-3.14,3.22-4.35,3.48,.51-.27-.36,.93,.66,.3-1.13,.72-2.27,1.77-3.38,2.82l.2,.61Zm7.83-5.91l.92-.73-.95,.92,.03-.19Zm-2.42,2.2l-.82,.83-.5,.27,1.32-1.1Z"/><path class="cls-11" d="M294.04,261.29c-.02-.18,.26-.71-.4,.2l.4-.2Z"/><path class="cls-11" d="M294.09,258.22l1.66-1-.62,.27,1.04-.73c-.34-.1-1.48,.53-2.08,1.46Z"/><path class="cls-11" d="M295.03,258.14c-.08,.03-.22,.12-.51,.37,.15-.14,.33-.26,.51-.37Z"/><path class="cls-11" d="M295.03,258.14c.21-.06-.06,.39,.6-.08-.04-.18-.31-.1-.6,.08Z"/><path class="cls-11" d="M328.6,283.44l.5-.79c-.73-.04-.4,.4-.5,.79Z"/><polygon class="cls-11" points="296.69 256.31 296.32 256.29 296.22 256.38 296.69 256.31"/><path class="cls-11" d="M337.19,218.46c.42-.17,1.06-.19,1.27-1.01-.77,.07-.61,.64-1.27,1.01Z"/><path class="cls-11" d="M328.44,283.7c.09-.08,.14-.17,.16-.26l-.16,.26Z"/><path class="cls-11" d="M342.53,210.1c-.05-.01-.1-.03-.16-.04-.15,.27-.22,.49-.14,.53,.01-.11,.13-.28,.3-.48Z"/><path class="cls-11" d="M338.29,220.97h-.23c1.43-1.01,2.54-3.05,3.78-4.43-.02,.18-1.09,1.1-.64,1.3l1.74-1.56c.02-.18,.71-.92,.09-.65-.26,.18-.42,.46-.56,.65l.05-.38c1.71-1.37,.39,.57,.7,.86,.71-.92,1.3-.91,1.85-1.47-.04-.56-1.4,.73-1.02-.3,.33-.65,2.16-2.02,3.01-2.28,.02-.29,.14-.59,.33-.89-.45-.2-.9-.39-1.36-.57-2.55,2.34-5.48,3.94-7.45,7.05h.12l-2.19,1.46c-.29,.37-.1,.75-.55,1.4-.02-.31-.35,.03-.73,.4,.73,.06,1.45,.16,2.16,.29,.13-.23,.38-.51,.9-.87Z"/><path class="cls-11" d="M299.68,254.3c.28-.37-.05-.47,.71-.92,.08,.28,.75,.48,1.49-.54-.99,.36-1.21,.26-2.25,.99l.05,.47Z"/><path class="cls-11" d="M301.81,253.45l.97-1.25c-.98,.21-.69,.69-.97,1.25Z"/><path class="cls-11" d="M301.81,253.45l-.31,.41c.15-.14,.25-.28,.31-.41Z"/><polygon class="cls-11" points="310.82 240.73 310.83 240.73 310.83 240.72 310.82 240.73"/><path class="cls-11" d="M361.23,222.67c-.07-.09-.14-.17-.21-.26-.15,.13-.3,.27-.46,.44,.03,.23,.38,.03,.67-.17Z"/><path class="cls-11" d="M350.41,259.13c.37-.58,.84-.45,1.15-.77-.08-.25-.37-.14-.59-.11-.2,.26-.41,.51-.63,.75,.01,.05,.03,.1,.07,.13Z"/><path class="cls-11" d="M351.52,258.07c-.03-.21,.37-.58,.68-.97-.46-.13-.87,.85-.68,.97Z"/><path class="cls-11" d="M345.67,265.93c-.34,.18-1.15,.08-1.41,.83l.5-.27-.07,.11,.28,.08c-.59-.37,.46-.55,.71-.76Z"/><polygon class="cls-11" points="354.13 231.16 353.68 231.81 354.09 231.44 354.13 231.16"/><path class="cls-11" d="M311.65,251.03c-.39,.37-.75,.74-1.13,1.01l.19,.28c-.39,.27-.9,.55-1.18,.91,.04,.03,.11,.02,.21-.01,.18-.15,.35-.29,.56-.44-.18,.24-.39,.38-.56,.44-1.38,1.09-2.39,2.09-3.46,3.14,.22,.1,.32,.2,.98-.35-.75,1.2-2.89,2.28-4.29,3.85h.23l-1.02,.64c.25-.09,.22,.1,.32,.2-.09,.09-.18,.19-.27,.28,1.58,2.9,3.54,5.56,5.84,7.9l-5.7,7.85,9.53,6.93,5.72-7.87c3.05,1.51,6.34,2.58,9.8,3.16v2.3c.18-.14,.31-.33,.33-.65l-.25,.11c.08-.12,.16-.16,.25-.14,0,0,0,.02,0,.02l.51-.22c0-.07-.03-.22-.11-.17l.51-.2c.83-.52-.16-.52-.02-.83l-.03,.04c.15-.26,.16-.56-.03-.46l.92-.49h-.01c-.12,0-.22-.04-.28-.15l.28,.15c.57,.02,1.67-.95,2.19-.4,.15-.23,.2-.47,.04-.47,0,0-.03,.02-.04,.03-.07,.09-.15,.14-.3,.22,.14-.09,.22-.16,.3-.22,.01-.01,.02-.02,.03-.03,0,0,0,0,0,0,.56-.49-.54-.29,.39-1.05-.1-.1-.17,.02-.34,.11,.21-.23,.34-.29,.43-.27-.06-.06-.11-.14-.14-.27,.2,.19,.51-.2,.66-.43l-.63-.04c.35-.04,.52-.13,.83-.52h-.45c.65-.49,.5,.43,1.01-.45l-.43,.84c.81-.66,.99,0,1.51-.12,1.1-.44,1.44-1.99,2.7-1.9-.13-.31-.31-.29-.27-.7-.58,.39-.91,.56-1.46,.48-1.26,.6,.59,1.06-.95,1.58-.23-.34,.09-.66,.52-.81-.21-.27-.72-.07-1.07,.04,.72-.46,1.26-1.61,1.67-1.95-.01,0-.03,0-.05,.01l.08-.04s-.02,.02-.04,.03c.31-.05,.95-.34,1.09-.62-.02-.04-.03-.1,0-.21,.04,.07,.03,.13,0,.21,.15,.21,1.21-.58,1.3,.09,.73-.54-.12-.92,.93-1.11-.55-.09,.18-.63-.36-.65,.07,.5-1.07,.72-1.59,.85l.75-1.09c-.14,.31,.38,.18,.55,.09l-.14-.38c.78,.5,1.16-2.07,2.36-1.8-.32,.25-.35,.72-.83,.52-.35,.72,.59,.37,.56,.84,1.09-.58,1.94-2.26,3.31-2.69-.36-.03-.75,.4-1.05,.18,.52-.81,1.92-1.03,2.92-1.57l-.48-.2c.94-.35,.13-.38,.95-.97,.01,.07,.04,.28,.2,.12,.55-.6-.22-.34,.07-.8,.59-.1,.61-.26,.61-.47-3.79,2.84-8.5,4.53-13.6,4.53-10.11,0-18.68-6.62-21.59-15.77Zm33.12,12.8c.39,.25-.51,.88-.65,1.19-.25-.55,.74-.48,.65-1.19Z"/><path class="cls-11" d="M361.24,224.01c.07-.13,.13-.24,.14-.31-.12,.14-.15,.23-.14,.31Z"/><path class="cls-11" d="M361.46,224.14c.12,0,.25-.05,.35-.15-.09,0-.22,.06-.35,.15Z"/><path class="cls-11" d="M361.46,224.14c-.11,0-.2-.04-.22-.13-.42,.72-1.74,2.22-2.54,2.92-.18,.47,.98-.26,1.35-.44-1.24-.4,1.08-1.01,1.45-1.95-.25,.09-.67,.55-.9,.55,.12-.27,.52-.72,.86-.95Z"/><path class="cls-11" d="M328.52,282.97c-.51,.05-.75,.01-1.1,.11v.02s.02-.01,.04-.02c.12,.24,.7,.54,1.06-.11Z"/><path class="cls-11" d="M359.26,224.6l1.62-1.56c-.42-.39-.68,.64-1.16,.73,.07-.52,.7-.94,1.23-1.43-.81-1.02-1.65-2.02-2.56-2.94l5.7-7.85-6.87-4.99c-.59,.56-1.26,1.33-1.95,1.91l.21,.19-.78,.55,.36-.09c-.68,.64-1.79,1.09-2.39,2.01,.43-.55,.86-.35,.96-.16l-2.34,1.64c.09,.19-.74,1.11,.03,.65l-1.01,.54,.22,.1c-2.81,3.41-6.67,4.93-9.07,8.73h.12l-.4,.27c4.68,1.75,8.63,5.01,11.25,9.18,1.03-.72,2.11-1.51,2.96-2.49-.23,0-.64,.36-.75,.36,1.2-1.01,3.29-1.72,3.58-2.93-.68,.34-1.48,.77-2.21,1.17-.15,.14-.27,.19-.39,.22-.46,.26-.89,.5-1.21,.7,.59-.81,.88-.64,1.21-.7,.13-.07,.26-.15,.39-.22,.14-.14,.3-.36,.51-.73l-.61,.18c1.25-1.39,1.48-.53,2.49-.99l.51-1.11c.8-1.03,1.71-1.88,2.61-2.5-.07-.1-.15-.19-.23-.29-.62,.62-1.38,1.63-2.02,1.86Z"/><path class="cls-11" d="M339.57,271.18c-.09,.06-.15,.12-.2,.17,.07-.03,.13-.08,.2-.17Z"/><path class="cls-11" d="M338.98,271.42c.17,.21,.19,.12,.39-.08-.3,.14-.58-.19-.8,.37,.18-.02,.23-.28,.41-.29Z"/><path class="cls-11" d="M340.48,269.93c-.18-.67-.95,.28-1.24,.74,.26-.06,.76-1.02,1.24-.74Z"/><polygon class="cls-11" points="339.34 269.47 339.39 269.83 339.7 269.44 339.34 269.47"/><polygon class="cls-11" points="342.75 266.2 343.26 265.93 343.25 265.86 342.75 266.13 342.75 266.2"/><path class="cls-11" d="M342.37,270.06c-.49-.34-.2,.49-.81,.66,.21,.19,.69-.21,.96-.21,.15-.23-.29-.15-.48-.2,.07-.12,.16-.16,.33-.25Z"/><path class="cls-11" d="M341.05,272l-.19,.16c.09-.03,.15-.09,.19-.16Z"/><path class="cls-11" d="M341.05,272l.3-.25c-.22-.16-.19,.07-.3,.25Z"/><path class="cls-11" d="M337.86,216.69l.41-.45c-.44,.64,.99-.36,.28,.57-.29,.37,.76-.36,1.06-.83-.22-.1-.92,.73-.86,.27l.29-.37c-.43,.56-.69-.11-1.17,.82Z"/><path class="cls-11" d="M360.58,251.54c-.25,.13-.34,.11-.46,.55,.25-.13,.48-.41,.46-.55Z"/><path class="cls-11" d="M353.74,255.97c-.08,.04-.63,.64-.84,.45l.15,.45c.22-.35,.75-.4,.69-.21,.04-.4,.38-.51,0-.69Z"/><path class="cls-11" d="M357.33,251.99c-.22,.35-1.02,.4-.78,.87l.74-.47c-.03-.22,.32-.32,.04-.4Z"/><path class="cls-11" d="M368.53,244.13c0-1.78-.13-3.52-.39-5.23l9.22-3-3.64-11.21-9.25,3.01c-.52-.99-1.11-1.95-1.72-2.88-.35,.38-.71,.72-1.06,.86-.02,.18,.39-.28,.23,.1-2.03,1.93-5.32,4.49-7.44,7.08-.3-.15-.76,.08-1.3,.48,1.74,3.21,2.73,6.89,2.73,10.8,0,4.74-1.46,9.14-3.95,12.78,.23-.1,.45-.16,.63-.17-.24-1.17,1.71-1.98,1.18-2.54,.01,.07,.37,.11,.51-.2h-.27c.42-.92,1.14-.17,1.43-.7-.11-.09-.27,0-.46-.06,.76-1.02,2.05-.72,2.61-1.93-.09-.03-.18-.05-.26,.06-.1-.02,.06-.18,.49-.34l-.11,.52c1.1,.17,.97-1.51,1.87-2.07-.19-.05-.74,.47-.62,.03,.47-.48,1.1,.25,1.34-.64-.33,.18-.57-.22-.88-.04-.07,.09-.15,.18-.25,.26,.09-.14,.17-.22,.25-.26,.32-.41,.4-.86,.78-.74,.08-.12,.03-.26-.04-.34-.06,0-.12,.01-.18,0,.03-.09,.11-.07,.18,0,.43-.05,.67-.56,.87-.86l-.18-.06c1.1,.17,.8-.73,1.44-1.3l-.28-.08c.33-.18,.94-.35,1.11-1.05h-.45c.51-.19,.83-1.19,1.46-1.15,.06-.19-.73-.07-.18-.67,.27,0,.85-.3,.81-.66-.1-.1-.29-.15-.34,.11-.08,.12,0,.07,.1,.1l-.35,.04c.28-.61,.51-.2,.88-.78-.03-.22-.36-.04-.55-.09l2.15-1.38c.19,.12,.06,.43,.42,.47l-.53,.67c-.02,.55,.62-.03,.95-.21l-.39,.44s.05,.07,.1,.05l-.32,.3c1.19-.48-.36,1.34,.81,.71-.24,.21-.68,.29-.95,.28-.49,.34-.21,.42-.27,.68l.85-.38c-1.05,.87,.38,.18-.13,1.06-1,.61-.65,1.87-1.04,2.31-.88,.77,.01-.62-.66-.26-.48,.41-.04,.4-.26,.75l-.56-.16c-.57,.46,.32,.36-.11,.52-.18,.63,.27,0,.65,.19-.18,.02-.76,.33-.81,.66,.11,.09,.66-.43,.36-.04-1.47,1.09-1.37,1.81-2.57,2.9l.28,.08c-.17,.09-.34,.11-.41,.3l.19,.05c-.16,.16-1.56,1.07-2.25,1.9l.6-.17-.93,.42,.39,.25c-.55-.09-1.14,.91-1.87,1.46l.2,.2-.5,.27h.27c-.4,.37-1.19,.49-1.46,1.1,.22-.35,.61-.09,.72,.07l-1.5,.81c.11,.17-.35,.72,.16,.52l-.69,.22,.19,.13c-1.51,2.1-4.23,2.49-5.33,4.99l.09,.03-1.43,.69c-.15,.23,.08,.57-.14,.99-.15-.45-.64,.57-1.1,.51-.13,.37,.21,.19,.39,.24-.72,1.31-2.02,1.62-2.92,2.94,.69-1.51,.8-1.42,1.39-2.34-1.06,.72-.92,1.18-1.96,2.04l.58-.31c-.05,.94-1.72,1.22-1.36,1.87-.65,.5-1.63,.5-2.25,1.28l.73,.14-.63,.64-.31-.29c-.22,.19-.27,.35-.22,.45,.14-.02,.3-.01,.47,.03-.22,.12-.41,.09-.47-.03-.78,.09-1.19,.89-2.06,1.23l.08,.22c.11,0,.19,.01,.06,.17l-.06-.17c-.09,0-.19,.03-.23,.02,.14,.38-.43,.76-.22,1.03,.25-.14,.83-.44,.64-.57,.78-.19-.43,.76-.75,1.09,.2-.49-.28-.08-.53,.06,0,.07,.09,.03,.18,.05-.43,.76-1.4,.22-1.28,1.14l-.38-.18-.27,.68c-.6-.52-.72,.61-1.32,.17-.56,.53,.39,.25,.14,.38-.39,.62-1.79,.99-1.69,1.43,.03-.01,.06-.03,.09-.04l.03,.22c-.07-.06-.11-.12-.12-.18-.63,.25-.98,.84-1.46,1.1l.21,.27c-.25,.13-.59,.24-.74,.47,.04,.03,.1,.04,.16,.03,.11-.08,.22-.15,.35-.23-.1,.15-.23,.22-.35,.23-.86,.57-1.45,1.15-2.07,1.75,.19,.12,.3,.22,.7-.07-.34,.79-1.81,1.2-2.58,2.14l.18,.06-.44,.18v.25s.04,.05,.06,.07c-.02,.02-.04,.04-.06,.06v3.3h11.78v-9.73c3.46-.59,6.75-1.68,9.79-3.2l5.7,7.85,9.53-6.93-5.72-7.87c2.4-2.46,4.44-5.27,6.04-8.34l9.23,3,3.64-11.21-9.25-3.01c.24-1.66,.37-3.35,.37-5.07Zm-10.68,6.43c.44-.69,.16-.16,.8-.66l-.8,.66Z"/><path class="cls-11" d="M297.95,244.13c0,1.78,.13,3.52,.39,5.23l-9.22,3,2.82,8.69c.86-.82,1.62-1.69,2.12-2.64l-1.53,.91c.7-.83,2.36-1.83,1.83-2.22-.73,1.02-.63,.36-1.16,.73v.09c-.14,.09-.53,.36-.38,.09,.91-.41,2.07-1.4,2.95-1.99-.42,.22,.12-.61,.14-.76,.8-.64,.21,.19,.3,.38,.4-.37,1.28-.73,1.36-1.29,.34-.74-.88,.45-1.24,.45l2.48-1.83h-.12c.25-.09,.64-.37,.8-.65,.05-.37-.48,.08-.77,.45,.89-1.37,2.51-1.45,2.98-2.91l-.38,.24c.15-.19,.27-.28,.39-.28,0,0,0,.02,0,.03l.77-.48c.02-.1,.04-.28-.09-.19l.77-.45c1.31-1.01-.03-.66,.28-1.12l-.05,.06c.3-.41,.42-.82,.13-.62l1.43-1h-.01c-.16,.03-.28,.03-.32-.1l.32,.1c.77-.18,2.62-1.9,3.13-1.34,.28-.36,.44-.72,.22-.65-.02,.02-.05,.04-.06,.05-.12,.14-.25,.24-.49,.41,.22-.17,.36-.3,.49-.41,.02-.02,.04-.03,.05-.05,0,0,0,0,0,0,.93-.87-.63-.2,.91-1.57-.1-.1-.24,.09-.51,.27,.37-.39,.56-.51,.68-.52-.06-.06-.09-.15-.09-.32,.21,.19,.77-.45,1.05-.82l-.85,.17c.49-.18,.75-.36,1.32-1.01l-.61,.18c.51-.44,.65-.37,.77-.33,1.74-9.71,9.66-17.28,19.55-18.47,.22-.2,.41-.44,.45-.76,.21,.09,0,.4-.31,.74,.2-.02,.4-.04,.6-.06l-.14-.02c1.41-.82,.32-.56,1.64-1.66,0,.09-.05,.37,.23,.09,.96-1.01-.18-.38,.39-1.11,1.75-.72,.25-.93,2.07-2.21h-.23c1.43-1.01,2.54-3.05,3.78-4.43-.02,.18-1.09,1.1-.64,1.3l1.74-1.56c.02-.18,.71-.92,.09-.65-.26,.18-.42,.46-.56,.65l.05-.38c1.71-1.37,.39,.57,.7,.86,.71-.92,1.3-.91,1.85-1.47-.04-.56-1.4,.73-1.02-.3,.1-.2,.35-.47,.67-.76-.91-.23-1.83-.43-2.77-.58v-9.7h-11.78v9.73c-3.46,.59-6.75,1.68-9.79,3.2l-5.7-7.85-9.53,6.93,5.72,7.87c-2.4,2.46-4.44,5.27-6.04,8.34l-9.23-3-3.64,11.21,9.25,3.01c-.24,1.66-.37,3.35-.37,5.07Zm-5.75,14.99l-.83,.08c.65-.46,.96-.16,.83-.08Zm2.26-2.77l-.5,.27,1.32-1.1-.82,.83Zm3.21-2.84l.03-.19,.92-.73-.95,.92Z"/><path class="cls-11" d="M350.58,261.78c-.2-.12-.57,.38-.63,.03l.15-.23c-.22,.35-.57-.23-.75,.4l.23-.27c-.21,.42,.71-.08,.34,.5-.15,.23,.52-.13,.66-.43Z"/><path class="cls-11" d="M361.69,247.75l.1,.03c-.01-.07,.02-.17,.07-.27-.1,.02-.19,.07-.17,.25Z"/><path class="cls-11" d="M364.85,245.29l.25-.13c.13-.38-.3-.22-.54-.02,.09,.03,.11,.17,.29,.15Z"/><path class="cls-11" d="M360.7,251.78c.41-.3,.74,.14,.93-.42-.32,.25-.66-.26-.93,.42Z"/><path class="cls-11" d="M361.16,247.12c.22,0,.76-.25,.89,.01,.28-.46,.57-.93-.11-.82l-.3,.39c.16-.16,.17-.09,.26-.06-.13,.37-.49,.34-.74,.47Z"/><path class="cls-11" d="M362.08,247.38c.02-.12,0-.2-.03-.25-.07,.13-.15,.25-.2,.37,.1-.02,.2-.03,.23-.12Z"/><path class="cls-11" d="M349.99,262.71c-.59-.11-.35,.37-.79,.53,.29-.05,.8,.07,.79-.53Z"/><path class="cls-11" d="M355.04,205.08s.02-.07,.03-.1l-.18-.13c-.5,.39-1.16,.7-1.03,1.15l1.18-.91Z"/><polygon class="cls-11" points="299.12 260.62 299.21 260.62 300.72 259.25 299.12 260.62"/><path class="cls-11" d="M298.02,261.82l1.04-.73c-.27-.08-1.07,.32-1.68,.97l.92-.3,.35-.21-.62,.27Z"/><path class="cls-11" d="M340.33,222.6c.05,.02,.1,.04,.16,.05,.35-.12,.71-.29,.86-.87-.65,.06-.64,.47-1.02,.81Z"/><path class="cls-11" d="M342.49,220.3c-.22-.1-.92,.73-.86,.27l.29-.37c-.43,.56-.69-.11-1.17,.82l.41-.45c-.44,.64,.99-.36,.28,.57-.29,.37,.76-.36,1.06-.83Z"/><path class="cls-11" d="M304.39,258.19c.15-.14,.25-.28,.31-.41l-.31,.41Z"/><path class="cls-11" d="M304.76,257.17c-.99,.36-1.21,.26-2.25,.99l.05,.47c.28-.37-.05-.47,.71-.92,.08,.28,.75,.48,1.49-.54Z"/><path class="cls-11" d="M354.57,204.61l-.34,.47c.17-.11,.33-.23,.49-.36l-.15-.11Z"/><path class="cls-11" d="M304.7,257.79l.97-1.25c-.98,.21-.69,.69-.97,1.25Z"/><path class="cls-11" d="M347.94,212.07c-.15,.09-.27,.14-.33,.09l.04,.56c.17-.23,.4-.4,.6-.51-.1-.05-.2-.09-.31-.14Z"/><path class="cls-11" d="M345.12,214.92c.03-.27,.71-.92,1.27-1.57-.58-.01-1.5,1.47-1.27,1.57Z"/><polygon class="cls-11" points="299.58 260.64 299.21 260.62 299.1 260.72 299.58 260.64"/></g></g></svg>