<?xml version="1.0" encoding="utf-8"?>
<!-- Generator: Adobe Illustrator 26.3.1, SVG Export Plug-In . SVG Version: 6.00 Build 0)  -->
<svg version="1.1" id="Calque_1" xmlns="http://www.w3.org/2000/svg" xmlns:xlink="http://www.w3.org/1999/xlink" x="0px" y="0px"
	 viewBox="0 0 19 18" style="enable-background:new 0 0 19 18;" xml:space="preserve">
<style type="text/css">
	.st0{fill:#0F211F;}
</style>
<path class="st0" d="M14.2,11.6c1.1-1.5,1.6-3.3,1.4-5.2c-0.2-1.8-1.1-3.5-2.5-4.7C11.7,0.6,9.9-0.1,8,0C6.2,0.1,4.4,0.8,3.1,2.1
	C1.8,3.4,1.1,5.2,1,7c-0.1,1.8,0.6,3.6,1.8,5s2.9,2.3,4.7,2.5c1.8,0.2,3.7-0.3,5.2-1.4h0c0,0,0.1,0.1,0.1,0.1l4.3,4.3
	c0.2,0.2,0.5,0.3,0.8,0.3c0.3,0,0.6-0.1,0.8-0.3c0.2-0.2,0.3-0.5,0.3-0.8c0-0.3-0.1-0.6-0.3-0.8l-4.3-4.3
	C14.3,11.7,14.3,11.7,14.2,11.6L14.2,11.6z M14.5,7.3c0,0.8-0.2,1.6-0.5,2.4c-0.3,0.8-0.8,1.4-1.3,2c-0.6,0.6-1.3,1-2,1.3
	c-0.8,0.3-1.6,0.5-2.4,0.5c-0.8,0-1.6-0.2-2.4-0.5c-0.8-0.3-1.4-0.8-2-1.3c-0.6-0.6-1-1.3-1.3-2C2.3,8.9,2.1,8.1,2.1,7.3
	c0-1.6,0.7-3.2,1.8-4.4c1.2-1.2,2.7-1.8,4.4-1.8c1.6,0,3.2,0.7,4.4,1.8C13.8,4.1,14.5,5.7,14.5,7.3z"/>
</svg>
